rawline-900.ufo
<glyph name="exclam" format="2">
  <advance width="741"/>
  <unicode hex="0021"/>
  <outline>
    <contour>
      <point x="176" y="614" type="line"/>
      <point x="176" y="1468" type="line"/>
      <point x="565" y="1468" type="line"/>
      <point x="565" y="614" type="line"/>
    </contour>
    <contour>
      <point x="176" y="0" type="line"/>
      <point x="176" y="377" type="line"/>
      <point x="565" y="377" type="line"/>
      <point x="565" y="0" type="line"/>
    </contour>
  </outline>
</glyph>
<glyph name="numbersign" format="2">
  <advance width="1550"/>
  <unicode hex="0023"/>
  <outline>
    <contour>
      <point x="1477" y="813" type="line"/>
      <point x="1151" y="813" type="line"/>
      <point x="1110" y="635" type="line"/>
      <point x="1372" y="635" type="line"/>
      <point x="1372" y="348" type="line"/>
      <point x="1040" y="348" type="line"/>
      <point x="956" y="0" type="line"/>
      <point x="647" y="0" type="line"/>
      <point x="733" y="348" type="line"/>
      <point x="610" y="348" type="line"/>
      <point x="526" y="0" type="line"/>
      <point x="217" y="0" type="line"/>
      <point x="303" y="348" type="line"/>
      <point x="74" y="348" type="line"/>
      <point x="74" y="635" type="line"/>
      <point x="373" y="635" type="line"/>
      <point x="414" y="813" type="line"/>
      <point x="178" y="813" type="line"/>
      <point x="178" y="1079" type="line"/>
      <point x="479" y="1079" type="line"/>
      <point x="571" y="1454" type="line"/>
      <point x="881" y="1454" type="line"/>
      <point x="786" y="1079" type="line"/>
      <point x="909" y="1079" type="line"/>
      <point x="1001" y="1454" type="line"/>
      <point x="1311" y="1454" type="line"/>
      <point x="1217" y="1079" type="line"/>
      <point x="1477" y="1079" type="line"/>
    </contour>
    <contour>
      <point x="803" y="635" type="line"/>
      <point x="844" y="813" type="line"/>
      <point x="721" y="813" type="line"/>
      <point x="680" y="635" type="line"/>
    </contour>
  </outline>
</glyph>
<glyph name="dollar" format="2">
  <advance width="1329"/>
  <unicode hex="0024"/>
  <anchor x="682" y="1454" name="Anchor-1"/>
  <anchor x="702" y="0" name="Anchor-0"/>
  <outline>
    <contour>
      <point x="1251" y="444" type="qcurve" smooth="yes"/>
      <point x="1251" y="350"/>
      <point x="1196" y="197"/>
      <point x="1105" y="95"/>
      <point x="976" y="24"/>
      <point x="838" y="-11"/>
      <point x="760" y="-16" type="qcurve"/>
      <point x="760" y="-264" type="line"/>
      <point x="596" y="-264" type="line"/>
      <point x="596" y="-14" type="line"/>
      <point x="458" y="0"/>
      <point x="176" y="88"/>
      <point x="66" y="152" type="qcurve"/>
      <point x="238" y="502" type="line"/>
      <point x="246" y="497"/>
      <point x="273" y="480"/>
      <point x="360" y="433"/>
      <point x="447" y="395"/>
      <point x="569" y="356"/>
      <point x="625" y="348" type="qcurve"/>
      <point x="625" y="528" type="line"/>
      <point x="616" y="530"/>
      <point x="498" y="567" type="qcurve" smooth="yes"/>
      <point x="302" y="633"/>
      <point x="129" y="818"/>
      <point x="129" y="975" type="qcurve" smooth="yes"/>
      <point x="129" y="1116"/>
      <point x="258" y="1332"/>
      <point x="466" y="1448"/>
      <point x="596" y="1462" type="qcurve"/>
      <point x="596" y="1669" type="line"/>
      <point x="760" y="1669" type="line"/>
      <point x="760" y="1462" type="line"/>
      <point x="958" y="1440"/>
      <point x="1217" y="1309" type="qcurve"/>
      <point x="1044" y="979" type="line"/>
      <point x="1026" y="990"/>
      <point x="966" y="1025"/>
      <point x="800" y="1094"/>
      <point x="731" y="1106" type="qcurve"/>
      <point x="731" y="920" type="line"/>
      <point x="762" y="913"/>
      <point x="813" y="895" type="qcurve" smooth="yes"/>
      <point x="901" y="868"/>
      <point x="1024" y="816"/>
      <point x="1140" y="741"/>
      <point x="1210" y="651"/>
      <point x="1251" y="524"/>
    </contour>
    <contour>
      <point x="543" y="1040" type="qcurve" smooth="yes"/>
      <point x="543" y="1011"/>
      <point x="582" y="973"/>
      <point x="625" y="954" type="qcurve"/>
      <point x="625" y="1110" type="line"/>
      <point x="543" y="1100"/>
    </contour>
    <contour>
      <point x="731" y="342" type="line"/>
      <point x="821" y="350"/>
      <point x="821" y="406" type="qcurve" smooth="yes"/>
      <point x="821" y="435"/>
      <point x="776" y="475"/>
      <point x="731" y="494" type="qcurve"/>
    </contour>
  </outline>
</glyph>
<glyph name="percent" format="2">
  <advance width="1742"/>
  <unicode hex="0025"/>
  <outline>
    <contour>
      <point x="240" y="133" type="line"/>
      <point x="819" y="786" type="line"/>
      <point x="1333" y="1477" type="line"/>
      <point x="1503" y="1323" type="line"/>
      <point x="948" y="690" type="line"/>
      <point x="410" y="-20" type="line"/>
    </contour>
    <contour>
      <point x="68" y="1286"/>
      <point x="279" y="1475"/>
      <point x="585" y="1475"/>
      <point x="797" y="1286"/>
      <point x="797" y="1016"/>
      <point x="585" y="827"/>
      <point x="279" y="827"/>
      <point x="68" y="1016"/>
    </contour>
    <contour>
      <point x="530" y="1208"/>
      <point x="472" y="1290"/>
      <point x="392" y="1290"/>
      <point x="334" y="1208"/>
      <point x="334" y="1094"/>
      <point x="392" y="1012"/>
      <point x="472" y="1012"/>
      <point x="530" y="1094"/>
    </contour>
    <contour>
      <point x="946" y="438"/>
      <point x="1158" y="627"/>
      <point x="1464" y="627"/>
      <point x="1675" y="438"/>
      <point x="1675" y="168"/>
      <point x="1464" y="-20"/>
      <point x="1158" y="-20"/>
      <point x="946" y="168"/>
    </contour>
    <contour>
      <point x="1409" y="360"/>
      <point x="1351" y="442"/>
      <point x="1271" y="442"/>
      <point x="1212" y="360"/>
      <point x="1212" y="246"/>
      <point x="1271" y="164"/>
      <point x="1351" y="164"/>
      <point x="1409" y="246"/>
    </contour>
  </outline>
</glyph>
<glyph name="ampersand" format="2">
  <advance width="1533"/>
  <unicode hex="0026"/>
  <outline>
    <contour>
      <point x="1546" y="0" type="line"/>
      <point x="1036" y="0" type="line"/>
      <point x="961" y="82" type="line"/>
      <point x="788" y="-20"/>
      <point x="584" y="-20" type="qcurve" smooth="yes"/>
      <point x="462" y="-20"/>
      <point x="262" y="61"/>
      <point x="139" y="193"/>
      <point x="72" y="356"/>
      <point x="72" y="442" type="qcurve" smooth="yes"/>
      <point x="72" y="651"/>
      <point x="276" y="819" type="qcurve"/>
      <point x="211" y="897"/>
      <point x="158" y="1023"/>
      <point x="158" y="1098" type="qcurve" smooth="yes"/>
      <point x="158" y="1272"/>
      <point x="396" y="1473"/>
      <point x="584" y="1473" type="qcurve" smooth="yes"/>
      <point x="666" y="1473"/>
      <point x="815" y="1432"/>
      <point x="939" y="1351"/>
      <point x="1012" y="1212"/>
      <point x="1012" y="1122" type="qcurve" smooth="yes"/>
      <point x="1012" y="922"/>
      <point x="823" y="764" type="qcurve"/>
      <point x="993" y="584" type="line"/>
      <point x="1038" y="702"/>
      <point x="1038" y="852" type="qcurve"/>
      <point x="1352" y="852" type="line"/>
      <point x="1349" y="555"/>
      <point x="1221" y="342" type="qcurve"/>
    </contour>
    <contour>
      <point x="584" y="1190" type="qcurve" smooth="yes"/>
      <point x="550" y="1190"/>
      <point x="510" y="1147"/>
      <point x="510" y="1114" type="qcurve" smooth="yes"/>
      <point x="510" y="1090"/>
      <point x="536" y="1054"/>
      <point x="578" y="1014" type="qcurve"/>
      <point x="621" y="1043"/>
      <point x="655" y="1087"/>
      <point x="655" y="1118" type="qcurve" smooth="yes"/>
      <point x="655" y="1152"/>
      <point x="616" y="1190"/>
    </contour>
    <contour>
      <point x="625" y="283" type="qcurve" smooth="yes"/>
      <point x="689" y="283"/>
      <point x="748" y="309" type="qcurve"/>
      <point x="516" y="557" type="line"/>
      <point x="444" y="498"/>
      <point x="444" y="442" type="qcurve" smooth="yes"/>
      <point x="444" y="387"/>
      <point x="536" y="283"/>
    </contour>
  </outline>
</glyph>
<glyph name="quotesingle" format="2">
  <advance width="544"/>
  <unicode hex="0027"/>
  <outline>
    <contour>
      <point x="109" y="1016" type="line"/>
      <point x="109" y="1495" type="line"/>
      <point x="436" y="1495" type="line"/>
      <point x="436" y="1016" type="line"/>
    </contour>
  </outline>
</glyph>
<glyph name="parenleft" format="2">
  <advance width="700"/>
  <unicode hex="0028"/>
  <outline>
    <contour>
      <point x="371" y="1581" type="qcurve"/>
      <point x="668" y="1462" type="line"/>
      <point x="637" y="1412"/>
      <point x="564" y="1267"/>
      <point x="473" y="1055"/>
      <point x="414" y="811"/>
      <point x="414" y="707" type="qcurve" smooth="yes"/>
      <point x="414" y="554"/>
      <point x="536" y="231"/>
      <point x="657" y="2" type="qcurve"/>
      <point x="375" y="-135" type="line"/>
      <point x="51" y="351"/>
      <point x="51" y="713" type="qcurve" smooth="yes"/>
      <point x="51" y="904"/>
      <point x="215" y="1316"/>
    </contour>
  </outline>
</glyph>
<glyph name="parenright" format="2">
  <advance width="698"/>
  <unicode hex="0029"/>
  <outline>
    <contour>
      <point x="324" y="-135" type="qcurve"/>
      <point x="41" y="2" type="line"/>
      <point x="163" y="232"/>
      <point x="285" y="555"/>
      <point x="285" y="707" type="qcurve" smooth="yes"/>
      <point x="285" y="811"/>
      <point x="226" y="1055"/>
      <point x="135" y="1267"/>
      <point x="62" y="1412"/>
      <point x="31" y="1462" type="qcurve"/>
      <point x="328" y="1581" type="line"/>
      <point x="483" y="1317"/>
      <point x="647" y="904"/>
      <point x="647" y="713" type="qcurve" smooth="yes"/>
      <point x="647" y="350"/>
    </contour>
  </outline>
</glyph>
<glyph name="asterisk" format="2">
  <advance width="745"/>
  <unicode hex="002A"/>
  <outline>
    <contour>
      <point x="133" y="1022" type="line"/>
      <point x="233" y="1182" type="line"/>
      <point x="86" y="1225" type="line"/>
      <point x="135" y="1382" type="line"/>
      <point x="289" y="1309" type="line"/>
      <point x="274" y="1477" type="line"/>
      <point x="471" y="1477" type="line"/>
      <point x="457" y="1309" type="line"/>
      <point x="610" y="1382" type="line"/>
      <point x="659" y="1225" type="line"/>
      <point x="512" y="1182" type="line"/>
      <point x="612" y="1022" type="line"/>
      <point x="471" y="930" type="line"/>
      <point x="373" y="1100" type="line"/>
      <point x="274" y="930" type="line"/>
    </contour>
  </outline>
</glyph>
<glyph name="plus" format="2">
  <advance width="876"/>
  <unicode hex="002B"/>
  <outline>
    <contour>
      <point x="786" y="881" type="line"/>
      <point x="786" y="573" type="line"/>
      <point x="612" y="573" type="line"/>
      <point x="612" y="379" type="line"/>
      <point x="264" y="379" type="line"/>
      <point x="264" y="573" type="line"/>
      <point x="90" y="573" type="line"/>
      <point x="90" y="881" type="line"/>
      <point x="264" y="881" type="line"/>
      <point x="264" y="1075" type="line"/>
      <point x="612" y="1075" type="line"/>
      <point x="612" y="881" type="line"/>
    </contour>
  </outline>
</glyph>
<glyph name="comma" format="2">
  <advance width="526"/>
  <unicode hex="002C"/>
  <outline>
    <contour>
      <point x="145" y="-322" type="line"/>
      <point x="219" y="0" type="line"/>
      <point x="102" y="0" type="line"/>
      <point x="102" y="377" type="line"/>
      <point x="424" y="377" type="line"/>
      <point x="424" y="0" type="line"/>
      <point x="313" y="-322" type="line"/>
    </contour>
  </outline>
</glyph>
<glyph name="hyphen" format="2">
  <advance width="845"/>
  <unicode hex="002D"/>
  <outline>
    <contour>
      <point x="102" y="391" type="line"/>
      <point x="102" y="739" type="line"/>
      <point x="743" y="739" type="line"/>
      <point x="743" y="391" type="line"/>
    </contour>
  </outline>
</glyph>
<glyph name="period" format="2">
  <advance width="520"/>
  <unicode hex="002E"/>
  <outline>
    <contour>
      <point x="102" y="0" type="line"/>
      <point x="102" y="377" type="line"/>
      <point x="418" y="377" type="line"/>
      <point x="418" y="0" type="line"/>
    </contour>
  </outline>
</glyph>
<glyph name="slash" format="2">
  <advance width="1591"/>
  <unicode hex="002F"/>
  <outline>
    <contour>
      <point x="1538" y="1454" type="line"/>
      <point x="481" y="0" type="line"/>
      <point x="53" y="0" type="line"/>
      <point x="1108" y="1454" type="line"/>
    </contour>
  </outline>
</glyph>
<glyph name="two" format="2">
  <advance width="1292"/>
  <unicode hex="0032"/>
  <outline>
    <contour>
      <point x="74" y="0" type="line"/>
      <point x="74" y="112"/>
      <point x="84" y="256"/>
      <point x="116" y="397"/>
      <point x="178" y="497"/>
      <point x="277" y="591"/>
      <point x="352" y="637" type="qcurve" smooth="yes"/>
      <point x="382" y="655"/>
      <point x="492" y="717"/>
      <point x="565" y="758"/>
      <point x="656" y="822"/>
      <point x="710" y="880"/>
      <point x="748" y="959"/>
      <point x="748" y="1001" type="qcurve" smooth="yes"/>
      <point x="748" y="1065"/>
      <point x="672" y="1126"/>
      <point x="614" y="1126" type="qcurve" smooth="yes"/>
      <point x="539" y="1126"/>
      <point x="377" y="1041"/>
      <point x="313" y="979" type="qcurve"/>
      <point x="74" y="1239" type="line"/>
      <point x="161" y="1338"/>
      <point x="480" y="1470"/>
      <point x="670" y="1470" type="qcurve" smooth="yes"/>
      <point x="917" y="1470"/>
      <point x="1192" y="1235"/>
      <point x="1192" y="1028" type="qcurve" smooth="yes"/>
      <point x="1192" y="878"/>
      <point x="1045" y="659"/>
      <point x="903" y="569" type="qcurve" smooth="yes"/>
      <point x="654" y="412"/>
      <point x="567" y="348" type="qcurve"/>
      <point x="1194" y="348" type="line"/>
      <point x="1194" y="0" type="line"/>
    </contour>
  </outline>
</glyph>
<glyph name="three" format="2">
  <advance width="1200"/>
  <unicode hex="0033"/>
  <outline>
    <contour>
      <point x="535" y="-10" type="qcurve" smooth="yes"/>
      <point x="228" y="-10"/>
      <point x="37" y="154" type="qcurve"/>
      <point x="236" y="436" type="line"/>
      <point x="351" y="346"/>
      <point x="514" y="346" type="qcurve" smooth="yes"/>
      <point x="618" y="346"/>
      <point x="715" y="410"/>
      <point x="715" y="479" type="qcurve" smooth="yes"/>
      <point x="715" y="556"/>
      <point x="591" y="625"/>
      <point x="453" y="625" type="qcurve" smooth="yes"/>
      <point x="389" y="625" type="line"/>
      <point x="389" y="895" type="line"/>
      <point x="461" y="895" type="line" smooth="yes"/>
      <point x="559" y="895"/>
      <point x="678" y="972"/>
      <point x="678" y="1036" type="qcurve" smooth="yes"/>
      <point x="678" y="1086"/>
      <point x="608" y="1141"/>
      <point x="545" y="1141" type="qcurve" smooth="yes"/>
      <point x="398" y="1141"/>
      <point x="301" y="997" type="qcurve"/>
      <point x="55" y="1286" type="line"/>
      <point x="127" y="1368"/>
      <point x="424" y="1470"/>
      <point x="590" y="1470" type="qcurve" smooth="yes"/>
      <point x="818" y="1470"/>
      <point x="1096" y="1272"/>
      <point x="1096" y="1110" type="qcurve" smooth="yes"/>
      <point x="1096" y="988"/>
      <point x="945" y="798"/>
      <point x="831" y="776" type="qcurve"/>
      <point x="957" y="754"/>
      <point x="1118" y="549"/>
      <point x="1118" y="408" type="qcurve" smooth="yes"/>
      <point x="1118" y="214"/>
      <point x="805" y="-10"/>
    </contour>
  </outline>
</glyph>
<glyph name="four" format="2">
  <advance width="1222"/>
  <unicode hex="0034"/>
  <outline>
    <contour>
      <point x="578" y="2" type="line"/>
      <point x="578" y="281" type="line"/>
      <point x="51" y="281" type="line"/>
      <point x="51" y="629" type="line"/>
      <point x="700" y="1456" type="line"/>
      <point x="967" y="1456" type="line"/>
      <point x="967" y="629" type="line"/>
      <point x="1147" y="629" type="line"/>
      <point x="1147" y="281" type="line"/>
      <point x="967" y="281" type="line"/>
      <point x="967" y="2" type="line"/>
    </contour>
    <contour>
      <point x="434" y="629" type="line"/>
      <point x="623" y="629" type="line"/>
      <point x="623" y="874" type="line"/>
    </contour>
  </outline>
</glyph>
<glyph name="five" format="2">
  <advance width="1191"/>
  <unicode hex="0035"/>
  <outline>
    <contour>
      <point x="555" y="-18" type="qcurve" smooth="yes"/>
      <point x="395" y="-18"/>
      <point x="139" y="103"/>
      <point x="70" y="211" type="qcurve"/>
      <point x="283" y="457" type="line"/>
      <point x="341" y="394"/>
      <point x="488" y="322"/>
      <point x="557" y="322" type="qcurve" smooth="yes"/>
      <point x="632" y="322"/>
      <point x="719" y="404"/>
      <point x="719" y="473" type="qcurve" smooth="yes"/>
      <point x="719" y="540"/>
      <point x="641" y="623"/>
      <point x="578" y="623" type="qcurve" smooth="yes"/>
      <point x="536" y="623"/>
      <point x="463" y="584"/>
      <point x="444" y="551" type="qcurve"/>
      <point x="111" y="551" type="line"/>
      <point x="283" y="1456" type="line"/>
      <point x="1012" y="1456" type="line"/>
      <point x="1012" y="1102" type="line"/>
      <point x="563" y="1102" type="line"/>
      <point x="541" y="944" type="line"/>
      <point x="569" y="954"/>
      <point x="635" y="954" type="qcurve" smooth="yes"/>
      <point x="848" y="954"/>
      <point x="1118" y="690"/>
      <point x="1118" y="481" type="qcurve" smooth="yes"/>
      <point x="1118" y="260"/>
      <point x="805" y="-18"/>
    </contour>
  </outline>
</glyph>
<glyph name="six" format="2">
  <advance width="1247"/>
  <unicode hex="0036"/>
  <outline>
    <contour>
      <point x="659" y="969" type="qcurve" smooth="yes"/>
      <point x="517" y="969"/>
      <point x="438" y="899" type="qcurve"/>
      <point x="443" y="1008"/>
      <point x="559" y="1130"/>
      <point x="659" y="1130" type="qcurve" smooth="yes"/>
      <point x="803" y="1130"/>
      <point x="913" y="1020" type="qcurve"/>
      <point x="1128" y="1270" type="line"/>
      <point x="932" y="1466"/>
      <point x="666" y="1466" type="qcurve" smooth="yes"/>
      <point x="392" y="1466"/>
      <point x="80" y="1055"/>
      <point x="80" y="696" type="qcurve" smooth="yes"/>
      <point x="80" y="356"/>
      <point x="366" y="-20"/>
      <point x="627" y="-20" type="qcurve" smooth="yes"/>
      <point x="859" y="-20"/>
      <point x="1171" y="276"/>
      <point x="1171" y="492" type="qcurve" smooth="yes"/>
      <point x="1171" y="696"/>
      <point x="879" y="969"/>
    </contour>
    <contour>
      <point x="453" y="492" type="qcurve" smooth="yes"/>
      <point x="453" y="564"/>
      <point x="555" y="664"/>
      <point x="699" y="664"/>
      <point x="801" y="564"/>
      <point x="801" y="492" type="qcurve" smooth="yes"/>
      <point x="801" y="417"/>
      <point x="696" y="305"/>
      <point x="558" y="305"/>
      <point x="453" y="417"/>
    </contour>
  </outline>
</glyph>
<glyph name="eight" format="2">
  <advance width="1251"/>
  <unicode hex="0038"/>
  <outline>
    <contour>
      <point x="625" y="-20" type="qcurve" smooth="yes"/>
      <point x="517" y="-20"/>
      <point x="318" y="49"/>
      <point x="166" y="172"/>
      <point x="76" y="357"/>
      <point x="76" y="465" type="qcurve" smooth="yes"/>
      <point x="76" y="564"/>
      <point x="179" y="722"/>
      <point x="252" y="776" type="qcurve"/>
      <point x="194" y="811"/>
      <point x="117" y="951"/>
      <point x="117" y="1022" type="qcurve" smooth="yes"/>
      <point x="117" y="1123"/>
      <point x="212" y="1292"/>
      <point x="362" y="1396"/>
      <point x="538" y="1454"/>
      <point x="625" y="1454" type="qcurve" smooth="yes"/>
      <point x="694" y="1454"/>
      <point x="835" y="1420"/>
      <point x="968" y="1348"/>
      <point x="1072" y="1249"/>
      <point x="1135" y="1107"/>
      <point x="1135" y="1026" type="qcurve" smooth="yes"/>
      <point x="1135" y="955"/>
      <point x="1055" y="810"/>
      <point x="997" y="776" type="qcurve"/>
      <point x="1071" y="721"/>
      <point x="1174" y="558"/>
      <point x="1174" y="453" type="qcurve" smooth="yes"/>
      <point x="1174" y="314"/>
      <point x="1026" y="96"/>
      <point x="776" y="-20"/>
    </contour>
    <contour>
      <point x="670" y="905"/>
      <point x="739" y="962"/>
      <point x="739" y="1014" type="qcurve" smooth="yes"/>
      <point x="739" y="1055"/>
      <point x="675" y="1112"/>
      <point x="575" y="1112"/>
      <point x="512" y="1055"/>
      <point x="512" y="1014" type="qcurve" smooth="yes"/>
      <point x="512" y="962"/>
      <point x="580" y="905"/>
    </contour>
    <contour>
      <point x="557" y="616"/>
      <point x="471" y="539"/>
      <point x="471" y="475" type="qcurve" smooth="yes"/>
      <point x="471" y="415"/>
      <point x="560" y="334"/>
      <point x="625" y="334" type="qcurve" smooth="yes"/>
      <point x="692" y="334"/>
      <point x="778" y="416"/>
      <point x="778" y="475" type="qcurve" smooth="yes"/>
      <point x="778" y="541"/>
      <point x="693" y="616"/>
    </contour>
  </outline>
</glyph>
<glyph name="nine" format="2">
  <advance width="1245"/>
  <unicode hex="0039"/>
  <outline>
    <contour>
      <point x="586" y="477" type="qcurve" smooth="yes"/>
      <point x="728" y="477"/>
      <point x="807" y="547" type="qcurve"/>
      <point x="802" y="438"/>
      <point x="686" y="315"/>
      <point x="586" y="315" type="qcurve" smooth="yes"/>
      <point x="443" y="315"/>
      <point x="332" y="426" type="qcurve"/>
      <point x="117" y="176" type="line"/>
      <point x="313" y="-20"/>
      <point x="580" y="-20" type="qcurve" smooth="yes"/>
      <point x="854" y="-20"/>
      <point x="1165" y="390"/>
      <point x="1165" y="750" type="qcurve" smooth="yes"/>
      <point x="1165" y="1090"/>
      <point x="879" y="1466"/>
      <point x="618" y="1466" type="qcurve" smooth="yes"/>
      <point x="386" y="1466"/>
      <point x="74" y="1170"/>
      <point x="74" y="954" type="qcurve" smooth="yes"/>
      <point x="74" y="750"/>
      <point x="366" y="477"/>
    </contour>
    <contour>
      <point x="793" y="954" type="qcurve" smooth="yes"/>
      <point x="793" y="882"/>
      <point x="690" y="782"/>
      <point x="546" y="782"/>
      <point x="444" y="882"/>
      <point x="444" y="954" type="qcurve" smooth="yes"/>
      <point x="444" y="1029"/>
      <point x="549" y="1141"/>
      <point x="687" y="1141"/>
      <point x="793" y="1029"/>
    </contour>
  </outline>
</glyph>
<glyph name="colon" format="2">
  <advance width="622"/>
  <unicode hex="003A"/>
  <outline>
    <contour>
      <point x="154" y="686" type="line"/>
      <point x="154" y="1063" type="line"/>
      <point x="469" y="1063" type="line"/>
      <point x="469" y="686" type="line"/>
    </contour>
    <contour>
      <point x="154" y="0" type="line"/>
      <point x="154" y="377" type="line"/>
      <point x="469" y="377" type="line"/>
      <point x="469" y="0" type="line"/>
    </contour>
  </outline>
</glyph>
<glyph name="semicolon" format="2">
  <advance width="624"/>
  <unicode hex="003B"/>
  <outline>
    <contour>
      <point x="156" y="686" type="line"/>
      <point x="156" y="1063" type="line"/>
      <point x="471" y="1063" type="line"/>
      <point x="471" y="686" type="line"/>
    </contour>
    <contour>
      <point x="195" y="-322" type="line"/>
      <point x="268" y="0" type="line"/>
      <point x="152" y="0" type="line"/>
      <point x="152" y="377" type="line"/>
      <point x="473" y="377" type="line"/>
      <point x="473" y="0" type="line"/>
      <point x="362" y="-322" type="line"/>
    </contour>
  </outline>
</glyph>
<glyph name="less" format="2">
  <advance width="1067"/>
  <unicode hex="003C"/>
  <outline>
    <contour>
      <point x="63" y="610" type="line"/>
      <point x="932" y="1139" type="line"/>
      <point x="932" y="725" type="line"/>
      <point x="629" y="530" type="line"/>
      <point x="932" y="352" type="line"/>
      <point x="932" y="-82" type="line"/>
      <point x="63" y="430" type="line"/>
    </contour>
  </outline>
</glyph>
<glyph name="greater" format="2">
  <advance width="1067"/>
  <unicode hex="003E"/>
  <outline>
    <contour>
      <point x="1004" y="430" type="line"/>
      <point x="135" y="-82" type="line"/>
      <point x="135" y="352" type="line"/>
      <point x="438" y="530" type="line"/>
      <point x="135" y="725" type="line"/>
      <point x="135" y="1139" type="line"/>
      <point x="1004" y="610" type="line"/>
    </contour>
  </outline>
</glyph>
<glyph name="question" format="2">
  <advance width="1013"/>
  <unicode hex="003F"/>
  <outline>
    <contour>
      <point x="195" y="530" type="line"/>
      <point x="195" y="582"/>
      <point x="204" y="652"/>
      <point x="234" y="735"/>
      <point x="302" y="803"/>
      <point x="356" y="831" type="qcurve" smooth="yes"/>
      <point x="361" y="834"/>
      <point x="428" y="868"/>
      <point x="471" y="891"/>
      <point x="537" y="936"/>
      <point x="577" y="976"/>
      <point x="608" y="1030"/>
      <point x="608" y="1057" type="qcurve" smooth="yes"/>
      <point x="608" y="1102"/>
      <point x="536" y="1159"/>
      <point x="485" y="1159" type="qcurve" smooth="yes"/>
      <point x="457" y="1159"/>
      <point x="410" y="1141"/>
      <point x="374" y="1108"/>
      <point x="350" y="1080"/>
      <point x="322" y="1039"/>
      <point x="317" y="1032" type="qcurve"/>
      <point x="70" y="1208" type="line"/>
      <point x="122" y="1332"/>
      <point x="352" y="1473"/>
      <point x="500" y="1473" type="qcurve" smooth="yes"/>
      <point x="565" y="1473"/>
      <point x="688" y="1446"/>
      <point x="806" y="1382"/>
      <point x="893" y="1288"/>
      <point x="946" y="1144"/>
      <point x="946" y="1055" type="qcurve" smooth="yes"/>
      <point x="946" y="844"/>
      <point x="782" y="733" type="qcurve" smooth="yes"/>
      <point x="742" y="706"/>
      <point x="587" y="630"/>
      <point x="512" y="570"/>
      <point x="512" y="530" type="qcurve"/>
    </contour>
    <contour>
      <point x="201" y="0" type="line"/>
      <point x="201" y="336" type="line"/>
      <point x="518" y="336" type="line"/>
      <point x="518" y="0" type="line"/>
    </contour>
  </outline>
</glyph>
<glyph name="at" format="2">
  <advance width="1744"/>
  <unicode hex="0040"/>
  <outline>
    <contour>
      <point x="1653" y="453" type="qcurve" smooth="yes"/>
      <point x="1653" y="421"/>
      <point x="1650" y="359"/>
      <point x="1635" y="257"/>
      <point x="1609" y="171"/>
      <point x="1559" y="76"/>
      <point x="1491" y="10"/>
      <point x="1386" y="-33"/>
      <point x="1321" y="-33" type="qcurve" smooth="yes"/>
      <point x="1218" y="-33"/>
      <point x="1118" y="58"/>
      <point x="1108" y="117" type="qcurve"/>
      <point x="1040" y="54"/>
      <point x="859" y="-12"/>
      <point x="762" y="-12" type="qcurve" smooth="yes"/>
      <point x="608" y="-12"/>
      <point x="444" y="147"/>
      <point x="444" y="283" type="qcurve" smooth="yes"/>
      <point x="444" y="369"/>
      <point x="508" y="495"/>
      <point x="620" y="565"/>
      <point x="750" y="598"/>
      <point x="825" y="598" type="qcurve" smooth="yes"/>
      <point x="950" y="598"/>
      <point x="1034" y="557" type="qcurve"/>
      <point x="1034" y="648"/>
      <point x="938" y="743"/>
      <point x="817" y="743" type="qcurve" smooth="yes"/>
      <point x="648" y="743"/>
      <point x="557" y="659" type="qcurve"/>
      <point x="492" y="858" type="line"/>
      <point x="641" y="958"/>
      <point x="856" y="958" type="qcurve" smooth="yes"/>
      <point x="938" y="958"/>
      <point x="1067" y="927"/>
      <point x="1151" y="880"/>
      <point x="1211" y="803"/>
      <point x="1241" y="736"/>
      <point x="1257" y="635"/>
      <point x="1260" y="571"/>
      <point x="1260" y="522" type="qcurve" smooth="yes"/>
      <point x="1260" y="385" type="line" smooth="yes"/>
      <point x="1260" y="340"/>
      <point x="1262" y="282"/>
      <point x="1273" y="206"/>
      <point x="1293" y="163"/>
      <point x="1332" y="131"/>
      <point x="1360" y="131" type="qcurve" smooth="yes"/>
      <point x="1405" y="131"/>
      <point x="1467" y="206"/>
      <point x="1493" y="324"/>
      <point x="1503" y="417"/>
      <point x="1503" y="461" type="qcurve" smooth="yes"/>
      <point x="1503" y="598"/>
      <point x="1412" y="831"/>
      <point x="1247" y="998"/>
      <point x="1004" y="1092"/>
      <point x="858" y="1092" type="qcurve" smooth="yes"/>
      <point x="665" y="1092"/>
      <point x="376" y="930"/>
      <point x="227" y="649"/>
      <point x="227" y="469" type="qcurve" smooth="yes"/>
      <point x="227" y="339"/>
      <point x="308" y="113"/>
      <point x="457" y="-58"/>
      <point x="686" y="-156"/>
      <point x="825" y="-156" type="qcurve" smooth="yes"/>
      <point x="854" y="-156"/>
      <point x="908" y="-152"/>
      <point x="961" y="-142"/>
      <point x="997" y="-134"/>
      <point x="1052" y="-115"/>
      <point x="1076" y="-107"/>
      <point x="1139" y="-82"/>
      <point x="1149" y="-78" type="qcurve"/>
      <point x="1190" y="-217" type="line"/>
      <point x="1016" y="-299"/>
      <point x="819" y="-299" type="qcurve" smooth="yes"/>
      <point x="666" y="-299"/>
      <point x="394" y="-189"/>
      <point x="193" y="7"/>
      <point x="76" y="300"/>
      <point x="76" y="473" type="qcurve" smooth="yes"/>
      <point x="76" y="620"/>
      <point x="160" y="869"/>
      <point x="309" y="1048"/>
      <point x="509" y="1174"/>
      <point x="743" y="1235"/>
      <point x="870" y="1235" type="qcurve" smooth="yes"/>
      <point x="993" y="1235"/>
      <point x="1218" y="1178"/>
      <point x="1419" y="1054"/>
      <point x="1567" y="874"/>
      <point x="1653" y="612"/>
    </contour>
    <contour>
      <point x="1032" y="303" type="qcurve" smooth="yes"/>
      <point x="1032" y="387" type="line"/>
      <point x="932" y="426"/>
      <point x="829" y="426" type="qcurve" smooth="yes"/>
      <point x="745" y="426"/>
      <point x="668" y="356"/>
      <point x="668" y="285" type="qcurve" smooth="yes"/>
      <point x="668" y="226"/>
      <point x="725" y="170"/>
      <point x="788" y="170" type="qcurve" smooth="yes"/>
      <point x="888" y="170"/>
      <point x="952" y="205" type="qcurve" smooth="yes"/>
      <point x="984" y="222"/>
      <point x="1032" y="272"/>
    </contour>
  </outline>
</glyph>
<glyph name="B" format="2">
  <advance width="1413"/>
  <unicode hex="0042"/>
  <outline>
    <contour>
      <point x="840" y="0" type="qcurve" smooth="yes"/>
      <point x="125" y="0" type="line"/>
      <point x="125" y="1454" type="line"/>
      <point x="969" y="1454" type="line" smooth="yes"/>
      <point x="1067" y="1454"/>
      <point x="1222" y="1343"/>
      <point x="1300" y="1175"/>
      <point x="1300" y="1081" type="qcurve" smooth="yes"/>
      <point x="1300" y="974"/>
      <point x="1192" y="789"/>
      <point x="1092" y="745" type="qcurve"/>
      <point x="1221" y="707"/>
      <point x="1362" y="521"/>
      <point x="1362" y="373" type="qcurve" smooth="yes"/>
      <point x="1362" y="278"/>
      <point x="1281" y="132"/>
      <point x="1136" y="44"/>
      <point x="950" y="0"/>
    </contour>
    <contour>
      <point x="524" y="1114" type="line"/>
      <point x="524" y="891" type="line"/>
      <point x="797" y="891" type="line" smooth="yes"/>
      <point x="844" y="891"/>
      <point x="905" y="942"/>
      <point x="905" y="1004" type="qcurve" smooth="yes"/>
      <point x="905" y="1060"/>
      <point x="851" y="1114"/>
      <point x="809" y="1114" type="qcurve" smooth="yes"/>
    </contour>
    <contour>
      <point x="854" y="580" type="qcurve" smooth="yes"/>
      <point x="524" y="580" type="line"/>
      <point x="524" y="336" type="line"/>
      <point x="840" y="336" type="line" smooth="yes"/>
      <point x="891" y="336"/>
      <point x="956" y="399"/>
      <point x="956" y="455" type="qcurve" smooth="yes"/>
      <point x="956" y="509"/>
      <point x="898" y="580"/>
    </contour>
  </outline>
</glyph>
<glyph name="F" format="2">
  <advance width="1153"/>
  <unicode hex="0046"/>
  <outline>
    <contour>
      <point x="125" y="0" type="line"/>
      <point x="125" y="1454" type="line"/>
      <point x="1122" y="1454" type="line"/>
      <point x="1122" y="1106" type="line"/>
      <point x="524" y="1106" type="line"/>
      <point x="524" y="864" type="line"/>
      <point x="1012" y="864" type="line"/>
      <point x="1012" y="541" type="line"/>
      <point x="524" y="541" type="line"/>
      <point x="524" y="0" type="line"/>
    </contour>
  </outline>
</glyph>
<glyph name="H" format="2">
  <advance width="1536"/>
  <unicode hex="0048"/>
  <anchor x="0" y="0" name="Anchor-11"/>
  <anchor x="768" y="727" name="Anchor-10"/>
  <anchor x="774" y="1452" name="Anchor-9"/>
  <anchor x="0" y="0" name="Anchor-8"/>
  <anchor x="768" y="0" name="Anchor-7"/>
  <outline>
    <contour>
      <point x="1411" y="1454" type="line"/>
      <point x="1411" y="0" type="line"/>
      <point x="1012" y="0" type="line"/>
      <point x="1012" y="569" type="line"/>
      <point x="524" y="569" type="line"/>
      <point x="524" y="0" type="line"/>
      <point x="125" y="0" type="line"/>
      <point x="125" y="1454" type="line"/>
      <point x="524" y="1454" type="line"/>
      <point x="524" y="918" type="line"/>
      <point x="1012" y="918" type="line"/>
      <point x="1012" y="1454" type="line"/>
    </contour>
  </outline>
</glyph>
<glyph name="K" format="2">
  <advance width="1413"/>
  <unicode hex="004B"/>
  <anchor x="0" y="0" name="Anchor-11"/>
  <anchor x="0" y="0" name="Anchor-10"/>
  <anchor x="0" y="0" name="Anchor-9"/>
  <anchor x="0" y="0" name="Anchor-8"/>
  <anchor x="758" y="0" name="Anchor-7"/>
  <outline>
    <contour>
      <point x="125" y="0" type="line"/>
      <point x="125" y="1454" type="line"/>
      <point x="524" y="1454" type="line"/>
      <point x="524" y="901" type="line"/>
      <point x="967" y="1454" type="line"/>
      <point x="1417" y="1454" type="line"/>
      <point x="889" y="803" type="line"/>
      <point x="1454" y="0" type="line"/>
      <point x="995" y="0" type="line"/>
      <point x="635" y="535" type="line"/>
      <point x="524" y="420" type="line"/>
      <point x="524" y="0" type="line"/>
    </contour>
  </outline>
</glyph>
<glyph name="M" format="2">
  <advance width="1748"/>
  <unicode hex="004D"/>
  <anchor x="0" y="0" name="Anchor-11"/>
  <anchor x="0" y="0" name="Anchor-10"/>
  <anchor x="874" y="1454" name="Anchor-9"/>
  <anchor x="0" y="0" name="Anchor-8"/>
  <anchor x="874" y="0" name="Anchor-7"/>
  <outline>
    <contour>
      <point x="1225" y="0" type="line"/>
      <point x="1225" y="766" type="line"/>
      <point x="981" y="227" type="line"/>
      <point x="768" y="227" type="line"/>
      <point x="524" y="766" type="line"/>
      <point x="524" y="0" type="line"/>
      <point x="125" y="0" type="line"/>
      <point x="125" y="1454" type="line"/>
      <point x="561" y="1454" type="line"/>
      <point x="874" y="770" type="line"/>
      <point x="1190" y="1454" type="line"/>
      <point x="1624" y="1454" type="line"/>
      <point x="1624" y="0" type="line"/>
    </contour>
  </outline>
</glyph>
<glyph name="Q" format="2">
  <advance width="1566"/>
  <unicode hex="0051"/>
  <outline>
    <contour>
      <point x="1559" y="0" type="line"/>
      <point x="1186" y="0" type="line"/>
      <point x="1120" y="70" type="line"/>
      <point x="966" y="-10"/>
      <point x="780" y="-10" type="qcurve" smooth="yes"/>
      <point x="620" y="-10"/>
      <point x="341" y="116"/>
      <point x="153" y="322"/>
      <point x="45" y="589"/>
      <point x="45" y="729" type="qcurve" smooth="yes"/>
      <point x="45" y="872"/>
      <point x="157" y="1140"/>
      <point x="351" y="1342"/>
      <point x="630" y="1464"/>
      <point x="788" y="1464" type="qcurve" smooth="yes"/>
      <point x="948" y="1464"/>
      <point x="1228" y="1336"/>
      <point x="1415" y="1127"/>
      <point x="1522" y="860"/>
      <point x="1522" y="721" type="qcurve" smooth="yes"/>
      <point x="1522" y="589"/>
      <point x="1426" y="339"/>
      <point x="1339" y="240" type="qcurve"/>
    </contour>
    <contour>
      <point x="784" y="344" type="qcurve" smooth="yes"/>
      <point x="829" y="344"/>
      <point x="862" y="352" type="qcurve"/>
      <point x="621" y="614" type="line"/>
      <point x="993" y="614" type="line"/>
      <point x="1073" y="526" type="line"/>
      <point x="1116" y="616"/>
      <point x="1116" y="729" type="qcurve" smooth="yes"/>
      <point x="1116" y="831"/>
      <point x="1045" y="1000"/>
      <point x="890" y="1110"/>
      <point x="782" y="1110" type="qcurve" smooth="yes"/>
      <point x="699" y="1110"/>
      <point x="569" y="1044"/>
      <point x="491" y="933"/>
      <point x="451" y="798"/>
      <point x="451" y="725" type="qcurve" smooth="yes"/>
      <point x="451" y="650"/>
      <point x="492" y="516"/>
      <point x="572" y="408"/>
      <point x="702" y="344"/>
    </contour>
  </outline>
</glyph>
<glyph name="V" format="2">
  <advance width="1376"/>
  <unicode hex="0056"/>
  <outline>
    <contour>
      <point x="406" y="1454" type="line"/>
      <point x="690" y="461" type="line"/>
      <point x="971" y="1454" type="line"/>
      <point x="1391" y="1454" type="line"/>
      <point x="889" y="0" type="line"/>
      <point x="492" y="0" type="line"/>
      <point x="-16" y="1454" type="line"/>
    </contour>
  </outline>
</glyph>
<glyph name="W" format="2">
  <advance width="2164"/>
  <unicode hex="0057"/>
  <anchor x="0" y="0" name="Anchor-11"/>
  <anchor x="0" y="0" name="Anchor-10"/>
  <anchor x="1081" y="1454" name="Anchor-9"/>
  <anchor x="0" y="0" name="Anchor-8"/>
  <anchor x="0" y="0" name="Anchor-7"/>
  <outline>
    <contour>
      <point x="582" y="1454" type="line"/>
      <point x="948" y="1454" type="line"/>
      <point x="1081" y="1006" type="line"/>
      <point x="1217" y="1454" type="line"/>
      <point x="1583" y="1454" type="line"/>
      <point x="1337" y="760" type="line"/>
      <point x="1442" y="463" type="line"/>
      <point x="1755" y="1454" type="line"/>
      <point x="2189" y="1454" type="line"/>
      <point x="1640" y="0" type="line"/>
      <point x="1294" y="0" type="line"/>
      <point x="1081" y="520" type="line"/>
      <point x="870" y="0" type="line"/>
      <point x="524" y="0" type="line"/>
      <point x="-25" y="1454" type="line"/>
      <point x="408" y="1454" type="line"/>
      <point x="723" y="463" type="line"/>
      <point x="823" y="760" type="line"/>
    </contour>
  </outline>
</glyph>
<glyph name="X" format="2">
  <advance width="1345"/>
  <unicode hex="0058"/>
  <outline>
    <contour>
      <point x="410" y="1454" type="line"/>
      <point x="674" y="995" type="line"/>
      <point x="938" y="1454" type="line"/>
      <point x="1368" y="1454" type="line"/>
      <point x="911" y="717" type="line"/>
      <point x="1352" y="0" type="line"/>
      <point x="922" y="0" type="line"/>
      <point x="674" y="438" type="line"/>
      <point x="426" y="0" type="line"/>
      <point x="-6" y="0" type="line"/>
      <point x="434" y="717" type="line"/>
      <point x="-23" y="1454" type="line"/>
    </contour>
  </outline>
</glyph>
<glyph name="Y" format="2">
  <advance width="1363"/>
  <unicode hex="0059"/>
  <anchor x="0" y="0" name="Anchor-11"/>
  <anchor x="0" y="0" name="Anchor-10"/>
  <anchor x="680" y="1454" name="Anchor-9"/>
  <anchor x="0" y="0" name="Anchor-8"/>
  <anchor x="682" y="0" name="Anchor-7"/>
  <outline>
    <contour>
      <point x="420" y="1454" type="line"/>
      <point x="680" y="860" type="line"/>
      <point x="946" y="1454" type="line"/>
      <point x="1380" y="1454" type="line"/>
      <point x="879" y="481" type="line"/>
      <point x="879" y="0" type="line"/>
      <point x="481" y="0" type="line"/>
      <point x="481" y="485" type="line"/>
      <point x="-12" y="1454" type="line"/>
    </contour>
  </outline>
</glyph>
<glyph name="bracketleft" format="2">
  <advance width="759"/>
  <unicode hex="005B"/>
  <outline>
    <contour>
      <point x="162" y="-82" type="line"/>
      <point x="162" y="1516" type="line"/>
      <point x="664" y="1516" type="line"/>
      <point x="664" y="1208" type="line"/>
      <point x="520" y="1208" type="line"/>
      <point x="520" y="225" type="line"/>
      <point x="664" y="225" type="line"/>
      <point x="664" y="-82" type="line"/>
    </contour>
  </outline>
</glyph>
<glyph name="backslash" format="2">
  <advance width="1421"/>
  <unicode hex="005C"/>
  <outline>
    <contour>
      <point x="481" y="1454" type="line"/>
      <point x="1372" y="0" type="line"/>
      <point x="944" y="0" type="line"/>
      <point x="51" y="1454" type="line"/>
    </contour>
  </outline>
</glyph>
<glyph name="bracketright" format="2">
  <advance width="759"/>
  <unicode hex="005D"/>
  <outline>
    <contour>
      <point x="96" y="-82" type="line"/>
      <point x="96" y="225" type="line"/>
      <point x="240" y="225" type="line"/>
      <point x="240" y="1208" type="line"/>
      <point x="96" y="1208" type="line"/>
      <point x="96" y="1516" type="line"/>
      <point x="598" y="1516" type="line"/>
      <point x="598" y="-82" type="line"/>
    </contour>
  </outline>
</glyph>
<glyph name="asciicircum" format="2">
  <advance width="1280"/>
  <unicode hex="005E"/>
  <outline>
    <contour>
      <point x="74" y="621" type="line"/>
      <point x="479" y="1454" type="line"/>
      <point x="803" y="1454" type="line"/>
      <point x="1206" y="621" type="line"/>
      <point x="893" y="621" type="line"/>
      <point x="641" y="1139" type="line"/>
      <point x="383" y="621" type="line"/>
    </contour>
  </outline>
</glyph>
<glyph name="underscore" format="2">
  <advance width="903"/>
  <unicode hex="005F"/>
  <outline>
    <contour>
      <point x="90" y="-348" type="line"/>
      <point x="90" y="0" type="line"/>
      <point x="813" y="0" type="line"/>
      <point x="813" y="-348" type="line"/>
    </contour>
  </outline>
</glyph>
<glyph name="grave" format="2">
  <advance width="581"/>
  <unicode hex="0060"/>
  <outline>
    <contour>
      <point x="92" y="1495" type="line"/>
      <point x="438" y="1495" type="line"/>
      <point x="541" y="1204" type="line"/>
      <point x="295" y="1139" type="line"/>
    </contour>
  </outline>
</glyph>
<glyph name="b" format="2">
  <advance width="1325"/>
  <unicode hex="0062"/>
  <outline>
    <contour>
      <point x="436" y="168" type="qcurve"/>
      <point x="436" y="0" type="line"/>
      <point x="98" y="0" type="line"/>
      <point x="98" y="1495" type="line"/>
      <point x="487" y="1495" type="line"/>
      <point x="487" y="918" type="line"/>
      <point x="533" y="1006"/>
      <point x="706" y="1098"/>
      <point x="823" y="1098" type="qcurve" smooth="yes"/>
      <point x="1021" y="1098"/>
      <point x="1284" y="778"/>
      <point x="1284" y="535" type="qcurve" smooth="yes"/>
      <point x="1284" y="296"/>
      <point x="999" y="-20"/>
      <point x="784" y="-20" type="qcurve" smooth="yes"/>
      <point x="540" y="-20"/>
    </contour>
    <contour>
      <point x="885" y="532" type="qcurve" smooth="yes"/>
      <point x="885" y="631"/>
      <point x="772" y="770"/>
      <point x="688" y="770" type="qcurve" smooth="yes"/>
      <point x="627" y="770"/>
      <point x="515" y="681"/>
      <point x="487" y="610" type="qcurve"/>
      <point x="487" y="418" type="line"/>
      <point x="563" y="307"/>
      <point x="672" y="307" type="qcurve" smooth="yes"/>
      <point x="767" y="307"/>
      <point x="885" y="431"/>
    </contour>
  </outline>
</glyph>
<glyph name="f" format="2">
  <advance width="823"/>
  <unicode hex="0066"/>
  <outline>
    <contour>
      <point x="174" y="0" type="line"/>
      <point x="174" y="659" type="line"/>
      <point x="41" y="659" type="line"/>
      <point x="41" y="952" type="line"/>
      <point x="174" y="952" type="line"/>
      <point x="174" y="1069" type="line" smooth="yes"/>
      <point x="174" y="1271"/>
      <point x="390" y="1516"/>
      <point x="569" y="1516" type="qcurve" smooth="yes"/>
      <point x="703" y="1516"/>
      <point x="868" y="1454" type="qcurve"/>
      <point x="803" y="1159" type="line"/>
      <point x="721" y="1188"/>
      <point x="657" y="1188" type="qcurve" smooth="yes"/>
      <point x="563" y="1188"/>
      <point x="563" y="1083" type="qcurve" smooth="yes"/>
      <point x="563" y="952" type="line"/>
      <point x="799" y="952" type="line"/>
      <point x="799" y="659" type="line"/>
      <point x="563" y="659" type="line"/>
      <point x="563" y="0" type="line"/>
    </contour>
  </outline>
</glyph>
<glyph name="i" format="2">
  <advance width="585"/>
  <unicode hex="0069"/>
  <anchor x="0" y="0" name="Anchor-11"/>
  <anchor x="0" y="0" name="Anchor-10"/>
  <anchor x="0" y="0" name="Anchor-9"/>
  <anchor x="487" y="0" name="Anchor-8"/>
  <anchor x="293" y="0" name="Anchor-7"/>
  <outline>
    <contour>
      <point x="98" y="1167" type="line"/>
      <point x="98" y="1495" type="line"/>
      <point x="487" y="1495" type="line"/>
      <point x="487" y="1167" type="line"/>
    </contour>
    <contour>
      <point x="98" y="0" type="line"/>
      <point x="98" y="1077" type="line"/>
      <point x="487" y="1077" type="line"/>
      <point x="487" y="0" type="line"/>
    </contour>
  </outline>
</glyph>
<glyph name="v" format="2">
  <advance width="1153"/>
  <unicode hex="0076"/>
  <outline>
    <contour>
      <point x="365" y="0" type="line"/>
      <point x="2" y="1077" type="line"/>
      <point x="401" y="1077" type="line"/>
      <point x="594" y="346" type="line"/>
      <point x="788" y="1077" type="line"/>
      <point x="1151" y="1077" type="line"/>
      <point x="788" y="0" type="line"/>
    </contour>
  </outline>
</glyph>
<glyph name="w" format="2">
  <advance width="1765"/>
  <unicode hex="0077"/>
  <anchor x="0" y="0" name="Anchor-11"/>
  <anchor x="0" y="0" name="Anchor-10"/>
  <anchor x="883" y="1077" name="Anchor-9"/>
  <anchor x="0" y="0" name="Anchor-8"/>
  <anchor x="0" y="0" name="Anchor-7"/>
  <outline>
    <contour>
      <point x="1419" y="1077" type="line"/>
      <point x="1786" y="1077" type="line"/>
      <point x="1346" y="0" type="line"/>
      <point x="1028" y="0" type="line"/>
      <point x="883" y="410" type="line"/>
      <point x="737" y="0" type="line"/>
      <point x="420" y="0" type="line"/>
      <point x="-20" y="1077" type="line"/>
      <point x="346" y="1077" type="line"/>
      <point x="602" y="365" type="line"/>
      <point x="674" y="606" type="line"/>
      <point x="477" y="1077" type="line"/>
      <point x="791" y="1077" type="line"/>
      <point x="883" y="762" type="line"/>
      <point x="975" y="1077" type="line"/>
      <point x="1288" y="1077" type="line"/>
      <point x="1092" y="606" type="line"/>
      <point x="1163" y="365" type="line"/>
    </contour>
  </outline>
</glyph>
<glyph name="x" format="2">
  <advance width="1134"/>
  <unicode hex="0078"/>
  <outline>
    <contour>
      <point x="393" y="1077" type="line"/>
      <point x="547" y="813" type="line"/>
      <point x="567" y="770" type="line"/>
      <point x="588" y="813" type="line"/>
      <point x="741" y="1077" type="line"/>
      <point x="1137" y="1077" type="line"/>
      <point x="791" y="545" type="line"/>
      <point x="1147" y="0" type="line"/>
      <point x="752" y="0" type="line"/>
      <point x="586" y="264" type="line"/>
      <point x="567" y="305" type="line"/>
      <point x="549" y="264" type="line"/>
      <point x="383" y="0" type="line"/>
      <point x="-12" y="0" type="line"/>
      <point x="344" y="535" type="line"/>
      <point x="-2" y="1077" type="line"/>
    </contour>
  </outline>
</glyph>
<glyph name="z" format="2">
  <advance width="1011"/>
  <unicode hex="007A"/>
  <anchor x="0" y="0" name="Anchor-11"/>
  <anchor x="0" y="0" name="Anchor-10"/>
  <anchor x="498" y="1077" name="Anchor-9"/>
  <anchor x="0" y="0" name="Anchor-8"/>
  <anchor x="506" y="0" name="Anchor-7"/>
  <outline>
    <contour>
      <point x="45" y="229" type="line"/>
      <point x="537" y="811" type="line"/>
      <point x="76" y="811" type="line"/>
      <point x="76" y="1077" type="line"/>
      <point x="942" y="1077" type="line"/>
      <point x="942" y="848" type="line"/>
      <point x="453" y="266" type="line"/>
      <point x="961" y="266" type="line"/>
      <point x="961" y="0" type="line"/>
      <point x="45" y="0" type="line"/>
    </contour>
  </outline>
</glyph>
<glyph name="braceleft" format="2">
  <advance width="765"/>
  <unicode hex="007B"/>
  <outline>
    <contour>
      <point x="543" y="1208" type="line"/>
      <point x="543" y="893" type="line" smooth="yes"/>
      <point x="543" y="842"/>
      <point x="500" y="774"/>
      <point x="459" y="737" type="qcurve"/>
      <point x="485" y="714"/>
      <point x="516" y="678"/>
      <point x="543" y="617"/>
      <point x="543" y="582" type="qcurve" smooth="yes"/>
      <point x="543" y="244" type="line"/>
      <point x="655" y="244" type="line"/>
      <point x="655" y="-63" type="line"/>
      <point x="242" y="-63" type="line" smooth="yes"/>
      <point x="225" y="-63"/>
      <point x="195" y="-36"/>
      <point x="195" y="-2" type="qcurve" smooth="yes"/>
      <point x="195" y="449" type="line" smooth="yes"/>
      <point x="195" y="509"/>
      <point x="119" y="596"/>
      <point x="72" y="606" type="qcurve"/>
      <point x="72" y="872" type="line"/>
      <point x="115" y="872"/>
      <point x="195" y="970"/>
      <point x="195" y="1026" type="qcurve" smooth="yes"/>
      <point x="195" y="1454" type="line" smooth="yes"/>
      <point x="195" y="1487"/>
      <point x="226" y="1516"/>
      <point x="242" y="1516" type="qcurve" smooth="yes"/>
      <point x="655" y="1516" type="line"/>
      <point x="655" y="1208" type="line"/>
    </contour>
  </outline>
</glyph>
<glyph name="bar" format="2">
  <advance width="638"/>
  <unicode hex="007C"/>
  <outline>
    <contour>
      <point x="156" y="-266" type="line"/>
      <point x="156" y="1587" type="line"/>
      <point x="483" y="1587" type="line"/>
      <point x="483" y="-266" type="line"/>
    </contour>
  </outline>
</glyph>
<glyph name="braceright" format="2">
  <advance width="765"/>
  <unicode hex="007D"/>
  <outline>
    <contour>
      <point x="111" y="1208" type="line"/>
      <point x="111" y="1516" type="line"/>
      <point x="524" y="1516" type="line" smooth="yes"/>
      <point x="540" y="1516"/>
      <point x="571" y="1487"/>
      <point x="571" y="1454" type="qcurve" smooth="yes"/>
      <point x="571" y="1026" type="line" smooth="yes"/>
      <point x="571" y="970"/>
      <point x="651" y="872"/>
      <point x="694" y="872" type="qcurve"/>
      <point x="694" y="606" type="line"/>
      <point x="647" y="596"/>
      <point x="571" y="509"/>
      <point x="571" y="449" type="qcurve" smooth="yes"/>
      <point x="571" y="-2" type="line" smooth="yes"/>
      <point x="571" y="-36"/>
      <point x="541" y="-63"/>
      <point x="524" y="-63" type="qcurve" smooth="yes"/>
      <point x="111" y="-63" type="line"/>
      <point x="111" y="244" type="line"/>
      <point x="223" y="244" type="line"/>
      <point x="223" y="582" type="line" smooth="yes"/>
      <point x="223" y="632"/>
      <point x="267" y="701"/>
      <point x="307" y="737" type="qcurve"/>
      <point x="280" y="761"/>
      <point x="250" y="796"/>
      <point x="223" y="857"/>
      <point x="223" y="893" type="qcurve" smooth="yes"/>
      <point x="223" y="1208" type="line"/>
    </contour>
  </outline>
</glyph>
<glyph name="asciitilde" format="2">
  <advance width="1249"/>
  <unicode hex="007E"/>
  <outline>
    <contour>
      <point x="432" y="766" type="qcurve" smooth="yes"/>
      <point x="502" y="766"/>
      <point x="641" y="714"/>
      <point x="766" y="662"/>
      <point x="819" y="662" type="qcurve" smooth="yes"/>
      <point x="854" y="662"/>
      <point x="908" y="682"/>
      <point x="937" y="710"/>
      <point x="956" y="742"/>
      <point x="961" y="762"/>
      <point x="961" y="766" type="qcurve"/>
      <point x="1165" y="766" type="line"/>
      <point x="1165" y="753"/>
      <point x="1150" y="701"/>
      <point x="1119" y="626"/>
      <point x="1062" y="550"/>
      <point x="989" y="484"/>
      <point x="880" y="442"/>
      <point x="817" y="442" type="qcurve" smooth="yes"/>
      <point x="750" y="442"/>
      <point x="612" y="492"/>
      <point x="484" y="541"/>
      <point x="430" y="541" type="qcurve" smooth="yes"/>
      <point x="394" y="541"/>
      <point x="341" y="521"/>
      <point x="316" y="495"/>
      <point x="301" y="462"/>
      <point x="299" y="446"/>
      <point x="299" y="442" type="qcurve"/>
      <point x="92" y="442" type="line"/>
      <point x="92" y="466"/>
      <point x="112" y="538"/>
      <point x="163" y="632"/>
      <point x="236" y="711"/>
      <point x="358" y="766"/>
    </contour>
  </outline>
</glyph>
<glyph name="exclamdown" format="2">
  <advance width="737"/>
  <unicode hex="00A1"/>
  <outline>
    <contour>
      <point x="563" y="1454" type="line"/>
      <point x="563" y="1077" type="line"/>
      <point x="174" y="1077" type="line"/>
      <point x="174" y="1454" type="line"/>
    </contour>
    <contour>
      <point x="563" y="840" type="line"/>
      <point x="563" y="-14" type="line"/>
      <point x="174" y="-14" type="line"/>
      <point x="174" y="840" type="line"/>
    </contour>
  </outline>
</glyph>
<glyph name="cent" format="2">
  <advance width="1265"/>
  <unicode hex="00A2"/>
  <outline>
    <contour>
      <point x="565" y="-246" type="line"/>
      <point x="565" y="-18" type="line"/>
      <point x="426" y="-7"/>
      <point x="198" y="157"/>
      <point x="74" y="398"/>
      <point x="74" y="528" type="qcurve" smooth="yes"/>
      <point x="74" y="743"/>
      <point x="327" y="1051"/>
      <point x="565" y="1094" type="qcurve"/>
      <point x="565" y="1321" type="line"/>
      <point x="729" y="1321" type="line"/>
      <point x="729" y="1094" type="line"/>
      <point x="871" y="1089"/>
      <point x="1122" y="942"/>
      <point x="1194" y="805" type="qcurve"/>
      <point x="815" y="690" type="line"/>
      <point x="802" y="714"/>
      <point x="751" y="753"/>
      <point x="729" y="758" type="qcurve"/>
      <point x="729" y="317" type="line"/>
      <point x="788" y="342"/>
      <point x="815" y="387" type="qcurve"/>
      <point x="1194" y="272" type="line"/>
      <point x="1151" y="180"/>
      <point x="975" y="41"/>
      <point x="801" y="-20"/>
      <point x="729" y="-20" type="qcurve"/>
      <point x="729" y="-246" type="line"/>
    </contour>
    <contour>
      <point x="565" y="336" type="qcurve"/>
      <point x="565" y="739" type="line"/>
      <point x="524" y="716"/>
      <point x="475" y="603"/>
      <point x="475" y="528" type="qcurve" smooth="yes"/>
      <point x="475" y="402"/>
    </contour>
  </outline>
</glyph>
<glyph name="sterling" format="2">
  <advance width="1200"/>
  <unicode hex="00A3"/>
  <outline>
    <contour>
      <point x="1034" y="326" type="qcurve"/>
      <point x="1128" y="39" type="line"/>
      <point x="1082" y="8"/>
      <point x="946" y="-31"/>
      <point x="885" y="-31" type="qcurve" smooth="yes"/>
      <point x="823" y="-31"/>
      <point x="543" y="37"/>
      <point x="473" y="37" type="qcurve" smooth="yes"/>
      <point x="348" y="37"/>
      <point x="178" y="-18" type="qcurve"/>
      <point x="100" y="256" type="line"/>
      <point x="162" y="292"/>
      <point x="258" y="430"/>
      <point x="279" y="508" type="qcurve"/>
      <point x="125" y="508" type="line"/>
      <point x="125" y="795" type="line"/>
      <point x="238" y="795" type="line"/>
      <point x="235" y="803"/>
      <point x="203" y="878"/>
      <point x="193" y="904"/>
      <point x="169" y="969"/>
      <point x="161" y="1008"/>
      <point x="152" y="1062"/>
      <point x="152" y="1087" type="qcurve" smooth="yes"/>
      <point x="152" y="1245"/>
      <point x="421" y="1464"/>
      <point x="616" y="1464" type="qcurve" smooth="yes"/>
      <point x="751" y="1464"/>
      <point x="999" y="1350"/>
      <point x="1087" y="1249" type="qcurve"/>
      <point x="891" y="1010" type="line"/>
      <point x="838" y="1070"/>
      <point x="680" y="1151"/>
      <point x="614" y="1151" type="qcurve" smooth="yes"/>
      <point x="559" y="1151"/>
      <point x="496" y="1094"/>
      <point x="496" y="1044" type="qcurve" smooth="yes"/>
      <point x="496" y="1012"/>
      <point x="521" y="937"/>
      <point x="572" y="826"/>
      <point x="584" y="795" type="qcurve"/>
      <point x="971" y="795" type="line"/>
      <point x="971" y="508" type="line"/>
      <point x="608" y="508" type="line"/>
      <point x="578" y="401"/>
      <point x="479" y="299" type="qcurve"/>
      <point x="568" y="330"/>
      <point x="639" y="330" type="qcurve" smooth="yes"/>
      <point x="682" y="330"/>
      <point x="861" y="299"/>
      <point x="905" y="299" type="qcurve" smooth="yes"/>
      <point x="960" y="299"/>
    </contour>
  </outline>
</glyph>
<glyph name="currency" format="2">
  <advance width="1165"/>
  <unicode hex="00A4"/>
  <outline>
    <contour>
      <point x="375" y="1038" type="line"/>
      <point x="467" y="1083"/>
      <point x="586" y="1083" type="qcurve" smooth="yes"/>
      <point x="698" y="1083"/>
      <point x="791" y="1042" type="qcurve"/>
      <point x="930" y="1184" type="line"/>
      <point x="1075" y="1038" type="line"/>
      <point x="946" y="909" type="line"/>
      <point x="1008" y="809"/>
      <point x="1008" y="692" type="qcurve" smooth="yes"/>
      <point x="1008" y="571"/>
      <point x="944" y="473" type="qcurve"/>
      <point x="1075" y="342" type="line"/>
      <point x="940" y="207" type="line"/>
      <point x="795" y="344" type="line"/>
      <point x="710" y="301"/>
      <point x="586" y="301" type="qcurve" smooth="yes"/>
      <point x="463" y="301"/>
      <point x="371" y="346" type="qcurve"/>
      <point x="223" y="207" type="line"/>
      <point x="88" y="342" type="line"/>
      <point x="223" y="477" type="line"/>
      <point x="164" y="572"/>
      <point x="164" y="692" type="qcurve" smooth="yes"/>
      <point x="164" y="814"/>
      <point x="221" y="903" type="qcurve"/>
      <point x="88" y="1038" type="line"/>
      <point x="233" y="1184" type="line"/>
    </contour>
    <contour>
      <point x="653" y="530"/>
      <point x="735" y="618"/>
      <point x="735" y="766"/>
      <point x="653" y="854"/>
      <point x="519" y="854"/>
      <point x="436" y="766"/>
      <point x="436" y="618"/>
      <point x="519" y="530"/>
    </contour>
  </outline>
</glyph>
<glyph name="yen" format="2">
  <advance width="1519"/>
  <unicode hex="00A5"/>
  <outline>
    <contour>
      <point x="1159" y="885" type="line"/>
      <point x="1290" y="885" type="line"/>
      <point x="1290" y="639" type="line"/>
      <point x="1032" y="639" type="line"/>
      <point x="952" y="481" type="line"/>
      <point x="952" y="414" type="line"/>
      <point x="1292" y="414" type="line"/>
      <point x="1292" y="168" type="line"/>
      <point x="952" y="168" type="line"/>
      <point x="952" y="0" type="line"/>
      <point x="555" y="0" type="line"/>
      <point x="555" y="168" type="line"/>
      <point x="217" y="168" type="line"/>
      <point x="217" y="414" type="line"/>
      <point x="555" y="414" type="line"/>
      <point x="555" y="485" type="line"/>
      <point x="477" y="639" type="line"/>
      <point x="219" y="639" type="line"/>
      <point x="219" y="885" type="line"/>
      <point x="352" y="885" type="line"/>
      <point x="61" y="1454" type="line"/>
      <point x="494" y="1454" type="line"/>
      <point x="754" y="825" type="line"/>
      <point x="1020" y="1454" type="line"/>
      <point x="1454" y="1454" type="line"/>
    </contour>
  </outline>
</glyph>
<glyph name="brokenbar" format="2">
  <advance width="647"/>
  <unicode hex="00A6"/>
  <outline>
    <contour>
      <point x="487" y="1587" type="line"/>
      <point x="487" y="801" type="line"/>
      <point x="160" y="801" type="line"/>
      <point x="160" y="1587" type="line"/>
    </contour>
    <contour>
      <point x="487" y="520" type="line"/>
      <point x="487" y="-266" type="line"/>
      <point x="160" y="-266" type="line"/>
      <point x="160" y="520" type="line"/>
    </contour>
  </outline>
</glyph>
<glyph name="section" format="2">
  <advance width="1128"/>
  <unicode hex="00A7"/>
  <outline>
    <contour>
      <point x="1051" y="270" type="qcurve" smooth="yes"/>
      <point x="1051" y="173"/>
      <point x="986" y="15"/>
      <point x="884" y="-85"/>
      <point x="750" y="-152"/>
      <point x="622" y="-180"/>
      <point x="559" y="-180" type="qcurve" smooth="yes"/>
      <point x="476" y="-180"/>
      <point x="314" y="-128"/>
      <point x="194" y="-49"/>
      <point x="112" y="23"/>
      <point x="88" y="55" type="qcurve"/>
      <point x="336" y="293" type="line"/>
      <point x="430" y="188"/>
      <point x="541" y="188" type="qcurve" smooth="yes"/>
      <point x="587" y="188"/>
      <point x="645" y="223"/>
      <point x="645" y="256" type="qcurve" smooth="yes"/>
      <point x="645" y="272"/>
      <point x="631" y="293"/>
      <point x="603" y="303"/>
      <point x="581" y="306"/>
      <point x="563" y="307" type="qcurve" smooth="yes"/>
      <point x="344" y="325"/>
      <point x="119" y="537"/>
      <point x="119" y="698" type="qcurve" smooth="yes"/>
      <point x="119" y="734"/>
      <point x="130" y="791"/>
      <point x="142" y="826"/>
      <point x="143" y="831" type="qcurve" smooth="yes"/>
      <point x="78" y="932"/>
      <point x="78" y="1044" type="qcurve" smooth="yes"/>
      <point x="78" y="1123"/>
      <point x="147" y="1274"/>
      <point x="265" y="1392"/>
      <point x="440" y="1464"/>
      <point x="539" y="1464" type="qcurve" smooth="yes"/>
      <point x="614" y="1464"/>
      <point x="754" y="1418"/>
      <point x="848" y="1359"/>
      <point x="944" y="1264"/>
      <point x="990" y="1206"/>
      <point x="1020" y="1163" type="qcurve"/>
      <point x="723" y="1024" type="line"/>
      <point x="662" y="1120"/>
      <point x="563" y="1120" type="qcurve" smooth="yes"/>
      <point x="471" y="1120"/>
      <point x="471" y="1051" type="qcurve" smooth="yes"/>
      <point x="471" y="1026"/>
      <point x="499" y="999"/>
      <point x="531" y="992"/>
      <point x="559" y="991" type="qcurve" smooth="yes"/>
      <point x="626" y="988"/>
      <point x="750" y="965"/>
      <point x="876" y="910"/>
      <point x="968" y="831"/>
      <point x="1026" y="705"/>
      <point x="1026" y="627" type="qcurve" smooth="yes"/>
      <point x="1026" y="547"/>
      <point x="999" y="475" type="qcurve"/>
      <point x="1051" y="398"/>
    </contour>
    <contour>
      <point x="639" y="567" type="qcurve"/>
      <point x="657" y="582"/>
      <point x="657" y="614" type="qcurve" smooth="yes"/>
      <point x="657" y="649"/>
      <point x="605" y="682"/>
      <point x="575" y="682" type="qcurve" smooth="yes"/>
      <point x="562" y="682"/>
      <point x="532" y="686"/>
      <point x="523" y="688" type="qcurve" smooth="yes"/>
      <point x="514" y="690" type="line"/>
      <point x="496" y="676"/>
      <point x="496" y="643" type="qcurve" smooth="yes"/>
      <point x="496" y="617"/>
      <point x="530" y="586"/>
      <point x="571" y="578"/>
      <point x="628" y="571"/>
    </contour>
  </outline>
</glyph>
<glyph name="dieresis" format="2">
  <advance width="1159"/>
  <unicode hex="00A8"/>
  <anchor x="580" y="1475" name="Anchor-13"/>
  <outline>
    <contour>
      <point x="184" y="1188" type="line"/>
      <point x="184" y="1475" type="line"/>
      <point x="504" y="1475" type="line"/>
      <point x="504" y="1188" type="line"/>
    </contour>
    <contour>
      <point x="655" y="1188" type="line"/>
      <point x="655" y="1475" type="line"/>
      <point x="975" y="1475" type="line"/>
      <point x="975" y="1188" type="line"/>
    </contour>
  </outline>
</glyph>
<glyph name="copyright" format="2">
  <advance width="1734"/>
  <unicode hex="00A9"/>
  <outline>
    <contour>
      <point x="78" y="727" type="qcurve" smooth="yes"/>
      <point x="78" y="883"/>
      <point x="196" y="1157"/>
      <point x="402" y="1352"/>
      <point x="692" y="1464"/>
      <point x="858" y="1464" type="qcurve" smooth="yes"/>
      <point x="1085" y="1464"/>
      <point x="1452" y="1273"/>
      <point x="1659" y="935"/>
      <point x="1659" y="727" type="qcurve" smooth="yes"/>
      <point x="1659" y="570"/>
      <point x="1537" y="295"/>
      <point x="1326" y="99"/>
      <point x="1028" y="-14"/>
      <point x="858" y="-14" type="qcurve" smooth="yes"/>
      <point x="692" y="-14"/>
      <point x="402" y="99"/>
      <point x="196" y="295"/>
      <point x="78" y="570"/>
    </contour>
    <contour>
      <point x="1516" y="727" type="qcurve" smooth="yes"/>
      <point x="1516" y="851"/>
      <point x="1416" y="1075"/>
      <point x="1242" y="1238"/>
      <point x="997" y="1333"/>
      <point x="858" y="1333" type="qcurve" smooth="yes"/>
      <point x="680" y="1333"/>
      <point x="387" y="1171"/>
      <point x="221" y="893"/>
      <point x="221" y="727" type="qcurve" smooth="yes"/>
      <point x="221" y="559"/>
      <point x="386" y="279"/>
      <point x="679" y="117"/>
      <point x="858" y="117" type="qcurve" smooth="yes"/>
      <point x="1041" y="117"/>
      <point x="1341" y="270"/>
      <point x="1516" y="551"/>
    </contour>
    <contour>
      <point x="348" y="821"/>
      <point x="418" y="993"/>
      <point x="549" y="1126"/>
      <point x="754" y="1204"/>
      <point x="879" y="1204" type="qcurve" smooth="yes"/>
      <point x="1053" y="1204"/>
      <point x="1301" y="1052"/>
      <point x="1364" y="922" type="qcurve"/>
      <point x="999" y="811" type="line"/>
      <point x="953" y="889"/>
      <point x="877" y="889" type="qcurve" smooth="yes"/>
      <point x="815" y="889"/>
      <point x="731" y="801"/>
      <point x="731" y="649"/>
      <point x="815" y="561"/>
      <point x="877" y="561" type="qcurve" smooth="yes"/>
      <point x="953" y="561"/>
      <point x="999" y="639" type="qcurve"/>
      <point x="1364" y="528" type="line"/>
      <point x="1301" y="398"/>
      <point x="1053" y="246"/>
      <point x="879" y="246" type="qcurve" smooth="yes"/>
      <point x="754" y="246"/>
      <point x="549" y="324"/>
      <point x="418" y="457"/>
      <point x="348" y="629"/>
    </contour>
  </outline>
</glyph>
<glyph name="ordfeminine" format="2">
  <advance width="923"/>
  <unicode hex="00AA"/>
  <anchor x="0" y="0" name="Anchor-11"/>
  <anchor x="0" y="0" name="Anchor-10"/>
  <anchor x="492" y="1063" name="Anchor-9"/>
  <anchor x="0" y="0" name="Anchor-8"/>
  <anchor x="887" y="23" name="Anchor-7"/>
  <outline>
    <contour>
      <point x="68" y="924" type="qcurve" smooth="yes"/>
      <point x="68" y="1038"/>
      <point x="240" y="1182"/>
      <point x="375" y="1182" type="qcurve" smooth="yes"/>
      <point x="458" y="1182"/>
      <point x="514" y="1153" type="qcurve"/>
      <point x="514" y="1176" type="line" smooth="yes"/>
      <point x="514" y="1231"/>
      <point x="459" y="1282"/>
      <point x="395" y="1282" type="qcurve" smooth="yes"/>
      <point x="338" y="1282"/>
      <point x="236" y="1242"/>
      <point x="176" y="1200" type="qcurve"/>
      <point x="98" y="1368" type="line"/>
      <point x="238" y="1464"/>
      <point x="422" y="1464" type="qcurve" smooth="yes"/>
      <point x="595" y="1464"/>
      <point x="780" y="1301"/>
      <point x="780" y="1143" type="qcurve" smooth="yes"/>
      <point x="780" y="997" type="line" smooth="yes"/>
      <point x="780" y="959"/>
      <point x="809" y="928"/>
      <point x="844" y="926" type="qcurve"/>
      <point x="844" y="696" type="line"/>
      <point x="778" y="682"/>
      <point x="719" y="682" type="qcurve" smooth="yes"/>
      <point x="584" y="682"/>
      <point x="563" y="786" type="qcurve" smooth="yes"/>
      <point x="557" y="815" type="line"/>
      <point x="462" y="682"/>
      <point x="317" y="682" type="qcurve" smooth="yes"/>
      <point x="210" y="682"/>
      <point x="68" y="820"/>
    </contour>
    <contour>
      <point x="481" y="905" type="qcurve" smooth="yes"/>
      <point x="514" y="928"/>
      <point x="514" y="958" type="qcurve" smooth="yes"/>
      <point x="514" y="1014" type="line"/>
      <point x="469" y="1034"/>
      <point x="422" y="1034" type="qcurve" smooth="yes"/>
      <point x="378" y="1034"/>
      <point x="317" y="985"/>
      <point x="317" y="948" type="qcurve" smooth="yes"/>
      <point x="317" y="917"/>
      <point x="363" y="877"/>
      <point x="397" y="877" type="qcurve" smooth="yes"/>
      <point x="441" y="877"/>
    </contour>
  </outline>
</glyph>
<glyph name="guillemotleft" format="2">
  <advance width="1460"/>
  <unicode hex="00AB"/>
  <outline>
    <contour>
      <point x="61" y="610" type="line"/>
      <point x="629" y="1016" type="line"/>
      <point x="629" y="705" type="line"/>
      <point x="367" y="530" type="line"/>
      <point x="629" y="373" type="line"/>
      <point x="629" y="61" type="line"/>
      <point x="61" y="430" type="line"/>
    </contour>
    <contour>
      <point x="780" y="610" type="line"/>
      <point x="1348" y="1016" type="line"/>
      <point x="1348" y="705" type="line"/>
      <point x="1085" y="530" type="line"/>
      <point x="1348" y="373" type="line"/>
      <point x="1348" y="61" type="line"/>
      <point x="780" y="430" type="line"/>
    </contour>
  </outline>
</glyph>
<glyph name="logicalnot" format="2">
  <advance width="1304"/>
  <unicode hex="00AC"/>
  <outline>
    <contour>
      <point x="1184" y="883" type="line"/>
      <point x="1184" y="182" type="line"/>
      <point x="856" y="182" type="line"/>
      <point x="856" y="535" type="line"/>
      <point x="100" y="535" type="line"/>
      <point x="100" y="883" type="line"/>
    </contour>
  </outline>
</glyph>
<glyph name="sfthyphen" format="2">
  <advance width="1288"/>
  <unicode hex="00AD"/>
  <outline>
    <contour>
      <point x="102" y="391" type="line"/>
      <point x="102" y="739" type="line"/>
      <point x="1186" y="739" type="line"/>
      <point x="1186" y="391" type="line"/>
    </contour>
  </outline>
</glyph>
<glyph name="registered" format="2">
  <advance width="1734"/>
  <unicode hex="00AE"/>
  <outline>
    <contour>
      <point x="78" y="727" type="qcurve" smooth="yes"/>
      <point x="78" y="883"/>
      <point x="196" y="1157"/>
      <point x="402" y="1352"/>
      <point x="694" y="1464"/>
      <point x="1030" y="1464"/>
      <point x="1326" y="1352"/>
      <point x="1537" y="1157"/>
      <point x="1659" y="883"/>
      <point x="1659" y="727" type="qcurve" smooth="yes"/>
      <point x="1659" y="570"/>
      <point x="1537" y="295"/>
      <point x="1326" y="99"/>
      <point x="1030" y="-14"/>
      <point x="862" y="-14" type="qcurve" smooth="yes"/>
      <point x="638" y="-14"/>
      <point x="279" y="179"/>
      <point x="78" y="517"/>
    </contour>
    <contour>
      <point x="1507" y="721" type="qcurve" smooth="yes"/>
      <point x="1507" y="890"/>
      <point x="1342" y="1170"/>
      <point x="1046" y="1333"/>
      <point x="864" y="1333" type="qcurve" smooth="yes"/>
      <point x="727" y="1333"/>
      <point x="489" y="1238"/>
      <point x="323" y="1074"/>
      <point x="229" y="851"/>
      <point x="229" y="599"/>
      <point x="323" y="375"/>
      <point x="489" y="211"/>
      <point x="727" y="115"/>
      <point x="864" y="115" type="qcurve" smooth="yes"/>
      <point x="1043" y="115"/>
      <point x="1337" y="272"/>
      <point x="1507" y="550"/>
    </contour>
    <contour>
      <point x="514" y="1171" type="line"/>
      <point x="922" y="1171" type="line" smooth="yes"/>
      <point x="1047" y="1171"/>
      <point x="1219" y="981"/>
      <point x="1219" y="864" type="qcurve" smooth="yes"/>
      <point x="1219" y="792"/>
      <point x="1149" y="658"/>
      <point x="1092" y="616" type="qcurve"/>
      <point x="1288" y="295" type="line"/>
      <point x="987" y="295" type="line"/>
      <point x="821" y="563" type="line"/>
      <point x="784" y="563" type="line"/>
      <point x="784" y="295" type="line"/>
      <point x="514" y="295" type="line"/>
    </contour>
    <contour>
      <point x="893" y="780" type="line" smooth="yes"/>
      <point x="952" y="780"/>
      <point x="952" y="948"/>
      <point x="889" y="948" type="qcurve" smooth="yes"/>
      <point x="784" y="948" type="line"/>
      <point x="784" y="780" type="line"/>
    </contour>
  </outline>
</glyph>
<glyph name="macron" format="2">
  <advance width="897"/>
  <unicode hex="00AF"/>
  <anchor x="449" y="1475" name="Anchor-13"/>
  <outline>
    <contour>
      <point x="131" y="1243" type="line"/>
      <point x="131" y="1475" type="line"/>
      <point x="766" y="1475" type="line"/>
      <point x="766" y="1243" type="line"/>
    </contour>
  </outline>
</glyph>
<glyph name="degree" format="2">
  <advance width="614"/>
  <unicode hex="00B0"/>
  <outline>
    <contour>
      <point x="413" y="1483"/>
      <point x="551" y="1349"/>
      <point x="551" y="1249" type="qcurve" smooth="yes"/>
      <point x="551" y="1133"/>
      <point x="415" y="995"/>
      <point x="307" y="995" type="qcurve" smooth="yes"/>
      <point x="200" y="995"/>
      <point x="63" y="1137"/>
      <point x="63" y="1249" type="qcurve" smooth="yes"/>
      <point x="63" y="1349"/>
      <point x="201" y="1483"/>
    </contour>
    <contour>
      <point x="242" y="1212"/>
      <point x="260" y="1194" type="qcurve" smooth="yes"/>
      <point x="280" y="1174"/>
      <point x="307" y="1174" type="qcurve" smooth="yes"/>
      <point x="335" y="1174"/>
      <point x="352" y="1194" type="qcurve"/>
      <point x="371" y="1210"/>
      <point x="371" y="1268"/>
      <point x="352" y="1284" type="qcurve"/>
      <point x="338" y="1303"/>
      <point x="307" y="1303" type="qcurve" smooth="yes"/>
      <point x="279" y="1303"/>
      <point x="260" y="1284" type="qcurve" smooth="yes"/>
      <point x="242" y="1266"/>
    </contour>
  </outline>
</glyph>
<glyph name="plusminus" format="2">
  <advance width="983"/>
  <unicode hex="00B1"/>
  <outline>
    <contour>
      <point x="881" y="946" type="line"/>
      <point x="881" y="639" type="line"/>
      <point x="666" y="639" type="line"/>
      <point x="666" y="403" type="line"/>
      <point x="317" y="403" type="line"/>
      <point x="317" y="639" type="line"/>
      <point x="102" y="639" type="line"/>
      <point x="102" y="946" type="line"/>
      <point x="317" y="946" type="line"/>
      <point x="317" y="1182" type="line"/>
      <point x="666" y="1182" type="line"/>
      <point x="666" y="946" type="line"/>
    </contour>
    <contour>
      <point x="100" y="2" type="line"/>
      <point x="100" y="309" type="line"/>
      <point x="879" y="309" type="line"/>
      <point x="879" y="2" type="line"/>
    </contour>
  </outline>
</glyph>
<glyph name="twosuperior" format="2">
  <advance width="903"/>
  <unicode hex="00B2"/>
  <outline>
    <contour>
      <point x="53" y="770" type="line"/>
      <point x="53" y="936"/>
      <point x="163" y="1109"/>
      <point x="326" y="1184" type="qcurve" smooth="yes"/>
      <point x="347" y="1194"/>
      <point x="426" y="1227"/>
      <point x="475" y="1248"/>
      <point x="537" y="1283"/>
      <point x="573" y="1314"/>
      <point x="598" y="1356"/>
      <point x="598" y="1380" type="qcurve" smooth="yes"/>
      <point x="598" y="1428"/>
      <point x="512" y="1483"/>
      <point x="444" y="1483" type="qcurve" smooth="yes"/>
      <point x="306" y="1483"/>
      <point x="197" y="1374" type="qcurve"/>
      <point x="57" y="1538" type="line"/>
      <point x="103" y="1600"/>
      <point x="331" y="1681"/>
      <point x="469" y="1681" type="qcurve" smooth="yes"/>
      <point x="650" y="1681"/>
      <point x="844" y="1533"/>
      <point x="844" y="1399" type="qcurve" smooth="yes"/>
      <point x="844" y="1330"/>
      <point x="793" y="1219"/>
      <point x="708" y="1149"/>
      <point x="631" y="1109"/>
      <point x="588" y="1096" type="qcurve" smooth="yes"/>
      <point x="545" y="1084"/>
      <point x="499" y="1067"/>
      <point x="447" y="1041"/>
      <point x="424" y="1010"/>
      <point x="424" y="989" type="qcurve"/>
      <point x="846" y="989" type="line"/>
      <point x="846" y="770" type="line"/>
    </contour>
  </outline>
</glyph>
<glyph name="threesuperior" format="2">
  <advance width="864"/>
  <unicode hex="00B3"/>
  <outline>
    <contour>
      <point x="47" y="901" type="qcurve"/>
      <point x="160" y="1053" type="line"/>
      <point x="258" y="971"/>
      <point x="399" y="971" type="qcurve" smooth="yes"/>
      <point x="557" y="971"/>
      <point x="557" y="1059" type="qcurve" smooth="yes"/>
      <point x="557" y="1103"/>
      <point x="460" y="1141"/>
      <point x="336" y="1141" type="qcurve" smooth="yes"/>
      <point x="285" y="1141" type="line"/>
      <point x="285" y="1337" type="line"/>
      <point x="334" y="1337" type="line" smooth="yes"/>
      <point x="440" y="1337"/>
      <point x="526" y="1372"/>
      <point x="526" y="1411" type="qcurve" smooth="yes"/>
      <point x="526" y="1485"/>
      <point x="401" y="1485" type="qcurve" smooth="yes"/>
      <point x="272" y="1485"/>
      <point x="174" y="1399" type="qcurve"/>
      <point x="43" y="1567" type="line"/>
      <point x="94" y="1621"/>
      <point x="314" y="1681"/>
      <point x="424" y="1681" type="qcurve" smooth="yes"/>
      <point x="586" y="1681"/>
      <point x="784" y="1543"/>
      <point x="784" y="1434" type="qcurve" smooth="yes"/>
      <point x="784" y="1363"/>
      <point x="698" y="1264"/>
      <point x="625" y="1251" type="qcurve"/>
      <point x="708" y="1238"/>
      <point x="805" y="1107"/>
      <point x="805" y="1018" type="qcurve" smooth="yes"/>
      <point x="805" y="948"/>
      <point x="741" y="844"/>
      <point x="629" y="784"/>
      <point x="494" y="756"/>
      <point x="414" y="756" type="qcurve" smooth="yes"/>
      <point x="284" y="756"/>
      <point x="85" y="829"/>
    </contour>
  </outline>
</glyph>
<glyph name="acute" format="2">
  <advance width="581"/>
  <unicode hex="00B4"/>
  <anchor x="317" y="1495" name="Anchor-13"/>
  <outline>
    <contour>
      <point x="338" y="1139" type="line"/>
      <point x="92" y="1204" type="line"/>
      <point x="195" y="1495" type="line"/>
      <point x="541" y="1495" type="line"/>
    </contour>
  </outline>
</glyph>
<glyph name="mu" format="2">
  <advance width="1449"/>
  <unicode hex="00B5"/>
  <outline>
    <contour>
      <point x="1237" y="430" type="line" smooth="yes"/>
      <point x="1237" y="374"/>
      <point x="1277" y="331"/>
      <point x="1331" y="328" type="qcurve"/>
      <point x="1331" y="0" type="line"/>
      <point x="1220" y="-20"/>
      <point x="1147" y="-20" type="qcurve" smooth="yes"/>
      <point x="948" y="-20"/>
      <point x="918" y="129" type="qcurve"/>
      <point x="909" y="168" type="line"/>
      <point x="888" y="113"/>
      <point x="725" y="-20"/>
      <point x="645" y="-20" type="qcurve" smooth="yes"/>
      <point x="620" y="-20"/>
      <point x="576" y="-6"/>
      <point x="548" y="15"/>
      <point x="527" y="37"/>
      <point x="518" y="51"/>
      <point x="518" y="53" type="qcurve"/>
      <point x="543" y="-436" type="line"/>
      <point x="154" y="-436" type="line"/>
      <point x="154" y="1077" type="line"/>
      <point x="543" y="1077" type="line"/>
      <point x="543" y="457" type="line" smooth="yes"/>
      <point x="543" y="385"/>
      <point x="607" y="307"/>
      <point x="670" y="307" type="qcurve" smooth="yes"/>
      <point x="772" y="307"/>
      <point x="848" y="418" type="qcurve"/>
      <point x="848" y="1077" type="line"/>
      <point x="1237" y="1077" type="line"/>
    </contour>
  </outline>
</glyph>
<glyph name="paragraph" format="2">
  <advance width="1443"/>
  <unicode hex="00B6"/>
  <outline>
    <contour>
      <point x="647" y="1454" type="qcurve" smooth="yes"/>
      <point x="1346" y="1454" type="line"/>
      <point x="1346" y="1167" type="line"/>
      <point x="1202" y="1167" type="line"/>
      <point x="1202" y="-164" type="line"/>
      <point x="874" y="-164" type="line"/>
      <point x="874" y="385" type="line"/>
      <point x="811" y="385" type="line"/>
      <point x="811" y="-164" type="line"/>
      <point x="483" y="-164" type="line"/>
      <point x="483" y="385" type="line"/>
      <point x="299" y="385"/>
      <point x="70" y="677"/>
      <point x="70" y="911" type="qcurve" smooth="yes"/>
      <point x="70" y="1170"/>
      <point x="372" y="1454"/>
    </contour>
    <contour>
      <point x="483" y="672" type="qcurve"/>
      <point x="483" y="1167" type="line"/>
      <point x="443" y="1159"/>
      <point x="391" y="1021"/>
      <point x="391" y="922" type="qcurve" smooth="yes"/>
      <point x="391" y="821"/>
      <point x="443" y="680"/>
    </contour>
    <contour>
      <point x="874" y="1167" type="line"/>
      <point x="811" y="1167" type="line"/>
      <point x="811" y="672" type="line"/>
      <point x="874" y="672" type="line"/>
    </contour>
  </outline>
</glyph>
<glyph name="periodcentered" format="2">
  <advance width="520"/>
  <unicode hex="00B7"/>
  <outline>
    <contour>
      <point x="102" y="487" type="line"/>
      <point x="102" y="864" type="line"/>
      <point x="418" y="864" type="line"/>
      <point x="418" y="487" type="line"/>
    </contour>
  </outline>
</glyph>
<glyph name="cedilla" format="2">
  <advance width="741"/>
  <unicode hex="00B8"/>
  <outline>
    <contour>
      <point x="301" y="-451" type="qcurve" smooth="yes"/>
      <point x="178" y="-451"/>
      <point x="47" y="-381" type="qcurve"/>
      <point x="137" y="-182" type="line"/>
      <point x="182" y="-221"/>
      <point x="236" y="-221" type="qcurve" smooth="yes"/>
      <point x="274" y="-221"/>
      <point x="322" y="-178"/>
      <point x="322" y="-141" type="qcurve" smooth="yes"/>
      <point x="322" y="-73"/>
      <point x="236" y="0" type="qcurve"/>
      <point x="358" y="74" type="line"/>
      <point x="417" y="29"/>
      <point x="492" y="-46"/>
      <point x="549" y="-158"/>
      <point x="549" y="-219" type="qcurve" smooth="yes"/>
      <point x="549" y="-317"/>
      <point x="422" y="-451"/>
    </contour>
  </outline>
</glyph>
<glyph name="onesuperior" format="2">
  <advance width="657"/>
  <unicode hex="00B9"/>
  <outline>
    <contour>
      <point x="614" y="993" type="line"/>
      <point x="614" y="774" type="line"/>
      <point x="96" y="774" type="line"/>
      <point x="96" y="993" type="line"/>
      <point x="252" y="993" type="line"/>
      <point x="252" y="1446" type="line"/>
      <point x="227" y="1413"/>
      <point x="105" y="1337"/>
      <point x="61" y="1337" type="qcurve"/>
      <point x="61" y="1561" type="line"/>
      <point x="98" y="1561"/>
      <point x="194" y="1621"/>
      <point x="249" y="1675"/>
      <point x="252" y="1681" type="qcurve"/>
      <point x="477" y="1681" type="line"/>
      <point x="477" y="993" type="line"/>
    </contour>
  </outline>
</glyph>
<glyph name="ordmasculine" format="2">
  <advance width="897"/>
  <unicode hex="00BA"/>
  <anchor x="0" y="0" name="Anchor-11"/>
  <anchor x="0" y="0" name="Anchor-10"/>
  <anchor x="561" y="1063" name="Anchor-9"/>
  <anchor x="0" y="0" name="Anchor-8"/>
  <anchor x="559" y="0" name="Anchor-7"/>
  <outline>
    <contour>
      <point x="57" y="1073" type="qcurve" smooth="yes"/>
      <point x="57" y="1238"/>
      <point x="265" y="1464"/>
      <point x="449" y="1464" type="qcurve" smooth="yes"/>
      <point x="543" y="1464"/>
      <point x="694" y="1401"/>
      <point x="789" y="1292"/>
      <point x="840" y="1152"/>
      <point x="840" y="994"/>
      <point x="789" y="855"/>
      <point x="694" y="746"/>
      <point x="543" y="682"/>
      <point x="449" y="682" type="qcurve" smooth="yes"/>
      <point x="356" y="682"/>
      <point x="205" y="746"/>
      <point x="108" y="854"/>
      <point x="57" y="994"/>
    </contour>
    <contour>
      <point x="502" y="911"/>
      <point x="567" y="999"/>
      <point x="567" y="1147"/>
      <point x="502" y="1235"/>
      <point x="396" y="1235"/>
      <point x="330" y="1147"/>
      <point x="330" y="999"/>
      <point x="396" y="911"/>
    </contour>
  </outline>
</glyph>
<glyph name="guillemotright" format="2">
  <advance width="1460"/>
  <unicode hex="00BB"/>
  <outline>
    <contour>
      <point x="680" y="430" type="line"/>
      <point x="113" y="61" type="line"/>
      <point x="113" y="373" type="line"/>
      <point x="375" y="530" type="line"/>
      <point x="113" y="705" type="line"/>
      <point x="113" y="1016" type="line"/>
      <point x="680" y="610" type="line"/>
    </contour>
    <contour>
      <point x="1399" y="430" type="line"/>
      <point x="831" y="61" type="line"/>
      <point x="831" y="373" type="line"/>
      <point x="1094" y="530" type="line"/>
      <point x="831" y="705" type="line"/>
      <point x="831" y="1016" type="line"/>
      <point x="1399" y="610" type="line"/>
    </contour>
  </outline>
</glyph>
<glyph name="onequarter" format="2">
  <advance width="1951"/>
  <unicode hex="00BC"/>
  <outline>
    <contour>
      <point x="614" y="809" type="line"/>
      <point x="614" y="590" type="line"/>
      <point x="96" y="590" type="line"/>
      <point x="96" y="809" type="line"/>
      <point x="252" y="809" type="line"/>
      <point x="252" y="1262" type="line"/>
      <point x="227" y="1229"/>
      <point x="105" y="1153"/>
      <point x="61" y="1153" type="qcurve"/>
      <point x="61" y="1376" type="line"/>
      <point x="98" y="1376"/>
      <point x="194" y="1437"/>
      <point x="249" y="1491"/>
      <point x="252" y="1497" type="qcurve"/>
      <point x="477" y="1497" type="line"/>
      <point x="477" y="809" type="line"/>
    </contour>
    <contour>
      <point x="270" y="133" type="line"/>
      <point x="850" y="786" type="line"/>
      <point x="1364" y="1477" type="line"/>
      <point x="1534" y="1323" type="line"/>
      <point x="979" y="690" type="line"/>
      <point x="440" y="-20" type="line"/>
    </contour>
    <contour>
      <point x="1528" y="2" type="line"/>
      <point x="1528" y="193" type="line"/>
      <point x="1108" y="193" type="line"/>
      <point x="1108" y="391" type="line"/>
      <point x="1618" y="903" type="line"/>
      <point x="1790" y="903" type="line"/>
      <point x="1790" y="369" type="line"/>
      <point x="1901" y="369" type="line"/>
      <point x="1901" y="193" type="line"/>
      <point x="1790" y="193" type="line"/>
      <point x="1790" y="2" type="line"/>
    </contour>
    <contour>
      <point x="1315" y="369" type="line"/>
      <point x="1536" y="369" type="line"/>
      <point x="1536" y="598" type="line"/>
    </contour>
  </outline>
</glyph>
<glyph name="onehalf" format="2">
  <advance width="2066"/>
  <unicode hex="00BD"/>
  <outline>
    <contour>
      <point x="614" y="809" type="line"/>
      <point x="614" y="590" type="line"/>
      <point x="96" y="590" type="line"/>
      <point x="96" y="809" type="line"/>
      <point x="252" y="809" type="line"/>
      <point x="252" y="1262" type="line"/>
      <point x="227" y="1229"/>
      <point x="105" y="1153"/>
      <point x="61" y="1153" type="qcurve"/>
      <point x="61" y="1376" type="line"/>
      <point x="98" y="1376"/>
      <point x="194" y="1437"/>
      <point x="249" y="1491"/>
      <point x="252" y="1497" type="qcurve"/>
      <point x="477" y="1497" type="line"/>
      <point x="477" y="809" type="line"/>
    </contour>
    <contour>
      <point x="270" y="133" type="line"/>
      <point x="850" y="786" type="line"/>
      <point x="1364" y="1477" type="line"/>
      <point x="1534" y="1323" type="line"/>
      <point x="979" y="690" type="line"/>
      <point x="440" y="-20" type="line"/>
    </contour>
    <contour>
      <point x="1202" y="0" type="line"/>
      <point x="1202" y="166"/>
      <point x="1312" y="339"/>
      <point x="1475" y="414" type="qcurve" smooth="yes"/>
      <point x="1496" y="424"/>
      <point x="1575" y="457"/>
      <point x="1624" y="478"/>
      <point x="1686" y="513"/>
      <point x="1722" y="544"/>
      <point x="1747" y="586"/>
      <point x="1747" y="610" type="qcurve" smooth="yes"/>
      <point x="1747" y="658"/>
      <point x="1661" y="713"/>
      <point x="1593" y="713" type="qcurve" smooth="yes"/>
      <point x="1455" y="713"/>
      <point x="1346" y="604" type="qcurve"/>
      <point x="1206" y="768" type="line"/>
      <point x="1252" y="830"/>
      <point x="1480" y="911"/>
      <point x="1618" y="911" type="qcurve" smooth="yes"/>
      <point x="1799" y="911"/>
      <point x="1993" y="763"/>
      <point x="1993" y="629" type="qcurve" smooth="yes"/>
      <point x="1993" y="560"/>
      <point x="1942" y="449"/>
      <point x="1857" y="379"/>
      <point x="1780" y="339"/>
      <point x="1737" y="326" type="qcurve" smooth="yes"/>
      <point x="1694" y="314"/>
      <point x="1648" y="297"/>
      <point x="1596" y="271"/>
      <point x="1573" y="240"/>
      <point x="1573" y="219" type="qcurve"/>
      <point x="1995" y="219" type="line"/>
      <point x="1995" y="0" type="line"/>
    </contour>
  </outline>
</glyph>
<glyph name="threequarters" format="2">
  <advance width="2158"/>
  <unicode hex="00BE"/>
  <outline>
    <contour>
      <point x="47" y="717" type="qcurve"/>
      <point x="160" y="868" type="line"/>
      <point x="258" y="786"/>
      <point x="399" y="786" type="qcurve" smooth="yes"/>
      <point x="557" y="786"/>
      <point x="557" y="874" type="qcurve" smooth="yes"/>
      <point x="557" y="918"/>
      <point x="460" y="956"/>
      <point x="336" y="956" type="qcurve" smooth="yes"/>
      <point x="285" y="956" type="line"/>
      <point x="285" y="1153" type="line"/>
      <point x="334" y="1153" type="line" smooth="yes"/>
      <point x="440" y="1153"/>
      <point x="526" y="1188"/>
      <point x="526" y="1227" type="qcurve" smooth="yes"/>
      <point x="526" y="1300"/>
      <point x="401" y="1300" type="qcurve" smooth="yes"/>
      <point x="272" y="1300"/>
      <point x="174" y="1214" type="qcurve"/>
      <point x="43" y="1382" type="line"/>
      <point x="94" y="1436"/>
      <point x="314" y="1497"/>
      <point x="424" y="1497" type="qcurve" smooth="yes"/>
      <point x="586" y="1497"/>
      <point x="784" y="1358"/>
      <point x="784" y="1249" type="qcurve" smooth="yes"/>
      <point x="784" y="1178"/>
      <point x="698" y="1080"/>
      <point x="625" y="1067" type="qcurve"/>
      <point x="708" y="1054"/>
      <point x="805" y="923"/>
      <point x="805" y="834" type="qcurve" smooth="yes"/>
      <point x="805" y="764"/>
      <point x="741" y="660"/>
      <point x="629" y="600"/>
      <point x="493" y="571"/>
      <point x="414" y="571" type="qcurve" smooth="yes"/>
      <point x="284" y="571"/>
      <point x="85" y="645"/>
    </contour>
    <contour>
      <point x="477" y="133" type="line"/>
      <point x="1057" y="786" type="line"/>
      <point x="1571" y="1477" type="line"/>
      <point x="1741" y="1323" type="line"/>
      <point x="1186" y="690" type="line"/>
      <point x="647" y="-20" type="line"/>
    </contour>
    <contour>
      <point x="1735" y="2" type="line"/>
      <point x="1735" y="193" type="line"/>
      <point x="1315" y="193" type="line"/>
      <point x="1315" y="391" type="line"/>
      <point x="1825" y="903" type="line"/>
      <point x="1997" y="903" type="line"/>
      <point x="1997" y="369" type="line"/>
      <point x="2107" y="369" type="line"/>
      <point x="2107" y="193" type="line"/>
      <point x="1997" y="193" type="line"/>
      <point x="1997" y="2" type="line"/>
    </contour>
    <contour>
      <point x="1522" y="369" type="line"/>
      <point x="1743" y="369" type="line"/>
      <point x="1743" y="598" type="line"/>
    </contour>
  </outline>
</glyph>
<glyph name="questiondown" format="2">
  <advance width="997"/>
  <unicode hex="00BF"/>
  <outline>
    <contour>
      <point x="803" y="1036" type="line"/>
      <point x="803" y="700" type="line"/>
      <point x="485" y="700" type="line"/>
      <point x="485" y="1036" type="line"/>
    </contour>
    <contour>
      <point x="809" y="506" type="line"/>
      <point x="809" y="454"/>
      <point x="800" y="384"/>
      <point x="769" y="301"/>
      <point x="701" y="233"/>
      <point x="647" y="205" type="qcurve" smooth="yes"/>
      <point x="641" y="202"/>
      <point x="575" y="168"/>
      <point x="532" y="145"/>
      <point x="466" y="101"/>
      <point x="426" y="61"/>
      <point x="395" y="7"/>
      <point x="395" y="-20" type="qcurve" smooth="yes"/>
      <point x="395" y="-65"/>
      <point x="467" y="-123"/>
      <point x="518" y="-123" type="qcurve" smooth="yes"/>
      <point x="546" y="-123"/>
      <point x="593" y="-105"/>
      <point x="629" y="-72"/>
      <point x="653" y="-44"/>
      <point x="681" y="-3"/>
      <point x="686" y="4" type="qcurve"/>
      <point x="934" y="-172" type="line"/>
      <point x="882" y="-296"/>
      <point x="652" y="-436"/>
      <point x="504" y="-436" type="qcurve" smooth="yes"/>
      <point x="439" y="-436"/>
      <point x="315" y="-409"/>
      <point x="198" y="-345"/>
      <point x="110" y="-251"/>
      <point x="57" y="-107"/>
      <point x="57" y="-18" type="qcurve" smooth="yes"/>
      <point x="57" y="192"/>
      <point x="221" y="303" type="qcurve" smooth="yes"/>
      <point x="261" y="330"/>
      <point x="416" y="406"/>
      <point x="492" y="466"/>
      <point x="492" y="506" type="qcurve"/>
    </contour>
  </outline>
</glyph>
<glyph name="Acircumflex" format="2">
  <advance width="1366"/>
  <unicode hex="00C2"/>
  <anchor x="0" y="0" name="Anchor-11"/>
  <anchor x="0" y="0" name="Anchor-10"/>
  <anchor x="684" y="1872" name="Anchor-9"/>
  <anchor x="1370" y="0" name="Anchor-8"/>
  <anchor x="707" y="0" name="Anchor-7"/>
  <outline>
    <contour>
      <point x="313" y="1636" type="line"/>
      <point x="545" y="1872" type="line"/>
      <point x="823" y="1872" type="line"/>
      <point x="1055" y="1636" type="line"/>
      <point x="858" y="1550" type="line"/>
      <point x="684" y="1679" type="line"/>
      <point x="510" y="1550" type="line"/>
    </contour>
    <contour>
      <point x="461" y="1454" type="line"/>
      <point x="907" y="1454" type="line"/>
      <point x="1370" y="0" type="line"/>
      <point x="965" y="0" type="line"/>
      <point x="877" y="285" type="line"/>
      <point x="489" y="285" type="line"/>
      <point x="403" y="0" type="line"/>
      <point x="-4" y="0" type="line"/>
    </contour>
    <contour>
      <point x="813" y="551" type="line"/>
      <point x="684" y="1063" type="line"/>
      <point x="549" y="551" type="line"/>
    </contour>
  </outline>
</glyph>
<glyph name="Atilde" format="2">
  <advance width="1366"/>
  <unicode hex="00C3"/>
  <anchor x="0" y="0" name="Anchor-11"/>
  <anchor x="0" y="0" name="Anchor-10"/>
  <anchor x="684" y="1872" name="Anchor-9"/>
  <anchor x="1370" y="0" name="Anchor-8"/>
  <anchor x="707" y="0" name="Anchor-7"/>
  <outline>
    <contour>
      <point x="551" y="1647" type="qcurve" smooth="yes"/>
      <point x="525" y="1647"/>
      <point x="487" y="1627"/>
      <point x="469" y="1601"/>
      <point x="459" y="1568"/>
      <point x="457" y="1553"/>
      <point x="457" y="1548" type="qcurve"/>
      <point x="250" y="1548" type="line"/>
      <point x="250" y="1572"/>
      <point x="269" y="1647"/>
      <point x="314" y="1739"/>
      <point x="377" y="1818"/>
      <point x="477" y="1872"/>
      <point x="535" y="1872" type="qcurve" smooth="yes"/>
      <point x="580" y="1872"/>
      <point x="662" y="1839"/>
      <point x="714" y="1800"/>
      <point x="780" y="1767"/>
      <point x="811" y="1767" type="qcurve" smooth="yes"/>
      <point x="836" y="1767"/>
      <point x="876" y="1788"/>
      <point x="896" y="1816"/>
      <point x="909" y="1849"/>
      <point x="913" y="1868"/>
      <point x="913" y="1872" type="qcurve"/>
      <point x="1118" y="1872" type="line"/>
      <point x="1118" y="1855"/>
      <point x="1098" y="1785"/>
      <point x="1052" y="1690"/>
      <point x="988" y="1607"/>
      <point x="884" y="1548"/>
      <point x="825" y="1548" type="qcurve" smooth="yes"/>
      <point x="783" y="1548"/>
      <point x="702" y="1579"/>
      <point x="649" y="1616"/>
      <point x="581" y="1647"/>
    </contour>
    <contour>
      <point x="461" y="1454" type="line"/>
      <point x="907" y="1454" type="line"/>
      <point x="1370" y="0" type="line"/>
      <point x="965" y="0" type="line"/>
      <point x="877" y="285" type="line"/>
      <point x="489" y="285" type="line"/>
      <point x="403" y="0" type="line"/>
      <point x="-4" y="0" type="line"/>
    </contour>
    <contour>
      <point x="813" y="551" type="line"/>
      <point x="684" y="1063" type="line"/>
      <point x="549" y="551" type="line"/>
    </contour>
  </outline>
</glyph>
<glyph name="Adieresis" format="2">
  <advance width="1366"/>
  <unicode hex="00C4"/>
  <anchor x="0" y="0" name="Anchor-11"/>
  <anchor x="0" y="0" name="Anchor-10"/>
  <anchor x="684" y="1853" name="Anchor-9"/>
  <anchor x="1370" y="0" name="Anchor-8"/>
  <anchor x="707" y="0" name="Anchor-7"/>
  <outline>
    <contour>
      <point x="289" y="1567" type="line"/>
      <point x="289" y="1853" type="line"/>
      <point x="608" y="1853" type="line"/>
      <point x="608" y="1567" type="line"/>
    </contour>
    <contour>
      <point x="760" y="1567" type="line"/>
      <point x="760" y="1853" type="line"/>
      <point x="1079" y="1853" type="line"/>
      <point x="1079" y="1567" type="line"/>
    </contour>
    <contour>
      <point x="461" y="1454" type="line"/>
      <point x="907" y="1454" type="line"/>
      <point x="1370" y="0" type="line"/>
      <point x="965" y="0" type="line"/>
      <point x="877" y="285" type="line"/>
      <point x="489" y="285" type="line"/>
      <point x="403" y="0" type="line"/>
      <point x="-4" y="0" type="line"/>
    </contour>
    <contour>
      <point x="813" y="551" type="line"/>
      <point x="684" y="1063" type="line"/>
      <point x="549" y="551" type="line"/>
    </contour>
  </outline>
</glyph>
<glyph name="Aring" format="2">
  <advance width="1366"/>
  <unicode hex="00C5"/>
  <anchor x="0" y="0" name="Anchor-11"/>
  <anchor x="0" y="0" name="Anchor-10"/>
  <anchor x="684" y="1872" name="Anchor-9"/>
  <anchor x="1370" y="0" name="Anchor-8"/>
  <anchor x="707" y="0" name="Anchor-7"/>
  <outline>
    <contour>
      <point x="793" y="1886"/>
      <point x="924" y="1783"/>
      <point x="924" y="1605"/>
      <point x="793" y="1501"/>
      <point x="575" y="1501"/>
      <point x="444" y="1605"/>
      <point x="444" y="1783"/>
      <point x="575" y="1886"/>
    </contour>
    <contour>
      <point x="602" y="1696" type="qcurve" smooth="yes"/>
      <point x="602" y="1664"/>
      <point x="650" y="1616"/>
      <point x="684" y="1616" type="qcurve" smooth="yes"/>
      <point x="717" y="1616"/>
      <point x="766" y="1665"/>
      <point x="766" y="1696" type="qcurve" smooth="yes"/>
      <point x="766" y="1726"/>
      <point x="718" y="1772"/>
      <point x="650" y="1772"/>
      <point x="602" y="1726"/>
    </contour>
    <contour>
      <point x="461" y="1454" type="line"/>
      <point x="907" y="1454" type="line"/>
      <point x="1370" y="0" type="line"/>
      <point x="965" y="0" type="line"/>
      <point x="877" y="285" type="line"/>
      <point x="489" y="285" type="line"/>
      <point x="403" y="0" type="line"/>
      <point x="-4" y="0" type="line"/>
    </contour>
    <contour>
      <point x="813" y="551" type="line"/>
      <point x="684" y="1063" type="line"/>
      <point x="549" y="551" type="line"/>
    </contour>
  </outline>
</glyph>
<glyph name="AE" format="2">
  <advance width="1988"/>
  <unicode hex="00C6"/>
  <anchor x="0" y="0" name="Anchor-11"/>
  <anchor x="0" y="0" name="Anchor-10"/>
  <anchor x="1280" y="1454" name="Anchor-9"/>
  <anchor x="0" y="0" name="Anchor-8"/>
  <anchor x="0" y="0" name="Anchor-7"/>
  <outline>
    <contour>
      <point x="829" y="1454" type="line"/>
      <point x="1909" y="1454" type="line"/>
      <point x="1909" y="1106" type="line"/>
      <point x="1331" y="1106" type="line"/>
      <point x="1331" y="913" type="line"/>
      <point x="1798" y="913" type="line"/>
      <point x="1798" y="565" type="line"/>
      <point x="1331" y="565" type="line"/>
      <point x="1331" y="348" type="line"/>
      <point x="1927" y="348" type="line"/>
      <point x="1927" y="0" type="line"/>
      <point x="934" y="0" type="line"/>
      <point x="934" y="285" type="line"/>
      <point x="522" y="285" type="line"/>
      <point x="369" y="0" type="line"/>
      <point x="-53" y="0" type="line"/>
    </contour>
    <contour>
      <point x="903" y="633" type="line"/>
      <point x="903" y="1014" type="line"/>
      <point x="690" y="633" type="line"/>
    </contour>
  </outline>
</glyph>
<glyph name="Egrave" format="2">
  <advance width="1222"/>
  <unicode hex="00C8"/>
  <anchor x="0" y="0" name="Anchor-11"/>
  <anchor x="0" y="0" name="Anchor-10"/>
  <anchor x="565" y="1872" name="Anchor-9"/>
  <anchor x="1161" y="0" name="Anchor-8"/>
  <anchor x="647" y="0" name="Anchor-7"/>
  <outline>
    <contour>
      <point x="340" y="1872" type="line"/>
      <point x="686" y="1872" type="line"/>
      <point x="788" y="1581" type="line"/>
      <point x="543" y="1516" type="line"/>
    </contour>
    <contour>
      <point x="1161" y="348" type="line"/>
      <point x="1161" y="0" type="line"/>
      <point x="125" y="0" type="line"/>
      <point x="125" y="1454" type="line"/>
      <point x="1143" y="1454" type="line"/>
      <point x="1143" y="1106" type="line"/>
      <point x="524" y="1106" type="line"/>
      <point x="524" y="901" type="line"/>
      <point x="1053" y="901" type="line"/>
      <point x="1053" y="578" type="line"/>
      <point x="524" y="578" type="line"/>
      <point x="524" y="348" type="line"/>
    </contour>
  </outline>
</glyph>
<glyph name="Eacute" format="2">
  <advance width="1222"/>
  <unicode hex="00C9"/>
  <anchor x="0" y="0" name="Anchor-11"/>
  <anchor x="0" y="0" name="Anchor-10"/>
  <anchor x="750" y="1872" name="Anchor-9"/>
  <anchor x="1161" y="0" name="Anchor-8"/>
  <anchor x="647" y="0" name="Anchor-7"/>
  <outline>
    <contour>
      <point x="770" y="1516" type="line"/>
      <point x="524" y="1581" type="line"/>
      <point x="627" y="1872" type="line"/>
      <point x="973" y="1872" type="line"/>
    </contour>
    <contour>
      <point x="1161" y="348" type="line"/>
      <point x="1161" y="0" type="line"/>
      <point x="125" y="0" type="line"/>
      <point x="125" y="1454" type="line"/>
      <point x="1143" y="1454" type="line"/>
      <point x="1143" y="1106" type="line"/>
      <point x="524" y="1106" type="line"/>
      <point x="524" y="901" type="line"/>
      <point x="1053" y="901" type="line"/>
      <point x="1053" y="578" type="line"/>
      <point x="524" y="578" type="line"/>
      <point x="524" y="348" type="line"/>
    </contour>
  </outline>
</glyph>
<glyph name="Edieresis" format="2">
  <advance width="1222"/>
  <unicode hex="00CB"/>
  <anchor x="0" y="0" name="Anchor-11"/>
  <anchor x="0" y="0" name="Anchor-10"/>
  <anchor x="647" y="1853" name="Anchor-9"/>
  <anchor x="1161" y="0" name="Anchor-8"/>
  <anchor x="647" y="0" name="Anchor-7"/>
  <outline>
    <contour>
      <point x="252" y="1567" type="line"/>
      <point x="252" y="1853" type="line"/>
      <point x="571" y="1853" type="line"/>
      <point x="571" y="1567" type="line"/>
    </contour>
    <contour>
      <point x="723" y="1567" type="line"/>
      <point x="723" y="1853" type="line"/>
      <point x="1042" y="1853" type="line"/>
      <point x="1042" y="1567" type="line"/>
    </contour>
    <contour>
      <point x="1161" y="348" type="line"/>
      <point x="1161" y="0" type="line"/>
      <point x="125" y="0" type="line"/>
      <point x="125" y="1454" type="line"/>
      <point x="1143" y="1454" type="line"/>
      <point x="1143" y="1106" type="line"/>
      <point x="524" y="1106" type="line"/>
      <point x="524" y="901" type="line"/>
      <point x="1053" y="901" type="line"/>
      <point x="1053" y="578" type="line"/>
      <point x="524" y="578" type="line"/>
      <point x="524" y="348" type="line"/>
    </contour>
  </outline>
</glyph>
<glyph name="Igrave" format="2">
  <advance width="649"/>
  <unicode hex="00CC"/>
  <anchor x="0" y="0" name="Anchor-11"/>
  <anchor x="0" y="0" name="Anchor-10"/>
  <anchor x="242" y="1872" name="Anchor-9"/>
  <anchor x="524" y="0" name="Anchor-8"/>
  <anchor x="324" y="0" name="Anchor-7"/>
  <outline>
    <contour>
      <point x="16" y="1872" type="line"/>
      <point x="362" y="1872" type="line"/>
      <point x="465" y="1581" type="line"/>
      <point x="219" y="1516" type="line"/>
    </contour>
    <contour>
      <point x="125" y="0" type="line"/>
      <point x="125" y="1454" type="line"/>
      <point x="524" y="1454" type="line"/>
      <point x="524" y="0" type="line"/>
    </contour>
  </outline>
</glyph>
<glyph name="Icircumflex" format="2">
  <advance width="649"/>
  <unicode hex="00CE"/>
  <anchor x="0" y="0" name="Anchor-11"/>
  <anchor x="0" y="0" name="Anchor-10"/>
  <anchor x="324" y="1872" name="Anchor-9"/>
  <anchor x="524" y="0" name="Anchor-8"/>
  <anchor x="324" y="0" name="Anchor-7"/>
  <outline>
    <contour>
      <point x="-47" y="1636" type="line"/>
      <point x="184" y="1872" type="line"/>
      <point x="463" y="1872" type="line"/>
      <point x="694" y="1636" type="line"/>
      <point x="498" y="1550" type="line"/>
      <point x="324" y="1679" type="line"/>
      <point x="150" y="1550" type="line"/>
    </contour>
    <contour>
      <point x="125" y="0" type="line"/>
      <point x="125" y="1454" type="line"/>
      <point x="524" y="1454" type="line"/>
      <point x="524" y="0" type="line"/>
    </contour>
  </outline>
</glyph>
<glyph name="Eth" format="2">
  <advance width="1474"/>
  <unicode hex="00D0"/>
  <anchor x="0" y="0" name="Anchor-11"/>
  <anchor x="741" y="727" name="Anchor-10"/>
  <anchor x="657" y="1454" name="Anchor-9"/>
  <anchor x="0" y="0" name="Anchor-8"/>
  <anchor x="741" y="0" name="Anchor-7"/>
  <outline>
    <contour>
      <point x="692" y="1454" type="line" smooth="yes"/>
      <point x="868" y="1454"/>
      <point x="1151" y="1341"/>
      <point x="1330" y="1142"/>
      <point x="1425" y="881"/>
      <point x="1425" y="729" type="qcurve" smooth="yes"/>
      <point x="1425" y="399"/>
      <point x="1024" y="0"/>
      <point x="692" y="0" type="qcurve" smooth="yes"/>
      <point x="133" y="0" type="line"/>
      <point x="133" y="588" type="line"/>
      <point x="57" y="588" type="line"/>
      <point x="57" y="874" type="line"/>
      <point x="133" y="874" type="line"/>
      <point x="133" y="1454" type="line"/>
    </contour>
    <contour>
      <point x="692" y="348" type="line" smooth="yes"/>
      <point x="845" y="348"/>
      <point x="1020" y="560"/>
      <point x="1020" y="729" type="qcurve" smooth="yes"/>
      <point x="1020" y="900"/>
      <point x="844" y="1106"/>
      <point x="692" y="1106" type="qcurve" smooth="yes"/>
      <point x="532" y="1106" type="line"/>
      <point x="532" y="874" type="line"/>
      <point x="766" y="874" type="line"/>
      <point x="766" y="588" type="line"/>
      <point x="532" y="588" type="line"/>
      <point x="532" y="348" type="line"/>
    </contour>
  </outline>
</glyph>
<glyph name="Ntilde" format="2">
  <advance width="1544"/>
  <unicode hex="00D1"/>
  <anchor x="0" y="0" name="Anchor-11"/>
  <anchor x="0" y="0" name="Anchor-10"/>
  <anchor x="766" y="1870" name="Anchor-9"/>
  <anchor x="0" y="0" name="Anchor-8"/>
  <anchor x="766" y="0" name="Anchor-7"/>
  <outline>
    <contour>
      <point x="633" y="1645" type="qcurve" smooth="yes"/>
      <point x="607" y="1645"/>
      <point x="569" y="1625"/>
      <point x="551" y="1599"/>
      <point x="541" y="1566"/>
      <point x="539" y="1551"/>
      <point x="539" y="1546" type="qcurve"/>
      <point x="332" y="1546" type="line"/>
      <point x="332" y="1570"/>
      <point x="351" y="1645"/>
      <point x="396" y="1737"/>
      <point x="458" y="1816"/>
      <point x="558" y="1870"/>
      <point x="616" y="1870" type="qcurve" smooth="yes"/>
      <point x="661" y="1870"/>
      <point x="743" y="1837"/>
      <point x="795" y="1798"/>
      <point x="862" y="1765"/>
      <point x="893" y="1765" type="qcurve" smooth="yes"/>
      <point x="918" y="1765"/>
      <point x="958" y="1786"/>
      <point x="978" y="1814"/>
      <point x="991" y="1847"/>
      <point x="995" y="1866"/>
      <point x="995" y="1870" type="qcurve"/>
      <point x="1200" y="1870" type="line"/>
      <point x="1200" y="1853"/>
      <point x="1180" y="1783"/>
      <point x="1134" y="1688"/>
      <point x="1070" y="1605"/>
      <point x="966" y="1546"/>
      <point x="907" y="1546" type="qcurve" smooth="yes"/>
      <point x="865" y="1546"/>
      <point x="784" y="1577"/>
      <point x="731" y="1614"/>
      <point x="663" y="1645"/>
    </contour>
    <contour>
      <point x="524" y="715" type="line"/>
      <point x="524" y="0" type="line"/>
      <point x="125" y="0" type="line"/>
      <point x="125" y="1454" type="line"/>
      <point x="436" y="1454" type="line"/>
      <point x="1020" y="715" type="line"/>
      <point x="1020" y="1454" type="line"/>
      <point x="1419" y="1454" type="line"/>
      <point x="1419" y="0" type="line"/>
      <point x="1102" y="0" type="line"/>
    </contour>
  </outline>
</glyph>
<glyph name="multiply" format="2">
  <advance width="1007"/>
  <unicode hex="00D7"/>
  <outline>
    <contour>
      <point x="924" y="391" type="line"/>
      <point x="680" y="150" type="line"/>
      <point x="502" y="328" type="line"/>
      <point x="324" y="150" type="line"/>
      <point x="84" y="391" type="line"/>
      <point x="260" y="567" type="line"/>
      <point x="96" y="733" type="line"/>
      <point x="340" y="975" type="line"/>
      <point x="504" y="811" type="line"/>
      <point x="668" y="975" type="line"/>
      <point x="907" y="733" type="line"/>
      <point x="743" y="569" type="line"/>
    </contour>
  </outline>
</glyph>
<glyph name="Oslash" format="2">
  <advance width="1562"/>
  <unicode hex="00D8"/>
  <anchor x="1118" y="1305" name="Anchor-11"/>
  <anchor x="784" y="727" name="Anchor-10"/>
  <anchor x="788" y="1454" name="Anchor-9"/>
  <anchor x="965" y="12" name="Anchor-8"/>
  <anchor x="780" y="0" name="Anchor-7"/>
  <outline>
    <contour>
      <point x="1526" y="1454" type="line"/>
      <point x="1343" y="1204" type="line"/>
      <point x="1429" y="1103"/>
      <point x="1522" y="852"/>
      <point x="1522" y="721" type="qcurve" smooth="yes"/>
      <point x="1522" y="579"/>
      <point x="1411" y="313"/>
      <point x="1218" y="110"/>
      <point x="938" y="-12"/>
      <point x="780" y="-12" type="qcurve" smooth="yes"/>
      <point x="632" y="-12"/>
      <point x="500" y="43" type="qcurve"/>
      <point x="469" y="0" type="line"/>
      <point x="41" y="0" type="line"/>
      <point x="221" y="248" type="line"/>
      <point x="136" y="349"/>
      <point x="45" y="599"/>
      <point x="45" y="729" type="qcurve" smooth="yes"/>
      <point x="45" y="872"/>
      <point x="157" y="1139"/>
      <point x="351" y="1341"/>
      <point x="630" y="1462"/>
      <point x="788" y="1462" type="qcurve" smooth="yes"/>
      <point x="939" y="1462"/>
      <point x="1063" y="1409" type="qcurve"/>
      <point x="1096" y="1454" type="line"/>
    </contour>
    <contour>
      <point x="451" y="725" type="qcurve" smooth="yes"/>
      <point x="451" y="654"/>
      <point x="469" y="590" type="qcurve"/>
      <point x="842" y="1104" type="line"/>
      <point x="806" y="1108"/>
      <point x="782" y="1108" type="qcurve" smooth="yes"/>
      <point x="699" y="1108"/>
      <point x="569" y="1042"/>
      <point x="491" y="932"/>
      <point x="451" y="798"/>
    </contour>
    <contour>
      <point x="1116" y="729" type="qcurve" smooth="yes"/>
      <point x="1116" y="800"/>
      <point x="1098" y="864" type="qcurve"/>
      <point x="721" y="348" type="line"/>
      <point x="751" y="342"/>
      <point x="784" y="342" type="qcurve" smooth="yes"/>
      <point x="867" y="342"/>
      <point x="998" y="409"/>
      <point x="1076" y="521"/>
      <point x="1116" y="655"/>
    </contour>
  </outline>
</glyph>
<glyph name="Udieresis" format="2">
  <advance width="1521"/>
  <unicode hex="00DC"/>
  <anchor x="1372" y="1307" name="Anchor-11"/>
  <anchor x="0" y="0" name="Anchor-10"/>
  <anchor x="760" y="1853" name="Anchor-9"/>
  <anchor x="954" y="12" name="Anchor-8"/>
  <anchor x="760" y="0" name="Anchor-7"/>
  <outline>
    <contour>
      <point x="365" y="1567" type="line"/>
      <point x="365" y="1853" type="line"/>
      <point x="684" y="1853" type="line"/>
      <point x="684" y="1567" type="line"/>
    </contour>
    <contour>
      <point x="836" y="1567" type="line"/>
      <point x="836" y="1853" type="line"/>
      <point x="1155" y="1853" type="line"/>
      <point x="1155" y="1567" type="line"/>
    </contour>
    <contour>
      <point x="760" y="-12" type="qcurve" smooth="yes"/>
      <point x="624" y="-12"/>
      <point x="403" y="64"/>
      <point x="252" y="196"/>
      <point x="150" y="380"/>
      <point x="104" y="589"/>
      <point x="104" y="707" type="qcurve" smooth="yes"/>
      <point x="104" y="1454" type="line"/>
      <point x="504" y="1454" type="line"/>
      <point x="504" y="707" type="line" smooth="yes"/>
      <point x="504" y="632"/>
      <point x="533" y="504"/>
      <point x="592" y="401"/>
      <point x="693" y="342"/>
      <point x="760" y="342" type="qcurve" smooth="yes"/>
      <point x="828" y="342"/>
      <point x="930" y="402"/>
      <point x="989" y="507"/>
      <point x="1018" y="634"/>
      <point x="1018" y="707" type="qcurve" smooth="yes"/>
      <point x="1018" y="1454" type="line"/>
      <point x="1417" y="1454" type="line"/>
      <point x="1417" y="707" type="line" smooth="yes"/>
      <point x="1417" y="552"/>
      <point x="1337" y="294"/>
      <point x="1180" y="98"/>
      <point x="925" y="-12"/>
    </contour>
  </outline>
</glyph>
<glyph name="Yacute" format="2">
  <advance width="1363"/>
  <unicode hex="00DD"/>
  <anchor x="0" y="0" name="Anchor-11"/>
  <anchor x="0" y="0" name="Anchor-10"/>
  <anchor x="782" y="1872" name="Anchor-9"/>
  <anchor x="0" y="0" name="Anchor-8"/>
  <anchor x="682" y="0" name="Anchor-7"/>
  <outline>
    <contour>
      <point x="803" y="1516" type="line"/>
      <point x="557" y="1581" type="line"/>
      <point x="659" y="1872" type="line"/>
      <point x="1006" y="1872" type="line"/>
    </contour>
    <contour>
      <point x="420" y="1454" type="line"/>
      <point x="680" y="860" type="line"/>
      <point x="946" y="1454" type="line"/>
      <point x="1380" y="1454" type="line"/>
      <point x="879" y="481" type="line"/>
      <point x="879" y="0" type="line"/>
      <point x="481" y="0" type="line"/>
      <point x="481" y="485" type="line"/>
      <point x="-12" y="1454" type="line"/>
    </contour>
  </outline>
</glyph>
<glyph name="Thorn" format="2">
  <advance width="1239"/>
  <unicode hex="00DE"/>
  <outline>
    <contour>
      <point x="1210" y="711" type="qcurve" smooth="yes"/>
      <point x="1210" y="580"/>
      <point x="1092" y="351"/>
      <point x="870" y="207"/>
      <point x="731" y="207" type="qcurve" smooth="yes"/>
      <point x="524" y="207" type="line"/>
      <point x="524" y="0" type="line"/>
      <point x="125" y="0" type="line"/>
      <point x="125" y="1454" type="line"/>
      <point x="524" y="1454" type="line"/>
      <point x="524" y="1212" type="line"/>
      <point x="721" y="1212" type="line" smooth="yes"/>
      <point x="825" y="1212"/>
      <point x="1010" y="1125"/>
      <point x="1136" y="984"/>
      <point x="1210" y="804"/>
    </contour>
    <contour>
      <point x="811" y="711" type="qcurve" smooth="yes"/>
      <point x="811" y="781"/>
      <point x="742" y="864"/>
      <point x="700" y="864" type="qcurve" smooth="yes"/>
      <point x="524" y="864" type="line"/>
      <point x="524" y="555" type="line"/>
      <point x="711" y="555" type="line" smooth="yes"/>
      <point x="751" y="555"/>
      <point x="811" y="642"/>
    </contour>
  </outline>
</glyph>
<glyph name="germandbls" format="2">
  <advance width="1153"/>
  <unicode hex="00DF"/>
  <outline>
    <contour>
      <point x="520" y="344" type="line"/>
      <point x="599" y="344"/>
      <point x="705" y="419"/>
      <point x="705" y="485" type="qcurve" smooth="yes"/>
      <point x="705" y="530"/>
      <point x="652" y="596"/>
      <point x="590" y="621"/>
      <point x="563" y="621" type="qcurve" smooth="yes"/>
      <point x="516" y="621" type="line"/>
      <point x="516" y="969" type="line"/>
      <point x="559" y="969" type="line" smooth="yes"/>
      <point x="600" y="969"/>
      <point x="639" y="1013"/>
      <point x="639" y="1049" type="qcurve" smooth="yes"/>
      <point x="639" y="1073"/>
      <point x="621" y="1108"/>
      <point x="598" y="1125"/>
      <point x="568" y="1134"/>
      <point x="556" y="1135"/>
      <point x="551" y="1135" type="qcurve" smooth="yes"/>
      <point x="467" y="1135"/>
      <point x="467" y="1012" type="qcurve" smooth="yes"/>
      <point x="467" y="0" type="line"/>
      <point x="98" y="0" type="line"/>
      <point x="98" y="1083" type="line" smooth="yes"/>
      <point x="98" y="1245"/>
      <point x="382" y="1462"/>
      <point x="590" y="1462" type="qcurve" smooth="yes"/>
      <point x="776" y="1462"/>
      <point x="1008" y="1279"/>
      <point x="1008" y="1118" type="qcurve" smooth="yes"/>
      <point x="1008" y="1019"/>
      <point x="922" y="856"/>
      <point x="862" y="825" type="qcurve"/>
      <point x="980" y="780"/>
      <point x="1114" y="580"/>
      <point x="1114" y="436" type="qcurve" smooth="yes"/>
      <point x="1114" y="334"/>
      <point x="1042" y="174"/>
      <point x="927" y="76"/>
      <point x="768" y="12"/>
      <point x="608" y="-12"/>
      <point x="520" y="-12" type="qcurve"/>
    </contour>
  </outline>
</glyph>
<glyph name="atilde" format="2">
  <advance width="1226"/>
  <unicode hex="00E3"/>
  <anchor x="0" y="0" name="Anchor-11"/>
  <anchor x="0" y="0" name="Anchor-10"/>
  <anchor x="573" y="1495" name="Anchor-9"/>
  <anchor x="1184" y="0" name="Anchor-8"/>
  <anchor x="612" y="0" name="Anchor-7"/>
  <outline>
    <contour>
      <point x="440" y="1270" type="qcurve" smooth="yes"/>
      <point x="414" y="1270"/>
      <point x="376" y="1250"/>
      <point x="358" y="1224"/>
      <point x="348" y="1191"/>
      <point x="346" y="1176"/>
      <point x="346" y="1171" type="qcurve"/>
      <point x="139" y="1171" type="line"/>
      <point x="139" y="1195"/>
      <point x="158" y="1270"/>
      <point x="203" y="1362"/>
      <point x="266" y="1441"/>
      <point x="366" y="1495"/>
      <point x="424" y="1495" type="qcurve" smooth="yes"/>
      <point x="469" y="1495"/>
      <point x="551" y="1462"/>
      <point x="602" y="1424"/>
      <point x="669" y="1391"/>
      <point x="700" y="1391" type="qcurve" smooth="yes"/>
      <point x="725" y="1391"/>
      <point x="765" y="1412"/>
      <point x="786" y="1440"/>
      <point x="799" y="1472"/>
      <point x="803" y="1491"/>
      <point x="803" y="1495" type="qcurve"/>
      <point x="1008" y="1495" type="line"/>
      <point x="1008" y="1478"/>
      <point x="988" y="1408"/>
      <point x="942" y="1313"/>
      <point x="878" y="1230"/>
      <point x="774" y="1171"/>
      <point x="715" y="1171" type="qcurve" smooth="yes"/>
      <point x="673" y="1171"/>
      <point x="592" y="1202"/>
      <point x="538" y="1239"/>
      <point x="470" y="1270"/>
    </contour>
    <contour>
      <point x="39" y="326" type="qcurve" smooth="yes"/>
      <point x="39" y="488"/>
      <point x="300" y="694"/>
      <point x="504" y="694" type="qcurve" smooth="yes"/>
      <point x="637" y="694"/>
      <point x="721" y="653" type="qcurve"/>
      <point x="721" y="686" type="line" smooth="yes"/>
      <point x="721" y="762"/>
      <point x="632" y="836"/>
      <point x="535" y="836" type="qcurve" smooth="yes"/>
      <point x="448" y="836"/>
      <point x="292" y="779"/>
      <point x="201" y="719" type="qcurve"/>
      <point x="88" y="961" type="line"/>
      <point x="301" y="1098"/>
      <point x="573" y="1098" type="qcurve" smooth="yes"/>
      <point x="832" y="1098"/>
      <point x="1110" y="864"/>
      <point x="1110" y="639" type="qcurve" smooth="yes"/>
      <point x="1110" y="430" type="line" smooth="yes"/>
      <point x="1110" y="375"/>
      <point x="1142" y="331"/>
      <point x="1184" y="328" type="qcurve"/>
      <point x="1184" y="0" type="line"/>
      <point x="1094" y="-20"/>
      <point x="1020" y="-20" type="qcurve" smooth="yes"/>
      <point x="821" y="-20"/>
      <point x="791" y="129" type="qcurve"/>
      <point x="782" y="168" type="line"/>
      <point x="635" y="-20"/>
      <point x="416" y="-20" type="qcurve" smooth="yes"/>
      <point x="254" y="-20"/>
      <point x="39" y="177"/>
    </contour>
    <contour>
      <point x="670" y="299" type="qcurve" smooth="yes"/>
      <point x="721" y="332"/>
      <point x="721" y="375" type="qcurve" smooth="yes"/>
      <point x="721" y="455" type="line"/>
      <point x="642" y="483"/>
      <point x="571" y="483" type="qcurve" smooth="yes"/>
      <point x="501" y="483"/>
      <point x="406" y="413"/>
      <point x="406" y="360" type="qcurve" smooth="yes"/>
      <point x="406" y="316"/>
      <point x="477" y="258"/>
      <point x="532" y="258" type="qcurve" smooth="yes"/>
      <point x="609" y="258"/>
    </contour>
  </outline>
</glyph>
<glyph name="igrave" format="2">
  <advance width="585"/>
  <unicode hex="00EC"/>
  <anchor x="0" y="0" name="Anchor-11"/>
  <anchor x="0" y="0" name="Anchor-10"/>
  <anchor x="211" y="1495" name="Anchor-9"/>
  <anchor x="0" y="0" name="Anchor-8"/>
  <anchor x="0" y="0" name="Anchor-7"/>
  <outline>
    <contour>
      <point x="-14" y="1495" type="line"/>
      <point x="332" y="1495" type="line"/>
      <point x="434" y="1204" type="line"/>
      <point x="188" y="1139" type="line"/>
    </contour>
    <contour>
      <point x="98" y="0" type="line"/>
      <point x="98" y="1077" type="line"/>
      <point x="487" y="1077" type="line"/>
      <point x="487" y="0" type="line"/>
    </contour>
  </outline>
</glyph>
<glyph name="iacute" format="2">
  <advance width="585"/>
  <unicode hex="00ED"/>
  <anchor x="0" y="0" name="Anchor-11"/>
  <anchor x="0" y="0" name="Anchor-10"/>
  <anchor x="395" y="1495" name="Anchor-9"/>
  <anchor x="0" y="0" name="Anchor-8"/>
  <anchor x="0" y="0" name="Anchor-7"/>
  <outline>
    <contour>
      <point x="416" y="1139" type="line"/>
      <point x="170" y="1204" type="line"/>
      <point x="272" y="1495" type="line"/>
      <point x="618" y="1495" type="line"/>
    </contour>
    <contour>
      <point x="98" y="0" type="line"/>
      <point x="98" y="1077" type="line"/>
      <point x="487" y="1077" type="line"/>
      <point x="487" y="0" type="line"/>
    </contour>
  </outline>
</glyph>
<glyph name="icircumflex" format="2">
  <advance width="585"/>
  <unicode hex="00EE"/>
  <anchor x="0" y="0" name="Anchor-11"/>
  <anchor x="0" y="0" name="Anchor-10"/>
  <anchor x="293" y="1495" name="Anchor-9"/>
  <anchor x="0" y="0" name="Anchor-8"/>
  <anchor x="0" y="0" name="Anchor-7"/>
  <outline>
    <contour>
      <point x="-78" y="1260" type="line"/>
      <point x="154" y="1495" type="line"/>
      <point x="432" y="1495" type="line"/>
      <point x="664" y="1260" type="line"/>
      <point x="467" y="1174" type="line"/>
      <point x="293" y="1303" type="line"/>
      <point x="119" y="1174" type="line"/>
    </contour>
    <contour>
      <point x="98" y="0" type="line"/>
      <point x="98" y="1077" type="line"/>
      <point x="487" y="1077" type="line"/>
      <point x="487" y="0" type="line"/>
    </contour>
  </outline>
</glyph>
<glyph name="idieresis" format="2">
  <advance width="585"/>
  <unicode hex="00EF"/>
  <anchor x="0" y="0" name="Anchor-11"/>
  <anchor x="0" y="0" name="Anchor-10"/>
  <anchor x="293" y="1477" name="Anchor-9"/>
  <anchor x="0" y="0" name="Anchor-8"/>
  <anchor x="0" y="0" name="Anchor-7"/>
  <outline>
    <contour>
      <point x="-102" y="1190" type="line"/>
      <point x="-102" y="1477" type="line"/>
      <point x="217" y="1477" type="line"/>
      <point x="217" y="1190" type="line"/>
    </contour>
    <contour>
      <point x="369" y="1190" type="line"/>
      <point x="369" y="1477" type="line"/>
      <point x="688" y="1477" type="line"/>
      <point x="688" y="1190" type="line"/>
    </contour>
    <contour>
      <point x="98" y="0" type="line"/>
      <point x="98" y="1077" type="line"/>
      <point x="487" y="1077" type="line"/>
      <point x="487" y="0" type="line"/>
    </contour>
  </outline>
</glyph>
<glyph name="eth" format="2">
  <advance width="1271"/>
  <unicode hex="00F0"/>
  <outline>
    <contour>
      <point x="1001" y="1247" type="line"/>
      <point x="1106" y="1113"/>
      <point x="1225" y="772"/>
      <point x="1225" y="596" type="qcurve" smooth="yes"/>
      <point x="1225" y="308"/>
      <point x="911" y="-20"/>
      <point x="635" y="-20" type="qcurve" smooth="yes"/>
      <point x="464" y="-20"/>
      <point x="195" y="107"/>
      <point x="45" y="334"/>
      <point x="45" y="479" type="qcurve" smooth="yes"/>
      <point x="45" y="683"/>
      <point x="327" y="965"/>
      <point x="532" y="965" type="qcurve" smooth="yes"/>
      <point x="699" y="965"/>
      <point x="825" y="870" type="qcurve"/>
      <point x="787" y="1010"/>
      <point x="705" y="1122" type="qcurve"/>
      <point x="549" y="1044" type="line"/>
      <point x="442" y="1190" type="line"/>
      <point x="582" y="1260" type="line"/>
      <point x="445" y="1382"/>
      <point x="221" y="1495" type="qcurve"/>
      <point x="692" y="1495" type="line"/>
      <point x="784" y="1457"/>
      <point x="874" y="1380" type="qcurve"/>
      <point x="1022" y="1458" type="line"/>
      <point x="1128" y="1313" type="line"/>
    </contour>
    <contour>
      <point x="721" y="307"/>
      <point x="825" y="403"/>
      <point x="825" y="559"/>
      <point x="721" y="655"/>
      <point x="549" y="655"/>
      <point x="444" y="559"/>
      <point x="444" y="403"/>
      <point x="549" y="307"/>
    </contour>
  </outline>
</glyph>
<glyph name="ntilde" format="2">
  <advance width="1271"/>
  <unicode hex="00F1"/>
  <anchor x="0" y="0" name="Anchor-11"/>
  <anchor x="0" y="0" name="Anchor-10"/>
  <anchor x="682" y="1495" name="Anchor-9"/>
  <anchor x="0" y="0" name="Anchor-8"/>
  <anchor x="637" y="0" name="Anchor-7"/>
  <outline>
    <contour>
      <point x="549" y="1270" type="qcurve" smooth="yes"/>
      <point x="523" y="1270"/>
      <point x="485" y="1250"/>
      <point x="467" y="1224"/>
      <point x="457" y="1191"/>
      <point x="455" y="1176"/>
      <point x="455" y="1171" type="qcurve"/>
      <point x="248" y="1171" type="line"/>
      <point x="248" y="1195"/>
      <point x="267" y="1270"/>
      <point x="312" y="1362"/>
      <point x="374" y="1441"/>
      <point x="474" y="1495"/>
      <point x="532" y="1495" type="qcurve" smooth="yes"/>
      <point x="577" y="1495"/>
      <point x="659" y="1462"/>
      <point x="711" y="1424"/>
      <point x="778" y="1391"/>
      <point x="809" y="1391" type="qcurve" smooth="yes"/>
      <point x="834" y="1391"/>
      <point x="874" y="1412"/>
      <point x="894" y="1440"/>
      <point x="907" y="1472"/>
      <point x="911" y="1491"/>
      <point x="911" y="1495" type="qcurve"/>
      <point x="1116" y="1495" type="line"/>
      <point x="1116" y="1478"/>
      <point x="1096" y="1408"/>
      <point x="1050" y="1313"/>
      <point x="986" y="1230"/>
      <point x="882" y="1171"/>
      <point x="823" y="1171" type="qcurve" smooth="yes"/>
      <point x="781" y="1171"/>
      <point x="700" y="1202"/>
      <point x="647" y="1239"/>
      <point x="579" y="1270"/>
    </contour>
    <contour>
      <point x="1182" y="0" type="line"/>
      <point x="793" y="0" type="line"/>
      <point x="793" y="606" type="line" smooth="yes"/>
      <point x="793" y="681"/>
      <point x="725" y="758"/>
      <point x="623" y="758"/>
      <point x="513" y="670"/>
      <point x="487" y="604" type="qcurve"/>
      <point x="487" y="0" type="line"/>
      <point x="98" y="0" type="line"/>
      <point x="98" y="1077" type="line"/>
      <point x="449" y="1077" type="line"/>
      <point x="449" y="918" type="line"/>
      <point x="506" y="1006"/>
      <point x="714" y="1098"/>
      <point x="854" y="1098" type="qcurve" smooth="yes"/>
      <point x="924" y="1098"/>
      <point x="1035" y="1062"/>
      <point x="1104" y="997"/>
      <point x="1151" y="922"/>
      <point x="1174" y="827"/>
      <point x="1182" y="751"/>
      <point x="1182" y="709" type="qcurve" smooth="yes"/>
    </contour>
  </outline>
</glyph>
<glyph name="divide" format="2">
  <advance width="993"/>
  <unicode hex="00F7"/>
  <outline>
    <contour>
      <point x="336" y="891" type="line"/>
      <point x="336" y="1219" type="line"/>
      <point x="662" y="1219" type="line"/>
      <point x="662" y="891" type="line"/>
    </contour>
    <contour>
      <point x="84" y="481" type="line"/>
      <point x="84" y="788" type="line"/>
      <point x="911" y="788" type="line"/>
      <point x="911" y="481" type="line"/>
    </contour>
    <contour>
      <point x="336" y="55" type="line"/>
      <point x="336" y="383" type="line"/>
      <point x="662" y="383" type="line"/>
      <point x="662" y="55" type="line"/>
    </contour>
  </outline>
</glyph>
<glyph name="ugrave" format="2">
  <advance width="1306"/>
  <unicode hex="00F9"/>
  <anchor x="1190" y="930" name="Anchor-11"/>
  <anchor x="0" y="0" name="Anchor-10"/>
  <anchor x="549" y="1495" name="Anchor-9"/>
  <anchor x="1245" y="0" name="Anchor-8"/>
  <anchor x="635" y="0" name="Anchor-7"/>
  <outline>
    <contour>
      <point x="324" y="1495" type="line"/>
      <point x="670" y="1495" type="line"/>
      <point x="772" y="1204" type="line"/>
      <point x="526" y="1139" type="line"/>
    </contour>
    <contour>
      <point x="88" y="369" type="qcurve" smooth="yes"/>
      <point x="88" y="1077" type="line"/>
      <point x="477" y="1077" type="line"/>
      <point x="477" y="457" type="line" smooth="yes"/>
      <point x="477" y="387"/>
      <point x="540" y="307"/>
      <point x="596" y="307" type="qcurve" smooth="yes"/>
      <point x="706" y="307"/>
      <point x="782" y="418" type="qcurve"/>
      <point x="782" y="1077" type="line"/>
      <point x="1171" y="1077" type="line"/>
      <point x="1171" y="430" type="line" smooth="yes"/>
      <point x="1171" y="375"/>
      <point x="1203" y="331"/>
      <point x="1245" y="328" type="qcurve"/>
      <point x="1245" y="0" type="line"/>
      <point x="1145" y="-20"/>
      <point x="1081" y="-20" type="qcurve" smooth="yes"/>
      <point x="882" y="-20"/>
      <point x="852" y="129" type="qcurve" smooth="yes"/>
      <point x="844" y="168" type="line"/>
      <point x="703" y="-20"/>
      <point x="424" y="-20" type="qcurve" smooth="yes"/>
      <point x="261" y="-20"/>
      <point x="88" y="180"/>
    </contour>
  </outline>
</glyph>
<glyph name="yacute" format="2">
  <advance width="1136"/>
  <unicode hex="00FD"/>
  <anchor x="0" y="0" name="Anchor-11"/>
  <anchor x="0" y="0" name="Anchor-10"/>
  <anchor x="702" y="1495" name="Anchor-9"/>
  <anchor x="0" y="0" name="Anchor-8"/>
  <anchor x="1020" y="0" name="Anchor-7"/>
  <outline>
    <contour>
      <point x="723" y="1139" type="line"/>
      <point x="477" y="1204" type="line"/>
      <point x="580" y="1495" type="line"/>
      <point x="926" y="1495" type="line"/>
    </contour>
    <contour>
      <point x="90" y="-109" type="line"/>
      <point x="180" y="-143"/>
      <point x="250" y="-143" type="qcurve" smooth="yes"/>
      <point x="375" y="-143"/>
      <point x="387" y="0" type="qcurve"/>
      <point x="-4" y="1077" type="line"/>
      <point x="395" y="1077" type="line"/>
      <point x="600" y="399" type="line"/>
      <point x="766" y="1077" type="line"/>
      <point x="1128" y="1077" type="line"/>
      <point x="764" y="-129" type="line" smooth="yes"/>
      <point x="717" y="-287"/>
      <point x="457" y="-479"/>
      <point x="291" y="-479" type="qcurve" smooth="yes"/>
      <point x="185" y="-479"/>
      <point x="90" y="-440" type="qcurve"/>
    </contour>
  </outline>
</glyph>
<glyph name="thorn" format="2">
  <advance width="1226"/>
  <unicode hex="00FE"/>
  <outline>
    <contour>
      <point x="639" y="-63" type="qcurve" smooth="yes"/>
      <point x="593" y="-63"/>
      <point x="523" y="-46"/>
      <point x="498" y="-30"/>
      <point x="498" y="-27" type="qcurve"/>
      <point x="498" y="-436" type="line"/>
      <point x="98" y="-436" type="line"/>
      <point x="98" y="1454" type="line"/>
      <point x="498" y="1454" type="line"/>
      <point x="498" y="1075" type="line"/>
      <point x="502" y="1079"/>
      <point x="521" y="1092"/>
      <point x="601" y="1114"/>
      <point x="653" y="1114" type="qcurve" smooth="yes"/>
      <point x="748" y="1114"/>
      <point x="919" y="1046"/>
      <point x="1047" y="928"/>
      <point x="1142" y="777"/>
      <point x="1190" y="607"/>
      <point x="1190" y="522" type="qcurve" smooth="yes"/>
      <point x="1190" y="370"/>
      <point x="1040" y="100"/>
      <point x="784" y="-63"/>
    </contour>
    <contour>
      <point x="629" y="766" type="qcurve" smooth="yes"/>
      <point x="585" y="766"/>
      <point x="525" y="718"/>
      <point x="498" y="670" type="qcurve"/>
      <point x="498" y="367" type="line" smooth="yes"/>
      <point x="498" y="343"/>
      <point x="576" y="285"/>
      <point x="625" y="285" type="qcurve" smooth="yes"/>
      <point x="698" y="285"/>
      <point x="791" y="421"/>
      <point x="791" y="530" type="qcurve" smooth="yes"/>
      <point x="791" y="633"/>
      <point x="706" y="766"/>
    </contour>
  </outline>
</glyph>
<glyph name="Amacron" format="2">
  <advance width="1366"/>
  <unicode hex="0100"/>
  <anchor x="0" y="0" name="Anchor-11"/>
  <anchor x="0" y="0" name="Anchor-10"/>
  <anchor x="686" y="1851" name="Anchor-9"/>
  <anchor x="1370" y="0" name="Anchor-8"/>
  <anchor x="707" y="0" name="Anchor-7"/>
  <outline>
    <contour>
      <point x="369" y="1620" type="line"/>
      <point x="369" y="1851" type="line"/>
      <point x="1004" y="1851" type="line"/>
      <point x="1004" y="1620" type="line"/>
    </contour>
    <contour>
      <point x="461" y="1454" type="line"/>
      <point x="907" y="1454" type="line"/>
      <point x="1370" y="0" type="line"/>
      <point x="965" y="0" type="line"/>
      <point x="877" y="285" type="line"/>
      <point x="489" y="285" type="line"/>
      <point x="403" y="0" type="line"/>
      <point x="-4" y="0" type="line"/>
    </contour>
    <contour>
      <point x="813" y="551" type="line"/>
      <point x="684" y="1063" type="line"/>
      <point x="549" y="551" type="line"/>
    </contour>
  </outline>
</glyph>
<glyph name="Aogonek" format="2">
  <advance width="1366"/>
  <unicode hex="0104"/>
  <anchor x="0" y="0" name="Anchor-11"/>
  <anchor x="0" y="0" name="Anchor-10"/>
  <anchor x="684" y="1454" name="Anchor-9"/>
  <anchor x="1370" y="0" name="Anchor-8"/>
  <anchor x="707" y="0" name="Anchor-7"/>
  <outline>
    <contour>
      <point x="1223" y="-195"/>
      <point x="1295" y="-236"/>
      <point x="1366" y="-236" type="qcurve"/>
      <point x="1294" y="-440" type="line"/>
      <point x="1141" y="-422"/>
      <point x="983" y="-311"/>
      <point x="983" y="-236" type="qcurve" smooth="yes"/>
      <point x="983" y="-110"/>
      <point x="1133" y="0" type="qcurve"/>
      <point x="965" y="0" type="line"/>
      <point x="877" y="285" type="line"/>
      <point x="489" y="285" type="line"/>
      <point x="403" y="0" type="line"/>
      <point x="-4" y="0" type="line"/>
      <point x="461" y="1454" type="line"/>
      <point x="907" y="1454" type="line"/>
      <point x="1370" y="0" type="line"/>
      <point x="1300" y="-41"/>
      <point x="1223" y="-125"/>
    </contour>
    <contour>
      <point x="549" y="551" type="line"/>
      <point x="813" y="551" type="line"/>
      <point x="684" y="1063" type="line"/>
    </contour>
  </outline>
</glyph>
<glyph name="Ccircumflex" format="2">
  <advance width="1415"/>
  <unicode hex="0108"/>
  <anchor x="0" y="0" name="Anchor-11"/>
  <anchor x="0" y="0" name="Anchor-10"/>
  <anchor x="788" y="1872" name="Anchor-9"/>
  <anchor x="0" y="0" name="Anchor-8"/>
  <anchor x="776" y="0" name="Anchor-7"/>
  <outline>
    <contour>
      <point x="418" y="1636" type="line"/>
      <point x="649" y="1872" type="line"/>
      <point x="928" y="1872" type="line"/>
      <point x="1159" y="1636" type="line"/>
      <point x="963" y="1550" type="line"/>
      <point x="788" y="1679" type="line"/>
      <point x="614" y="1550" type="line"/>
    </contour>
    <contour>
      <point x="788" y="1462" type="qcurve" smooth="yes"/>
      <point x="993" y="1462"/>
      <point x="1307" y="1290"/>
      <point x="1384" y="1145" type="qcurve"/>
      <point x="1079" y="928" type="line"/>
      <point x="1059" y="979"/>
      <point x="991" y="1052"/>
      <point x="907" y="1091"/>
      <point x="824" y="1108"/>
      <point x="780" y="1108" type="qcurve" smooth="yes"/>
      <point x="698" y="1108"/>
      <point x="568" y="1041"/>
      <point x="491" y="930"/>
      <point x="451" y="798"/>
      <point x="451" y="727" type="qcurve" smooth="yes"/>
      <point x="451" y="568"/>
      <point x="633" y="342"/>
      <point x="784" y="342" type="qcurve" smooth="yes"/>
      <point x="843" y="342"/>
      <point x="951" y="375"/>
      <point x="1050" y="458"/>
      <point x="1073" y="520" type="qcurve"/>
      <point x="1399" y="326" type="line"/>
      <point x="1358" y="223"/>
      <point x="1153" y="65"/>
      <point x="903" y="-12"/>
      <point x="776" y="-12" type="qcurve" smooth="yes"/>
      <point x="620" y="-12"/>
      <point x="343" y="118"/>
      <point x="154" y="329"/>
      <point x="45" y="600"/>
      <point x="45" y="739" type="qcurve" smooth="yes"/>
      <point x="45" y="873"/>
      <point x="148" y="1130"/>
      <point x="333" y="1336"/>
      <point x="619" y="1462"/>
    </contour>
  </outline>
</glyph>
<glyph name="cdot" format="2">
  <advance width="1181"/>
  <unicode hex="010B"/>
  <anchor x="0" y="0" name="Anchor-11"/>
  <anchor x="0" y="0" name="Anchor-10"/>
  <anchor x="631" y="1495" name="Anchor-9"/>
  <anchor x="0" y="0" name="Anchor-8"/>
  <anchor x="631" y="0" name="Anchor-7"/>
  <outline>
    <contour>
      <point x="457" y="1188" type="line"/>
      <point x="457" y="1495" type="line"/>
      <point x="805" y="1495" type="line"/>
      <point x="805" y="1188" type="line"/>
    </contour>
    <contour>
      <point x="631" y="-20" type="qcurve" smooth="yes"/>
      <point x="492" y="-20"/>
      <point x="265" y="71"/>
      <point x="118" y="227"/>
      <point x="39" y="427"/>
      <point x="39" y="651"/>
      <point x="118" y="851"/>
      <point x="265" y="1007"/>
      <point x="492" y="1098"/>
      <point x="631" y="1098" type="qcurve" smooth="yes"/>
      <point x="819" y="1098"/>
      <point x="1088" y="940"/>
      <point x="1157" y="805" type="qcurve"/>
      <point x="778" y="690" type="line"/>
      <point x="723" y="770"/>
      <point x="629" y="770" type="qcurve" smooth="yes"/>
      <point x="547" y="770"/>
      <point x="438" y="645"/>
      <point x="438" y="433"/>
      <point x="547" y="307"/>
      <point x="629" y="307" type="qcurve" smooth="yes"/>
      <point x="723" y="307"/>
      <point x="778" y="387" type="qcurve"/>
      <point x="1157" y="272" type="line"/>
      <point x="1088" y="137"/>
      <point x="819" y="-20"/>
    </contour>
  </outline>
</glyph>
<glyph name="ccaron" format="2">
  <advance width="1181"/>
  <unicode hex="010D"/>
  <anchor x="0" y="0" name="Anchor-11"/>
  <anchor x="0" y="0" name="Anchor-10"/>
  <anchor x="631" y="1495" name="Anchor-9"/>
  <anchor x="0" y="0" name="Anchor-8"/>
  <anchor x="631" y="0" name="Anchor-7"/>
  <outline>
    <contour>
      <point x="457" y="1495" type="line"/>
      <point x="631" y="1366" type="line"/>
      <point x="805" y="1495" type="line"/>
      <point x="1001" y="1409" type="line"/>
      <point x="770" y="1174" type="line"/>
      <point x="492" y="1174" type="line"/>
      <point x="260" y="1409" type="line"/>
    </contour>
    <contour>
      <point x="631" y="-20" type="qcurve" smooth="yes"/>
      <point x="492" y="-20"/>
      <point x="265" y="71"/>
      <point x="118" y="227"/>
      <point x="39" y="427"/>
      <point x="39" y="651"/>
      <point x="118" y="851"/>
      <point x="265" y="1007"/>
      <point x="492" y="1098"/>
      <point x="631" y="1098" type="qcurve" smooth="yes"/>
      <point x="819" y="1098"/>
      <point x="1088" y="940"/>
      <point x="1157" y="805" type="qcurve"/>
      <point x="778" y="690" type="line"/>
      <point x="723" y="770"/>
      <point x="629" y="770" type="qcurve" smooth="yes"/>
      <point x="547" y="770"/>
      <point x="438" y="645"/>
      <point x="438" y="433"/>
      <point x="547" y="307"/>
      <point x="629" y="307" type="qcurve" smooth="yes"/>
      <point x="723" y="307"/>
      <point x="778" y="387" type="qcurve"/>
      <point x="1157" y="272" type="line"/>
      <point x="1088" y="137"/>
      <point x="819" y="-20"/>
    </contour>
  </outline>
</glyph>
<glyph name="Dcaron" format="2">
  <advance width="1466"/>
  <unicode hex="010E"/>
  <anchor x="0" y="0" name="Anchor-11"/>
  <anchor x="733" y="727" name="Anchor-10"/>
  <anchor x="649" y="1872" name="Anchor-9"/>
  <anchor x="0" y="0" name="Anchor-8"/>
  <anchor x="733" y="0" name="Anchor-7"/>
  <outline>
    <contour>
      <point x="475" y="1872" type="line"/>
      <point x="649" y="1743" type="line"/>
      <point x="823" y="1872" type="line"/>
      <point x="1020" y="1786" type="line"/>
      <point x="788" y="1550" type="line"/>
      <point x="510" y="1550" type="line"/>
      <point x="279" y="1786" type="line"/>
    </contour>
    <contour>
      <point x="125" y="0" type="line"/>
      <point x="125" y="1454" type="line"/>
      <point x="684" y="1454" type="line" smooth="yes"/>
      <point x="860" y="1454"/>
      <point x="1143" y="1341"/>
      <point x="1322" y="1142"/>
      <point x="1417" y="881"/>
      <point x="1417" y="729" type="qcurve" smooth="yes"/>
      <point x="1417" y="399"/>
      <point x="1016" y="0"/>
      <point x="684" y="0" type="qcurve" smooth="yes"/>
    </contour>
    <contour>
      <point x="684" y="1106" type="qcurve" smooth="yes"/>
      <point x="524" y="1106" type="line"/>
      <point x="524" y="348" type="line"/>
      <point x="684" y="348" type="line" smooth="yes"/>
      <point x="837" y="348"/>
      <point x="1012" y="560"/>
      <point x="1012" y="729" type="qcurve" smooth="yes"/>
      <point x="1012" y="900"/>
      <point x="836" y="1106"/>
    </contour>
  </outline>
</glyph>
<glyph name="Ebreve" format="2">
  <advance width="1222"/>
  <unicode hex="0114"/>
  <anchor x="0" y="0" name="Anchor-11"/>
  <anchor x="0" y="0" name="Anchor-10"/>
  <anchor x="647" y="1872" name="Anchor-9"/>
  <anchor x="1161" y="0" name="Anchor-8"/>
  <anchor x="647" y="0" name="Anchor-7"/>
  <outline>
    <contour>
      <point x="772" y="1872" type="qcurve"/>
      <point x="973" y="1872" type="line"/>
      <point x="973" y="1725"/>
      <point x="791" y="1540"/>
      <point x="503" y="1540"/>
      <point x="322" y="1725"/>
      <point x="322" y="1872" type="qcurve"/>
      <point x="522" y="1872" type="line"/>
      <point x="522" y="1804"/>
      <point x="596" y="1706"/>
      <point x="647" y="1706" type="qcurve" smooth="yes"/>
      <point x="694" y="1706"/>
      <point x="766" y="1800"/>
    </contour>
    <contour>
      <point x="1161" y="348" type="line"/>
      <point x="1161" y="0" type="line"/>
      <point x="125" y="0" type="line"/>
      <point x="125" y="1454" type="line"/>
      <point x="1143" y="1454" type="line"/>
      <point x="1143" y="1106" type="line"/>
      <point x="524" y="1106" type="line"/>
      <point x="524" y="901" type="line"/>
      <point x="1053" y="901" type="line"/>
      <point x="1053" y="578" type="line"/>
      <point x="524" y="578" type="line"/>
      <point x="524" y="348" type="line"/>
    </contour>
  </outline>
</glyph>
<glyph name="ebreve" format="2">
  <advance width="1247"/>
  <unicode hex="0115"/>
  <anchor x="0" y="0" name="Anchor-11"/>
  <anchor x="0" y="0" name="Anchor-10"/>
  <anchor x="629" y="1495" name="Anchor-9"/>
  <anchor x="801" y="0" name="Anchor-8"/>
  <anchor x="629" y="0" name="Anchor-7"/>
  <outline>
    <contour>
      <point x="754" y="1495" type="qcurve"/>
      <point x="954" y="1495" type="line"/>
      <point x="954" y="1348"/>
      <point x="773" y="1163"/>
      <point x="485" y="1163"/>
      <point x="303" y="1348"/>
      <point x="303" y="1495" type="qcurve"/>
      <point x="504" y="1495" type="line"/>
      <point x="504" y="1427"/>
      <point x="578" y="1329"/>
      <point x="629" y="1329" type="qcurve" smooth="yes"/>
      <point x="676" y="1329"/>
      <point x="748" y="1423"/>
    </contour>
    <contour>
      <point x="629" y="-20" type="qcurve" smooth="yes"/>
      <point x="518" y="-20"/>
      <point x="327" y="38"/>
      <point x="188" y="139"/>
      <point x="88" y="276"/>
      <point x="39" y="437"/>
      <point x="39" y="524" type="qcurve" smooth="yes"/>
      <point x="39" y="642"/>
      <point x="116" y="848"/>
      <point x="262" y="1006"/>
      <point x="489" y="1098"/>
      <point x="769" y="1098"/>
      <point x="997" y="1007"/>
      <point x="1141" y="852"/>
      <point x="1219" y="652"/>
      <point x="1219" y="539" type="qcurve" smooth="yes"/>
      <point x="1219" y="480"/>
      <point x="1208" y="420" type="qcurve"/>
      <point x="453" y="420" type="line"/>
      <point x="459" y="339"/>
      <point x="567" y="258"/>
      <point x="641" y="258" type="qcurve" smooth="yes"/>
      <point x="706" y="258"/>
      <point x="818" y="318"/>
      <point x="836" y="367" type="qcurve"/>
      <point x="1165" y="272" type="line"/>
      <point x="1096" y="138"/>
      <point x="819" y="-20"/>
    </contour>
    <contour>
      <point x="444" y="653" type="qcurve"/>
      <point x="801" y="653" type="line"/>
      <point x="792" y="731"/>
      <point x="697" y="821"/>
      <point x="549" y="821"/>
      <point x="453" y="731"/>
    </contour>
  </outline>
</glyph>
<glyph name="edot" format="2">
  <advance width="1247"/>
  <unicode hex="0117"/>
  <anchor x="0" y="0" name="Anchor-11"/>
  <anchor x="0" y="0" name="Anchor-10"/>
  <anchor x="629" y="1495" name="Anchor-9"/>
  <anchor x="801" y="0" name="Anchor-8"/>
  <anchor x="629" y="0" name="Anchor-7"/>
  <outline>
    <contour>
      <point x="455" y="1188" type="line"/>
      <point x="455" y="1495" type="line"/>
      <point x="803" y="1495" type="line"/>
      <point x="803" y="1188" type="line"/>
    </contour>
    <contour>
      <point x="629" y="-20" type="qcurve" smooth="yes"/>
      <point x="518" y="-20"/>
      <point x="327" y="38"/>
      <point x="188" y="139"/>
      <point x="88" y="276"/>
      <point x="39" y="437"/>
      <point x="39" y="524" type="qcurve" smooth="yes"/>
      <point x="39" y="642"/>
      <point x="116" y="848"/>
      <point x="262" y="1006"/>
      <point x="489" y="1098"/>
      <point x="769" y="1098"/>
      <point x="997" y="1007"/>
      <point x="1141" y="852"/>
      <point x="1219" y="652"/>
      <point x="1219" y="539" type="qcurve" smooth="yes"/>
      <point x="1219" y="480"/>
      <point x="1208" y="420" type="qcurve"/>
      <point x="453" y="420" type="line"/>
      <point x="459" y="339"/>
      <point x="567" y="258"/>
      <point x="641" y="258" type="qcurve" smooth="yes"/>
      <point x="706" y="258"/>
      <point x="818" y="318"/>
      <point x="836" y="367" type="qcurve"/>
      <point x="1165" y="272" type="line"/>
      <point x="1096" y="138"/>
      <point x="819" y="-20"/>
    </contour>
    <contour>
      <point x="444" y="653" type="qcurve"/>
      <point x="801" y="653" type="line"/>
      <point x="792" y="731"/>
      <point x="697" y="821"/>
      <point x="549" y="821"/>
      <point x="453" y="731"/>
    </contour>
  </outline>
</glyph>
<glyph name="Eogonek" format="2">
  <advance width="1222"/>
  <unicode hex="0118"/>
  <anchor x="0" y="0" name="Anchor-11"/>
  <anchor x="0" y="0" name="Anchor-10"/>
  <anchor x="647" y="1454" name="Anchor-9"/>
  <anchor x="1161" y="0" name="Anchor-8"/>
  <anchor x="647" y="0" name="Anchor-7"/>
  <outline>
    <contour>
      <point x="1161" y="0" type="line"/>
      <point x="1091" y="-41"/>
      <point x="1014" y="-125"/>
      <point x="1014" y="-195"/>
      <point x="1086" y="-236"/>
      <point x="1157" y="-236" type="qcurve"/>
      <point x="1085" y="-440" type="line"/>
      <point x="932" y="-422"/>
      <point x="774" y="-311"/>
      <point x="774" y="-236" type="qcurve" smooth="yes"/>
      <point x="774" y="-110"/>
      <point x="924" y="0" type="qcurve"/>
      <point x="125" y="0" type="line"/>
      <point x="125" y="1454" type="line"/>
      <point x="1143" y="1454" type="line"/>
      <point x="1143" y="1106" type="line"/>
      <point x="524" y="1106" type="line"/>
      <point x="524" y="901" type="line"/>
      <point x="1053" y="901" type="line"/>
      <point x="1053" y="578" type="line"/>
      <point x="524" y="578" type="line"/>
      <point x="524" y="348" type="line"/>
      <point x="1161" y="348" type="line"/>
    </contour>
  </outline>
</glyph>
<glyph name="eogonek" format="2">
  <advance width="1247"/>
  <unicode hex="0119"/>
  <anchor x="0" y="0" name="Anchor-11"/>
  <anchor x="0" y="0" name="Anchor-10"/>
  <anchor x="629" y="1077" name="Anchor-9"/>
  <anchor x="801" y="0" name="Anchor-8"/>
  <anchor x="629" y="0" name="Anchor-7"/>
  <outline>
    <contour>
      <point x="1219" y="539" type="qcurve" smooth="yes"/>
      <point x="1219" y="480"/>
      <point x="1208" y="420" type="qcurve"/>
      <point x="453" y="420" type="line"/>
      <point x="459" y="339"/>
      <point x="567" y="258"/>
      <point x="641" y="258" type="qcurve" smooth="yes"/>
      <point x="706" y="258"/>
      <point x="818" y="318"/>
      <point x="836" y="367" type="qcurve"/>
      <point x="1165" y="272" type="line"/>
      <point x="1113" y="170"/>
      <point x="925" y="27"/>
      <point x="797" y="-2" type="qcurve"/>
      <point x="653" y="-88"/>
      <point x="653" y="-160" type="qcurve" smooth="yes"/>
      <point x="653" y="-195"/>
      <point x="726" y="-236"/>
      <point x="797" y="-236" type="qcurve"/>
      <point x="725" y="-440" type="line"/>
      <point x="572" y="-422"/>
      <point x="414" y="-311"/>
      <point x="414" y="-236" type="qcurve" smooth="yes"/>
      <point x="414" y="-118"/>
      <point x="543" y="-16" type="qcurve"/>
      <point x="307" y="11"/>
      <point x="39" y="316"/>
      <point x="39" y="524" type="qcurve" smooth="yes"/>
      <point x="39" y="642"/>
      <point x="116" y="848"/>
      <point x="262" y="1006"/>
      <point x="489" y="1098"/>
      <point x="769" y="1098"/>
      <point x="997" y="1007"/>
      <point x="1141" y="852"/>
      <point x="1219" y="652"/>
    </contour>
    <contour>
      <point x="444" y="653" type="qcurve"/>
      <point x="801" y="653" type="line"/>
      <point x="792" y="731"/>
      <point x="697" y="821"/>
      <point x="549" y="821"/>
      <point x="453" y="731"/>
    </contour>
  </outline>
</glyph>
<glyph name="Gdot" format="2">
  <advance width="1513"/>
  <unicode hex="0120"/>
  <anchor x="0" y="0" name="Anchor-11"/>
  <anchor x="0" y="0" name="Anchor-10"/>
  <anchor x="793" y="1872" name="Anchor-9"/>
  <anchor x="0" y="0" name="Anchor-8"/>
  <anchor x="754" y="0" name="Anchor-7"/>
  <outline>
    <contour>
      <point x="967" y="1872" type="line"/>
      <point x="967" y="1565" type="line"/>
      <point x="618" y="1565" type="line"/>
      <point x="618" y="1872" type="line"/>
    </contour>
    <contour>
      <point x="844" y="774" type="line"/>
      <point x="1442" y="774" type="line"/>
      <point x="1442" y="0" type="line"/>
      <point x="1112" y="0" type="line"/>
      <point x="1112" y="121" type="line"/>
      <point x="958" y="-10"/>
      <point x="754" y="-10" type="qcurve" smooth="yes"/>
      <point x="611" y="-10"/>
      <point x="356" y="93"/>
      <point x="161" y="280"/>
      <point x="47" y="566"/>
      <point x="47" y="739" type="qcurve" smooth="yes"/>
      <point x="47" y="890"/>
      <point x="163" y="1158"/>
      <point x="361" y="1351"/>
      <point x="638" y="1464"/>
      <point x="793" y="1464" type="qcurve" smooth="yes"/>
      <point x="990" y="1464"/>
      <point x="1308" y="1294"/>
      <point x="1386" y="1147" type="qcurve"/>
      <point x="1090" y="920" type="line"/>
      <point x="1048" y="1006"/>
      <point x="874" y="1110"/>
      <point x="778" y="1110" type="qcurve" smooth="yes"/>
      <point x="636" y="1110"/>
      <point x="453" y="894"/>
      <point x="453" y="725" type="qcurve" smooth="yes"/>
      <point x="453" y="554"/>
      <point x="638" y="344"/>
      <point x="788" y="344" type="qcurve" smooth="yes"/>
      <point x="959" y="344"/>
      <point x="1096" y="487" type="qcurve"/>
      <point x="844" y="487" type="line"/>
    </contour>
  </outline>
</glyph>
<glyph name="gcedilla" format="2">
  <advance width="1325"/>
  <unicode hex="0123"/>
  <anchor x="0" y="0" name="Anchor-11"/>
  <anchor x="0" y="0" name="Anchor-10"/>
  <anchor x="668" y="1495" name="Anchor-9"/>
  <anchor x="0" y="0" name="Anchor-8"/>
  <anchor x="0" y="0" name="Anchor-7"/>
  <outline>
    <contour>
      <point x="784" y="1495" type="line"/>
      <point x="711" y="1374" type="line"/>
      <point x="827" y="1374" type="line"/>
      <point x="827" y="1178" type="line"/>
      <point x="506" y="1178" type="line"/>
      <point x="506" y="1374" type="line"/>
      <point x="616" y="1495" type="line"/>
    </contour>
    <contour>
      <point x="43" y="541" type="qcurve" smooth="yes"/>
      <point x="43" y="783"/>
      <point x="325" y="1098"/>
      <point x="545" y="1098" type="qcurve" smooth="yes"/>
      <point x="661" y="1098"/>
      <point x="838" y="1006"/>
      <point x="889" y="918" type="qcurve"/>
      <point x="889" y="1077" type="line"/>
      <point x="1227" y="1077" type="line"/>
      <point x="1227" y="98" type="line" smooth="yes"/>
      <point x="1227" y="-153"/>
      <point x="866" y="-457"/>
      <point x="571" y="-457" type="qcurve" smooth="yes"/>
      <point x="251" y="-457"/>
      <point x="47" y="-250" type="qcurve"/>
      <point x="252" y="-37" type="line"/>
      <point x="314" y="-96"/>
      <point x="481" y="-168"/>
      <point x="571" y="-168" type="qcurve" smooth="yes"/>
      <point x="687" y="-168"/>
      <point x="838" y="-38"/>
      <point x="838" y="98" type="qcurve" smooth="yes"/>
      <point x="838" y="168" type="line"/>
      <point x="794" y="86"/>
      <point x="619" y="0"/>
      <point x="512" y="0" type="qcurve" smooth="yes"/>
      <point x="374" y="0"/>
      <point x="159" y="143"/>
      <point x="43" y="389"/>
    </contour>
    <contour>
      <point x="838" y="418" type="qcurve"/>
      <point x="838" y="610" type="line"/>
      <point x="809" y="683"/>
      <point x="697" y="770"/>
      <point x="635" y="770" type="qcurve" smooth="yes"/>
      <point x="553" y="770"/>
      <point x="440" y="629"/>
      <point x="440" y="431"/>
      <point x="558" y="307"/>
      <point x="651" y="307" type="qcurve" smooth="yes"/>
      <point x="762" y="307"/>
    </contour>
  </outline>
</glyph>
<glyph name="Hcircumflex" format="2">
  <advance width="1536"/>
  <unicode hex="0124"/>
  <anchor x="0" y="0" name="Anchor-11"/>
  <anchor x="768" y="727" name="Anchor-10"/>
  <anchor x="774" y="1870" name="Anchor-9"/>
  <anchor x="0" y="0" name="Anchor-8"/>
  <anchor x="768" y="0" name="Anchor-7"/>
  <outline>
    <contour>
      <point x="403" y="1634" type="line"/>
      <point x="635" y="1870" type="line"/>
      <point x="913" y="1870" type="line"/>
      <point x="1145" y="1634" type="line"/>
      <point x="948" y="1548" type="line"/>
      <point x="774" y="1677" type="line"/>
      <point x="600" y="1548" type="line"/>
    </contour>
    <contour>
      <point x="1411" y="1454" type="line"/>
      <point x="1411" y="0" type="line"/>
      <point x="1012" y="0" type="line"/>
      <point x="1012" y="569" type="line"/>
      <point x="524" y="569" type="line"/>
      <point x="524" y="0" type="line"/>
      <point x="125" y="0" type="line"/>
      <point x="125" y="1454" type="line"/>
      <point x="524" y="1454" type="line"/>
      <point x="524" y="918" type="line"/>
      <point x="1012" y="918" type="line"/>
      <point x="1012" y="1454" type="line"/>
    </contour>
  </outline>
</glyph>
<glyph name="Hbar" format="2">
  <advance width="1548"/>
  <unicode hex="0126"/>
  <anchor x="0" y="0" name="Anchor-11"/>
  <anchor x="774" y="727" name="Anchor-10"/>
  <anchor x="780" y="1452" name="Anchor-9"/>
  <anchor x="0" y="0" name="Anchor-8"/>
  <anchor x="774" y="0" name="Anchor-7"/>
  <outline>
    <contour>
      <point x="1520" y="1282" type="line"/>
      <point x="1520" y="1102" type="line"/>
      <point x="1417" y="1102" type="line"/>
      <point x="1417" y="0" type="line"/>
      <point x="1018" y="0" type="line"/>
      <point x="1018" y="569" type="line"/>
      <point x="530" y="569" type="line"/>
      <point x="530" y="0" type="line"/>
      <point x="131" y="0" type="line"/>
      <point x="131" y="1102" type="line"/>
      <point x="29" y="1102" type="line"/>
      <point x="29" y="1282" type="line"/>
      <point x="131" y="1282" type="line"/>
      <point x="131" y="1454" type="line"/>
      <point x="530" y="1454" type="line"/>
      <point x="530" y="1282" type="line"/>
      <point x="1018" y="1282" type="line"/>
      <point x="1018" y="1454" type="line"/>
      <point x="1417" y="1454" type="line"/>
      <point x="1417" y="1282" type="line"/>
    </contour>
    <contour>
      <point x="1018" y="918" type="line"/>
      <point x="1018" y="1102" type="line"/>
      <point x="530" y="1102" type="line"/>
      <point x="530" y="918" type="line"/>
    </contour>
  </outline>
</glyph>
<glyph name="Itilde" format="2">
  <advance width="649"/>
  <unicode hex="0128"/>
  <anchor x="0" y="0" name="Anchor-11"/>
  <anchor x="0" y="0" name="Anchor-10"/>
  <anchor x="324" y="1872" name="Anchor-9"/>
  <anchor x="524" y="0" name="Anchor-8"/>
  <anchor x="324" y="0" name="Anchor-7"/>
  <outline>
    <contour>
      <point x="190" y="1647" type="qcurve" smooth="yes"/>
      <point x="164" y="1647"/>
      <point x="126" y="1627"/>
      <point x="108" y="1601"/>
      <point x="98" y="1568"/>
      <point x="96" y="1553"/>
      <point x="96" y="1548" type="qcurve"/>
      <point x="-111" y="1548" type="line"/>
      <point x="-111" y="1572"/>
      <point x="-92" y="1647"/>
      <point x="-47" y="1739"/>
      <point x="16" y="1818"/>
      <point x="116" y="1872"/>
      <point x="174" y="1872" type="qcurve" smooth="yes"/>
      <point x="219" y="1872"/>
      <point x="301" y="1839"/>
      <point x="353" y="1800"/>
      <point x="420" y="1767"/>
      <point x="451" y="1767" type="qcurve" smooth="yes"/>
      <point x="476" y="1767"/>
      <point x="516" y="1788"/>
      <point x="536" y="1816"/>
      <point x="549" y="1849"/>
      <point x="553" y="1868"/>
      <point x="553" y="1872" type="qcurve"/>
      <point x="758" y="1872" type="line"/>
      <point x="758" y="1855"/>
      <point x="738" y="1785"/>
      <point x="692" y="1690"/>
      <point x="628" y="1607"/>
      <point x="524" y="1548"/>
      <point x="465" y="1548" type="qcurve" smooth="yes"/>
      <point x="412" y="1548"/>
      <point x="313" y="1598"/>
      <point x="227" y="1647"/>
    </contour>
    <contour>
      <point x="125" y="0" type="line"/>
      <point x="125" y="1454" type="line"/>
      <point x="524" y="1454" type="line"/>
      <point x="524" y="0" type="line"/>
    </contour>
  </outline>
</glyph>
<glyph name="itilde" format="2">
  <advance width="585"/>
  <unicode hex="0129"/>
  <anchor x="0" y="0" name="Anchor-11"/>
  <anchor x="0" y="0" name="Anchor-10"/>
  <anchor x="293" y="1495" name="Anchor-9"/>
  <anchor x="0" y="0" name="Anchor-8"/>
  <anchor x="0" y="0" name="Anchor-7"/>
  <outline>
    <contour>
      <point x="160" y="1270" type="qcurve" smooth="yes"/>
      <point x="134" y="1270"/>
      <point x="96" y="1250"/>
      <point x="78" y="1224"/>
      <point x="68" y="1191"/>
      <point x="66" y="1176"/>
      <point x="66" y="1171" type="qcurve"/>
      <point x="-141" y="1171" type="line"/>
      <point x="-141" y="1195"/>
      <point x="-122" y="1270"/>
      <point x="-77" y="1362"/>
      <point x="-15" y="1441"/>
      <point x="85" y="1495"/>
      <point x="143" y="1495" type="qcurve" smooth="yes"/>
      <point x="188" y="1495"/>
      <point x="270" y="1462"/>
      <point x="322" y="1424"/>
      <point x="389" y="1391"/>
      <point x="420" y="1391" type="qcurve" smooth="yes"/>
      <point x="445" y="1391"/>
      <point x="485" y="1412"/>
      <point x="505" y="1440"/>
      <point x="518" y="1472"/>
      <point x="522" y="1491"/>
      <point x="522" y="1495" type="qcurve"/>
      <point x="727" y="1495" type="line"/>
      <point x="727" y="1478"/>
      <point x="707" y="1408"/>
      <point x="661" y="1313"/>
      <point x="597" y="1230"/>
      <point x="493" y="1171"/>
      <point x="434" y="1171" type="qcurve" smooth="yes"/>
      <point x="392" y="1171"/>
      <point x="311" y="1202"/>
      <point x="258" y="1239"/>
      <point x="190" y="1270"/>
    </contour>
    <contour>
      <point x="98" y="0" type="line"/>
      <point x="98" y="1077" type="line"/>
      <point x="487" y="1077" type="line"/>
      <point x="487" y="0" type="line"/>
    </contour>
  </outline>
</glyph>
<glyph name="Imacron" format="2">
  <advance width="649"/>
  <unicode hex="012A"/>
  <anchor x="0" y="0" name="Anchor-11"/>
  <anchor x="0" y="0" name="Anchor-10"/>
  <anchor x="326" y="1851" name="Anchor-9"/>
  <anchor x="524" y="0" name="Anchor-8"/>
  <anchor x="324" y="0" name="Anchor-7"/>
  <outline>
    <contour>
      <point x="8" y="1620" type="line"/>
      <point x="8" y="1851" type="line"/>
      <point x="643" y="1851" type="line"/>
      <point x="643" y="1620" type="line"/>
    </contour>
    <contour>
      <point x="125" y="0" type="line"/>
      <point x="125" y="1454" type="line"/>
      <point x="524" y="1454" type="line"/>
      <point x="524" y="0" type="line"/>
    </contour>
  </outline>
</glyph>
<glyph name="imacron" format="2">
  <advance width="585"/>
  <unicode hex="012B"/>
  <anchor x="0" y="0" name="Anchor-11"/>
  <anchor x="0" y="0" name="Anchor-10"/>
  <anchor x="295" y="1475" name="Anchor-9"/>
  <anchor x="0" y="0" name="Anchor-8"/>
  <anchor x="0" y="0" name="Anchor-7"/>
  <outline>
    <contour>
      <point x="-23" y="1243" type="line"/>
      <point x="-23" y="1475" type="line"/>
      <point x="612" y="1475" type="line"/>
      <point x="612" y="1243" type="line"/>
    </contour>
    <contour>
      <point x="98" y="0" type="line"/>
      <point x="98" y="1077" type="line"/>
      <point x="487" y="1077" type="line"/>
      <point x="487" y="0" type="line"/>
    </contour>
  </outline>
</glyph>
<glyph name="Ibreve" format="2">
  <advance width="649"/>
  <unicode hex="012C"/>
  <anchor x="0" y="0" name="Anchor-11"/>
  <anchor x="0" y="0" name="Anchor-10"/>
  <anchor x="324" y="1872" name="Anchor-9"/>
  <anchor x="524" y="0" name="Anchor-8"/>
  <anchor x="324" y="0" name="Anchor-7"/>
  <outline>
    <contour>
      <point x="449" y="1872" type="qcurve"/>
      <point x="649" y="1872" type="line"/>
      <point x="649" y="1725"/>
      <point x="468" y="1540"/>
      <point x="180" y="1540"/>
      <point x="-2" y="1725"/>
      <point x="-2" y="1872" type="qcurve"/>
      <point x="199" y="1872" type="line"/>
      <point x="199" y="1804"/>
      <point x="273" y="1706"/>
      <point x="324" y="1706" type="qcurve" smooth="yes"/>
      <point x="371" y="1706"/>
      <point x="443" y="1800"/>
    </contour>
    <contour>
      <point x="125" y="0" type="line"/>
      <point x="125" y="1454" type="line"/>
      <point x="524" y="1454" type="line"/>
      <point x="524" y="0" type="line"/>
    </contour>
  </outline>
</glyph>
<glyph name="Iogonek" format="2">
  <advance width="649"/>
  <unicode hex="012E"/>
  <anchor x="0" y="0" name="Anchor-11"/>
  <anchor x="0" y="0" name="Anchor-10"/>
  <anchor x="324" y="1454" name="Anchor-9"/>
  <anchor x="524" y="0" name="Anchor-8"/>
  <anchor x="324" y="0" name="Anchor-7"/>
  <outline>
    <contour>
      <point x="524" y="0" type="line"/>
      <point x="454" y="-41"/>
      <point x="377" y="-125"/>
      <point x="377" y="-195"/>
      <point x="449" y="-236"/>
      <point x="520" y="-236" type="qcurve"/>
      <point x="449" y="-440" type="line"/>
      <point x="296" y="-422"/>
      <point x="137" y="-311"/>
      <point x="137" y="-236" type="qcurve" smooth="yes"/>
      <point x="137" y="-110"/>
      <point x="287" y="0" type="qcurve"/>
      <point x="125" y="0" type="line"/>
      <point x="125" y="1454" type="line"/>
      <point x="524" y="1454" type="line"/>
    </contour>
  </outline>
</glyph>
<glyph name="iogonek" format="2">
  <advance width="585"/>
  <unicode hex="012F"/>
  <anchor x="0" y="0" name="Anchor-11"/>
  <anchor x="0" y="0" name="Anchor-10"/>
  <anchor x="0" y="0" name="Anchor-9"/>
  <anchor x="487" y="0" name="Anchor-8"/>
  <anchor x="293" y="0" name="Anchor-7"/>
  <outline>
    <contour>
      <point x="98" y="1495" type="line"/>
      <point x="487" y="1495" type="line"/>
      <point x="487" y="1167" type="line"/>
      <point x="98" y="1167" type="line"/>
    </contour>
    <contour>
      <point x="98" y="0" type="line"/>
      <point x="98" y="1077" type="line"/>
      <point x="487" y="1077" type="line"/>
      <point x="487" y="0" type="line"/>
      <point x="417" y="-41"/>
      <point x="340" y="-125"/>
      <point x="340" y="-195"/>
      <point x="412" y="-236"/>
      <point x="483" y="-236" type="qcurve"/>
      <point x="412" y="-440" type="line"/>
      <point x="259" y="-422"/>
      <point x="100" y="-311"/>
      <point x="100" y="-236" type="qcurve" smooth="yes"/>
      <point x="100" y="-110"/>
      <point x="250" y="0" type="qcurve"/>
    </contour>
  </outline>
</glyph>
<glyph name="Idotaccent" format="2">
  <advance width="649"/>
  <unicode hex="0130"/>
  <anchor x="0" y="0" name="Anchor-11"/>
  <anchor x="0" y="0" name="Anchor-10"/>
  <anchor x="324" y="1872" name="Anchor-9"/>
  <anchor x="524" y="0" name="Anchor-8"/>
  <anchor x="324" y="0" name="Anchor-7"/>
  <outline>
    <contour>
      <point x="150" y="1565" type="line"/>
      <point x="150" y="1872" type="line"/>
      <point x="498" y="1872" type="line"/>
      <point x="498" y="1565" type="line"/>
    </contour>
    <contour>
      <point x="125" y="0" type="line"/>
      <point x="125" y="1454" type="line"/>
      <point x="524" y="1454" type="line"/>
      <point x="524" y="0" type="line"/>
    </contour>
  </outline>
</glyph>
<glyph name="dotlessi" format="2">
  <advance width="585"/>
  <unicode hex="0131"/>
  <anchor x="0" y="0" name="Anchor-11"/>
  <anchor x="0" y="0" name="Anchor-10"/>
  <anchor x="293" y="1077" name="Anchor-9"/>
  <anchor x="0" y="0" name="Anchor-8"/>
  <anchor x="0" y="0" name="Anchor-7"/>
  <outline>
    <contour>
      <point x="98" y="0" type="line"/>
      <point x="98" y="1077" type="line"/>
      <point x="487" y="1077" type="line"/>
      <point x="487" y="0" type="line"/>
    </contour>
  </outline>
</glyph>
<glyph name="Jcircumflex" format="2">
  <advance width="1019"/>
  <unicode hex="0134"/>
  <anchor x="0" y="0" name="Anchor-11"/>
  <anchor x="0" y="0" name="Anchor-10"/>
  <anchor x="717" y="1872" name="Anchor-9"/>
  <anchor x="0" y="0" name="Anchor-8"/>
  <anchor x="0" y="0" name="Anchor-7"/>
  <outline>
    <contour>
      <point x="346" y="1636" type="line"/>
      <point x="578" y="1872" type="line"/>
      <point x="856" y="1872" type="line"/>
      <point x="1087" y="1636" type="line"/>
      <point x="891" y="1550" type="line"/>
      <point x="717" y="1679" type="line"/>
      <point x="543" y="1550" type="line"/>
    </contour>
    <contour>
      <point x="86" y="393" type="line"/>
      <point x="108" y="377"/>
      <point x="241" y="332"/>
      <point x="317" y="332" type="qcurve" smooth="yes"/>
      <point x="368" y="332"/>
      <point x="437" y="360"/>
      <point x="481" y="413"/>
      <point x="504" y="511"/>
      <point x="512" y="626"/>
      <point x="512" y="715" type="qcurve" smooth="yes"/>
      <point x="512" y="1454" type="line"/>
      <point x="911" y="1454" type="line"/>
      <point x="911" y="715" type="line" smooth="yes"/>
      <point x="911" y="612"/>
      <point x="901" y="457"/>
      <point x="870" y="295"/>
      <point x="817" y="181"/>
      <point x="728" y="77"/>
      <point x="604" y="14"/>
      <point x="428" y="-23"/>
      <point x="317" y="-23" type="qcurve" smooth="yes"/>
      <point x="135" y="-23"/>
      <point x="2" y="68" type="qcurve"/>
    </contour>
  </outline>
</glyph>
<glyph name="jcircumflex" format="2">
  <advance width="585"/>
  <unicode hex="0135"/>
  <anchor x="0" y="0" name="Anchor-11"/>
  <anchor x="0" y="0" name="Anchor-10"/>
  <anchor x="293" y="1495" name="Anchor-9"/>
  <anchor x="0" y="0" name="Anchor-8"/>
  <anchor x="0" y="0" name="Anchor-7"/>
  <outline>
    <contour>
      <point x="-78" y="1260" type="line"/>
      <point x="154" y="1495" type="line"/>
      <point x="432" y="1495" type="line"/>
      <point x="664" y="1260" type="line"/>
      <point x="467" y="1174" type="line"/>
      <point x="293" y="1303" type="line"/>
      <point x="119" y="1174" type="line"/>
    </contour>
    <contour>
      <point x="-240" y="-317" type="qcurve"/>
      <point x="-80" y="-53" type="line"/>
      <point x="-42" y="-94"/>
      <point x="16" y="-94" type="qcurve" smooth="yes"/>
      <point x="54" y="-94"/>
      <point x="98" y="-47"/>
      <point x="98" y="-6" type="qcurve" smooth="yes"/>
      <point x="98" y="1077" type="line"/>
      <point x="487" y="1077" type="line"/>
      <point x="487" y="25" type="line" smooth="yes"/>
      <point x="487" y="-176"/>
      <point x="252" y="-428"/>
      <point x="66" y="-428" type="qcurve" smooth="yes"/>
      <point x="-110" y="-428"/>
    </contour>
  </outline>
</glyph>
<glyph name="Kcedilla" format="2">
  <advance width="1413"/>
  <unicode hex="0136"/>
  <anchor x="0" y="0" name="Anchor-11"/>
  <anchor x="0" y="0" name="Anchor-10"/>
  <anchor x="0" y="0" name="Anchor-9"/>
  <anchor x="0" y="0" name="Anchor-8"/>
  <anchor x="758" y="0" name="Anchor-7"/>
  <outline>
    <contour>
      <point x="125" y="0" type="line"/>
      <point x="125" y="1454" type="line"/>
      <point x="524" y="1454" type="line"/>
      <point x="524" y="901" type="line"/>
      <point x="967" y="1454" type="line"/>
      <point x="1417" y="1454" type="line"/>
      <point x="889" y="803" type="line"/>
      <point x="1454" y="0" type="line"/>
      <point x="995" y="0" type="line"/>
      <point x="635" y="535" type="line"/>
      <point x="524" y="420" type="line"/>
      <point x="524" y="0" type="line"/>
    </contour>
    <contour>
      <point x="633" y="-436" type="line"/>
      <point x="707" y="-311" type="line"/>
      <point x="590" y="-311" type="line"/>
      <point x="590" y="-94" type="line"/>
      <point x="911" y="-94" type="line"/>
      <point x="911" y="-311" type="line"/>
      <point x="801" y="-436" type="line"/>
    </contour>
  </outline>
</glyph>
<glyph name="kcedilla" format="2">
  <advance width="1191"/>
  <unicode hex="0137"/>
  <anchor x="0" y="0" name="Anchor-11"/>
  <anchor x="0" y="0" name="Anchor-10"/>
  <anchor x="0" y="0" name="Anchor-9"/>
  <anchor x="0" y="0" name="Anchor-8"/>
  <anchor x="614" y="0" name="Anchor-7"/>
  <outline>
    <contour>
      <point x="809" y="0" type="line"/>
      <point x="565" y="393" type="line"/>
      <point x="487" y="307" type="line"/>
      <point x="487" y="0" type="line"/>
      <point x="98" y="0" type="line"/>
      <point x="98" y="1495" type="line"/>
      <point x="487" y="1495" type="line"/>
      <point x="487" y="678" type="line"/>
      <point x="774" y="1077" type="line"/>
      <point x="1184" y="1077" type="line"/>
      <point x="813" y="606" type="line"/>
      <point x="1221" y="0" type="line"/>
    </contour>
    <contour>
      <point x="489" y="-436" type="line"/>
      <point x="563" y="-311" type="line"/>
      <point x="446" y="-311" type="line"/>
      <point x="446" y="-94" type="line"/>
      <point x="768" y="-94" type="line"/>
      <point x="768" y="-311" type="line"/>
      <point x="657" y="-436" type="line"/>
    </contour>
  </outline>
</glyph>
<glyph name="kgreenlandic" format="2">
  <advance width="1191"/>
  <unicode hex="0138"/>
  <outline>
    <contour>
      <point x="809" y="0" type="line"/>
      <point x="565" y="393" type="line"/>
      <point x="487" y="307" type="line"/>
      <point x="487" y="0" type="line"/>
      <point x="98" y="0" type="line"/>
      <point x="98" y="1077" type="line"/>
      <point x="487" y="1077" type="line"/>
      <point x="487" y="678" type="line"/>
      <point x="774" y="1077" type="line"/>
      <point x="1184" y="1077" type="line"/>
      <point x="813" y="606" type="line"/>
      <point x="1221" y="0" type="line"/>
    </contour>
  </outline>
</glyph>
<glyph name="Lacute" format="2">
  <advance width="1198"/>
  <unicode hex="0139"/>
  <anchor x="788" y="1077" name="Anchor-11"/>
  <anchor x="600" y="727" name="Anchor-10"/>
  <anchor x="432" y="1872" name="Anchor-9"/>
  <anchor x="0" y="0" name="Anchor-8"/>
  <anchor x="690" y="0" name="Anchor-7"/>
  <outline>
    <contour>
      <point x="453" y="1516" type="line"/>
      <point x="207" y="1581" type="line"/>
      <point x="309" y="1872" type="line"/>
      <point x="655" y="1872" type="line"/>
    </contour>
    <contour>
      <point x="125" y="0" type="line"/>
      <point x="125" y="1454" type="line"/>
      <point x="524" y="1454" type="line"/>
      <point x="524" y="348" type="line"/>
      <point x="1184" y="348" type="line"/>
      <point x="1184" y="0" type="line"/>
    </contour>
  </outline>
</glyph>
<glyph name="Lcedilla" format="2">
  <advance width="1198"/>
  <unicode hex="013B"/>
  <anchor x="788" y="1077" name="Anchor-11"/>
  <anchor x="600" y="727" name="Anchor-10"/>
  <anchor x="330" y="1454" name="Anchor-9"/>
  <anchor x="0" y="0" name="Anchor-8"/>
  <anchor x="690" y="0" name="Anchor-7"/>
  <outline>
    <contour>
      <point x="125" y="0" type="line"/>
      <point x="125" y="1454" type="line"/>
      <point x="524" y="1454" type="line"/>
      <point x="524" y="348" type="line"/>
      <point x="1184" y="348" type="line"/>
      <point x="1184" y="0" type="line"/>
    </contour>
    <contour>
      <point x="565" y="-436" type="line"/>
      <point x="639" y="-311" type="line"/>
      <point x="522" y="-311" type="line"/>
      <point x="522" y="-94" type="line"/>
      <point x="844" y="-94" type="line"/>
      <point x="844" y="-311" type="line"/>
      <point x="733" y="-436" type="line"/>
    </contour>
  </outline>
</glyph>
<glyph name="lcedilla" format="2">
  <advance width="727"/>
  <unicode hex="013C"/>
  <anchor x="633" y="1077" name="Anchor-11"/>
  <anchor x="365" y="539" name="Anchor-10"/>
  <anchor x="285" y="1454" name="Anchor-9"/>
  <anchor x="0" y="0" name="Anchor-8"/>
  <anchor x="414" y="0" name="Anchor-7"/>
  <outline>
    <contour>
      <point x="90" y="1495" type="line"/>
      <point x="479" y="1495" type="line"/>
      <point x="479" y="428" type="line" smooth="yes"/>
      <point x="479" y="305"/>
      <point x="580" y="305" type="qcurve" smooth="yes"/>
      <point x="629" y="305"/>
      <point x="686" y="336" type="qcurve"/>
      <point x="735" y="49" type="line"/>
      <point x="667" y="17"/>
      <point x="492" y="-20"/>
      <point x="414" y="-20" type="qcurve" smooth="yes"/>
      <point x="258" y="-20"/>
      <point x="90" y="141"/>
      <point x="90" y="291" type="qcurve" smooth="yes"/>
    </contour>
    <contour>
      <point x="289" y="-436" type="line"/>
      <point x="362" y="-311" type="line"/>
      <point x="246" y="-311" type="line"/>
      <point x="246" y="-94" type="line"/>
      <point x="567" y="-94" type="line"/>
      <point x="567" y="-311" type="line"/>
      <point x="457" y="-436" type="line"/>
    </contour>
  </outline>
</glyph>
<glyph name="Lcaron" format="2">
  <advance width="1198"/>
  <unicode hex="013D"/>
  <anchor x="788" y="1077" name="Anchor-11"/>
  <anchor x="600" y="727" name="Anchor-10"/>
  <anchor x="330" y="1454" name="Anchor-9"/>
  <anchor x="0" y="0" name="Anchor-8"/>
  <anchor x="690" y="0" name="Anchor-7"/>
  <outline>
    <contour>
      <point x="952" y="1139" type="line"/>
      <point x="707" y="1204" type="line"/>
      <point x="809" y="1495" type="line"/>
      <point x="1155" y="1495" type="line"/>
    </contour>
    <contour>
      <point x="125" y="0" type="line"/>
      <point x="125" y="1454" type="line"/>
      <point x="524" y="1454" type="line"/>
      <point x="524" y="348" type="line"/>
      <point x="1184" y="348" type="line"/>
      <point x="1184" y="0" type="line"/>
    </contour>
  </outline>
</glyph>
<glyph name="lcaron" format="2">
  <advance width="727"/>
  <unicode hex="013E"/>
  <anchor x="633" y="1077" name="Anchor-11"/>
  <anchor x="365" y="539" name="Anchor-10"/>
  <anchor x="285" y="1454" name="Anchor-9"/>
  <anchor x="0" y="0" name="Anchor-8"/>
  <anchor x="414" y="0" name="Anchor-7"/>
  <outline>
    <contour>
      <point x="90" y="1495" type="line"/>
      <point x="479" y="1495" type="line"/>
      <point x="479" y="428" type="line" smooth="yes"/>
      <point x="479" y="305"/>
      <point x="580" y="305" type="qcurve" smooth="yes"/>
      <point x="629" y="305"/>
      <point x="686" y="336" type="qcurve"/>
      <point x="735" y="49" type="line"/>
      <point x="667" y="17"/>
      <point x="492" y="-20"/>
      <point x="414" y="-20" type="qcurve" smooth="yes"/>
      <point x="258" y="-20"/>
      <point x="90" y="141"/>
      <point x="90" y="291" type="qcurve" smooth="yes"/>
    </contour>
    <contour>
      <point x="797" y="1139" type="line"/>
      <point x="551" y="1204" type="line"/>
      <point x="653" y="1495" type="line"/>
      <point x="999" y="1495" type="line"/>
    </contour>
  </outline>
</glyph>
<glyph name="Lslash" format="2">
  <advance width="1222"/>
  <unicode hex="0141"/>
  <anchor x="813" y="1077" name="Anchor-11"/>
  <anchor x="625" y="727" name="Anchor-10"/>
  <anchor x="354" y="1454" name="Anchor-9"/>
  <anchor x="0" y="0" name="Anchor-8"/>
  <anchor x="715" y="0" name="Anchor-7"/>
  <outline>
    <contour>
      <point x="549" y="348" type="line"/>
      <point x="1208" y="348" type="line"/>
      <point x="1208" y="0" type="line"/>
      <point x="150" y="0" type="line"/>
      <point x="150" y="563" type="line"/>
      <point x="53" y="516" type="line"/>
      <point x="-35" y="723" type="line"/>
      <point x="150" y="813" type="line"/>
      <point x="150" y="1454" type="line"/>
      <point x="549" y="1454" type="line"/>
      <point x="549" y="1008" type="line"/>
      <point x="694" y="1079" type="line"/>
      <point x="782" y="872" type="line"/>
      <point x="549" y="758" type="line"/>
    </contour>
  </outline>
</glyph>
<glyph name="lslash" format="2">
  <advance width="792"/>
  <unicode hex="0142"/>
  <anchor x="690" y="1077" name="Anchor-11"/>
  <anchor x="422" y="539" name="Anchor-10"/>
  <anchor x="342" y="1454" name="Anchor-9"/>
  <anchor x="0" y="0" name="Anchor-8"/>
  <anchor x="471" y="0" name="Anchor-7"/>
  <outline>
    <contour>
      <point x="637" y="305" type="qcurve" smooth="yes"/>
      <point x="686" y="305"/>
      <point x="743" y="336" type="qcurve"/>
      <point x="793" y="49" type="line"/>
      <point x="725" y="17"/>
      <point x="549" y="-20"/>
      <point x="471" y="-20" type="qcurve" smooth="yes"/>
      <point x="315" y="-20"/>
      <point x="147" y="141"/>
      <point x="147" y="291" type="qcurve" smooth="yes"/>
      <point x="147" y="557" type="line"/>
      <point x="66" y="516" type="line"/>
      <point x="-23" y="723" type="line"/>
      <point x="147" y="807" type="line"/>
      <point x="147" y="1495" type="line"/>
      <point x="537" y="1495" type="line"/>
      <point x="537" y="995" type="line"/>
      <point x="707" y="1079" type="line"/>
      <point x="795" y="872" type="line"/>
      <point x="537" y="745" type="line"/>
      <point x="537" y="428" type="line" smooth="yes"/>
      <point x="537" y="305"/>
    </contour>
  </outline>
</glyph>
<glyph name="Nacute" format="2">
  <advance width="1544"/>
  <unicode hex="0143"/>
  <anchor x="0" y="0" name="Anchor-11"/>
  <anchor x="0" y="0" name="Anchor-10"/>
  <anchor x="868" y="1870" name="Anchor-9"/>
  <anchor x="0" y="0" name="Anchor-8"/>
  <anchor x="766" y="0" name="Anchor-7"/>
  <outline>
    <contour>
      <point x="889" y="1513" type="line"/>
      <point x="643" y="1579" type="line"/>
      <point x="745" y="1870" type="line"/>
      <point x="1092" y="1870" type="line"/>
    </contour>
    <contour>
      <point x="524" y="715" type="line"/>
      <point x="524" y="0" type="line"/>
      <point x="125" y="0" type="line"/>
      <point x="125" y="1454" type="line"/>
      <point x="436" y="1454" type="line"/>
      <point x="1020" y="715" type="line"/>
      <point x="1020" y="1454" type="line"/>
      <point x="1419" y="1454" type="line"/>
      <point x="1419" y="0" type="line"/>
      <point x="1102" y="0" type="line"/>
    </contour>
  </outline>
</glyph>
<glyph name="Ncedilla" format="2">
  <advance width="1544"/>
  <unicode hex="0145"/>
  <anchor x="0" y="0" name="Anchor-11"/>
  <anchor x="0" y="0" name="Anchor-10"/>
  <anchor x="766" y="1452" name="Anchor-9"/>
  <anchor x="0" y="0" name="Anchor-8"/>
  <anchor x="766" y="0" name="Anchor-7"/>
  <outline>
    <contour>
      <point x="524" y="715" type="line"/>
      <point x="524" y="0" type="line"/>
      <point x="125" y="0" type="line"/>
      <point x="125" y="1454" type="line"/>
      <point x="436" y="1454" type="line"/>
      <point x="1020" y="715" type="line"/>
      <point x="1020" y="1454" type="line"/>
      <point x="1419" y="1454" type="line"/>
      <point x="1419" y="0" type="line"/>
      <point x="1102" y="0" type="line"/>
    </contour>
    <contour>
      <point x="641" y="-436" type="line"/>
      <point x="715" y="-311" type="line"/>
      <point x="598" y="-311" type="line"/>
      <point x="598" y="-94" type="line"/>
      <point x="920" y="-94" type="line"/>
      <point x="920" y="-311" type="line"/>
      <point x="809" y="-436" type="line"/>
    </contour>
  </outline>
</glyph>
<glyph name="Ncaron" format="2">
  <advance width="1544"/>
  <unicode hex="0147"/>
  <anchor x="0" y="0" name="Anchor-11"/>
  <anchor x="0" y="0" name="Anchor-10"/>
  <anchor x="766" y="1870" name="Anchor-9"/>
  <anchor x="0" y="0" name="Anchor-8"/>
  <anchor x="766" y="0" name="Anchor-7"/>
  <outline>
    <contour>
      <point x="592" y="1870" type="line"/>
      <point x="766" y="1741" type="line"/>
      <point x="940" y="1870" type="line"/>
      <point x="1137" y="1784" type="line"/>
      <point x="905" y="1548" type="line"/>
      <point x="627" y="1548" type="line"/>
      <point x="395" y="1784" type="line"/>
    </contour>
    <contour>
      <point x="524" y="715" type="line"/>
      <point x="524" y="0" type="line"/>
      <point x="125" y="0" type="line"/>
      <point x="125" y="1454" type="line"/>
      <point x="436" y="1454" type="line"/>
      <point x="1020" y="715" type="line"/>
      <point x="1020" y="1454" type="line"/>
      <point x="1419" y="1454" type="line"/>
      <point x="1419" y="0" type="line"/>
      <point x="1102" y="0" type="line"/>
    </contour>
  </outline>
</glyph>
<glyph name="Eng" format="2">
  <advance width="1505"/>
  <unicode hex="014A"/>
  <outline>
    <contour>
      <point x="524" y="702" type="line"/>
      <point x="524" y="0" type="line"/>
      <point x="125" y="0" type="line"/>
      <point x="125" y="1454" type="line"/>
      <point x="432" y="1454" type="line"/>
      <point x="979" y="735" type="line"/>
      <point x="979" y="1452" type="line"/>
      <point x="1378" y="1452" type="line"/>
      <point x="1378" y="10" type="line" smooth="yes"/>
      <point x="1378" y="-187"/>
      <point x="1139" y="-428"/>
      <point x="956" y="-428" type="qcurve" smooth="yes"/>
      <point x="780" y="-428"/>
      <point x="651" y="-317" type="qcurve"/>
      <point x="811" y="-53" type="line"/>
      <point x="849" y="-94"/>
      <point x="907" y="-94" type="qcurve" smooth="yes"/>
      <point x="945" y="-94"/>
      <point x="989" y="-47"/>
      <point x="989" y="-6" type="qcurve" smooth="yes"/>
      <point x="989" y="90" type="line"/>
    </contour>
  </outline>
</glyph>
<glyph name="eng" format="2">
  <advance width="1269"/>
  <unicode hex="014B"/>
  <outline>
    <contour>
      <point x="453" y="-317" type="qcurve"/>
      <point x="612" y="-53" type="line"/>
      <point x="650" y="-94"/>
      <point x="709" y="-94" type="qcurve" smooth="yes"/>
      <point x="748" y="-94"/>
      <point x="793" y="-47"/>
      <point x="793" y="-6" type="qcurve" smooth="yes"/>
      <point x="793" y="606" type="line" smooth="yes"/>
      <point x="793" y="681"/>
      <point x="725" y="758"/>
      <point x="623" y="758"/>
      <point x="513" y="670"/>
      <point x="487" y="604" type="qcurve"/>
      <point x="487" y="0" type="line"/>
      <point x="98" y="0" type="line"/>
      <point x="98" y="1077" type="line"/>
      <point x="449" y="1077" type="line"/>
      <point x="449" y="918" type="line"/>
      <point x="506" y="1006"/>
      <point x="714" y="1098"/>
      <point x="854" y="1098" type="qcurve" smooth="yes"/>
      <point x="1180" y="1098"/>
      <point x="1180" y="709" type="qcurve" smooth="yes"/>
      <point x="1180" y="25" type="line" smooth="yes"/>
      <point x="1180" y="-175"/>
      <point x="942" y="-428"/>
      <point x="758" y="-428" type="qcurve" smooth="yes"/>
      <point x="582" y="-428"/>
    </contour>
  </outline>
</glyph>
<glyph name="obreve" format="2">
  <advance width="1257"/>
  <unicode hex="014F"/>
  <anchor x="942" y="928" name="Anchor-11"/>
  <anchor x="629" y="539" name="Anchor-10"/>
  <anchor x="629" y="1495" name="Anchor-9"/>
  <anchor x="801" y="0" name="Anchor-8"/>
  <anchor x="629" y="0" name="Anchor-7"/>
  <outline>
    <contour>
      <point x="754" y="1495" type="qcurve"/>
      <point x="954" y="1495" type="line"/>
      <point x="954" y="1348"/>
      <point x="773" y="1163"/>
      <point x="485" y="1163"/>
      <point x="303" y="1348"/>
      <point x="303" y="1495" type="qcurve"/>
      <point x="504" y="1495" type="line"/>
      <point x="504" y="1427"/>
      <point x="578" y="1329"/>
      <point x="629" y="1329" type="qcurve" smooth="yes"/>
      <point x="676" y="1329"/>
      <point x="748" y="1423"/>
    </contour>
    <contour>
      <point x="39" y="539" type="qcurve" smooth="yes"/>
      <point x="39" y="652"/>
      <point x="117" y="852"/>
      <point x="261" y="1007"/>
      <point x="489" y="1098"/>
      <point x="769" y="1098"/>
      <point x="997" y="1007"/>
      <point x="1141" y="852"/>
      <point x="1219" y="652"/>
      <point x="1219" y="539" type="qcurve" smooth="yes"/>
      <point x="1219" y="427"/>
      <point x="1141" y="227"/>
      <point x="997" y="71"/>
      <point x="769" y="-20"/>
      <point x="489" y="-20"/>
      <point x="261" y="71"/>
      <point x="117" y="227"/>
      <point x="39" y="427"/>
    </contour>
    <contour>
      <point x="713" y="307"/>
      <point x="819" y="433"/>
      <point x="819" y="645"/>
      <point x="713" y="770"/>
      <point x="629" y="770" type="qcurve" smooth="yes"/>
      <point x="544" y="770"/>
      <point x="438" y="645"/>
      <point x="438" y="433"/>
      <point x="545" y="307"/>
    </contour>
  </outline>
</glyph>
<glyph name="odblacute" format="2">
  <advance width="1257"/>
  <unicode hex="0151"/>
  <anchor x="942" y="928" name="Anchor-11"/>
  <anchor x="629" y="539" name="Anchor-10"/>
  <anchor x="629" y="1077" name="Anchor-9"/>
  <anchor x="801" y="0" name="Anchor-8"/>
  <anchor x="629" y="0" name="Anchor-7"/>
  <outline>
    <contour>
      <point x="500" y="1141" type="line"/>
      <point x="315" y="1206" type="line"/>
      <point x="397" y="1497" type="line"/>
      <point x="682" y="1497" type="line"/>
    </contour>
    <contour>
      <point x="889" y="1141" type="line"/>
      <point x="705" y="1206" type="line"/>
      <point x="786" y="1497" type="line"/>
      <point x="1071" y="1497" type="line"/>
    </contour>
    <contour>
      <point x="39" y="539" type="qcurve" smooth="yes"/>
      <point x="39" y="652"/>
      <point x="117" y="852"/>
      <point x="261" y="1007"/>
      <point x="489" y="1098"/>
      <point x="769" y="1098"/>
      <point x="997" y="1007"/>
      <point x="1141" y="852"/>
      <point x="1219" y="652"/>
      <point x="1219" y="539" type="qcurve" smooth="yes"/>
      <point x="1219" y="427"/>
      <point x="1141" y="227"/>
      <point x="997" y="71"/>
      <point x="769" y="-20"/>
      <point x="489" y="-20"/>
      <point x="261" y="71"/>
      <point x="117" y="227"/>
      <point x="39" y="427"/>
    </contour>
    <contour>
      <point x="713" y="307"/>
      <point x="819" y="433"/>
      <point x="819" y="645"/>
      <point x="713" y="770"/>
      <point x="629" y="770" type="qcurve" smooth="yes"/>
      <point x="544" y="770"/>
      <point x="438" y="645"/>
      <point x="438" y="433"/>
      <point x="545" y="307"/>
    </contour>
  </outline>
</glyph>
<glyph name="OE" format="2">
  <advance width="2109"/>
  <unicode hex="0152"/>
  <outline>
    <contour>
      <point x="2048" y="348" type="line"/>
      <point x="2048" y="0" type="line"/>
      <point x="1053" y="0" type="line"/>
      <point x="1053" y="84" type="line"/>
      <point x="901" y="-10"/>
      <point x="739" y="-10" type="qcurve" smooth="yes"/>
      <point x="588" y="-10"/>
      <point x="324" y="116"/>
      <point x="146" y="322"/>
      <point x="45" y="589"/>
      <point x="45" y="729" type="qcurve" smooth="yes"/>
      <point x="45" y="921"/>
      <point x="224" y="1257"/>
      <point x="550" y="1464"/>
      <point x="748" y="1464" type="qcurve" smooth="yes"/>
      <point x="908" y="1464"/>
      <point x="1053" y="1372" type="qcurve"/>
      <point x="1053" y="1454" type="line"/>
      <point x="2030" y="1454" type="line"/>
      <point x="2030" y="1106" type="line"/>
      <point x="1452" y="1106" type="line"/>
      <point x="1452" y="913" type="line"/>
      <point x="1919" y="913" type="line"/>
      <point x="1919" y="565" type="line"/>
      <point x="1452" y="565" type="line"/>
      <point x="1452" y="348" type="line"/>
    </contour>
    <contour>
      <point x="1034" y="729" type="qcurve" smooth="yes"/>
      <point x="1034" y="831"/>
      <point x="972" y="1000"/>
      <point x="835" y="1110"/>
      <point x="741" y="1110" type="qcurve" smooth="yes"/>
      <point x="668" y="1110"/>
      <point x="554" y="1044"/>
      <point x="486" y="933"/>
      <point x="451" y="799"/>
      <point x="451" y="725" type="qcurve" smooth="yes"/>
      <point x="451" y="624"/>
      <point x="512" y="455"/>
      <point x="648" y="344"/>
      <point x="743" y="344" type="qcurve" smooth="yes"/>
      <point x="816" y="344"/>
      <point x="931" y="410"/>
      <point x="999" y="521"/>
      <point x="1034" y="655"/>
    </contour>
  </outline>
</glyph>
<glyph name="oe" format="2">
  <advance width="2029"/>
  <unicode hex="0153"/>
  <outline>
    <contour>
      <point x="39" y="785"/>
      <point x="366" y="1098"/>
      <point x="621" y="1098" type="qcurve" smooth="yes"/>
      <point x="744" y="1098"/>
      <point x="934" y="1013"/>
      <point x="1018" y="922" type="qcurve"/>
      <point x="1113" y="1016"/>
      <point x="1301" y="1098"/>
      <point x="1419" y="1098" type="qcurve" smooth="yes"/>
      <point x="1587" y="1098"/>
      <point x="1853" y="955"/>
      <point x="2001" y="700"/>
      <point x="2001" y="539" type="qcurve" smooth="yes"/>
      <point x="2001" y="475"/>
      <point x="1991" y="420" type="qcurve"/>
      <point x="1235" y="420" type="line"/>
      <point x="1239" y="347"/>
      <point x="1350" y="250"/>
      <point x="1430" y="250" type="qcurve" smooth="yes"/>
      <point x="1496" y="250"/>
      <point x="1608" y="316"/>
      <point x="1628" y="367" type="qcurve"/>
      <point x="1948" y="272" type="line"/>
      <point x="1878" y="136"/>
      <point x="1594" y="-20"/>
      <point x="1417" y="-20" type="qcurve" smooth="yes"/>
      <point x="1308" y="-20"/>
      <point x="1132" y="52"/>
      <point x="1018" y="143" type="qcurve"/>
      <point x="904" y="51"/>
      <point x="733" y="-20"/>
      <point x="625" y="-20" type="qcurve" smooth="yes"/>
      <point x="367" y="-20"/>
      <point x="39" y="293"/>
    </contour>
    <contour>
      <point x="1591" y="653" type="line"/>
      <point x="1582" y="730"/>
      <point x="1482" y="821"/>
      <point x="1407" y="821" type="qcurve" smooth="yes"/>
      <point x="1331" y="821"/>
      <point x="1231" y="730"/>
      <point x="1223" y="653" type="qcurve"/>
    </contour>
    <contour>
      <point x="819" y="539" type="qcurve" smooth="yes"/>
      <point x="819" y="643"/>
      <point x="715" y="770"/>
      <point x="543" y="770"/>
      <point x="438" y="643"/>
      <point x="438" y="435"/>
      <point x="543" y="307"/>
      <point x="715" y="307"/>
      <point x="819" y="434"/>
    </contour>
  </outline>
</glyph>
<glyph name="Racute" format="2">
  <advance width="1382"/>
  <unicode hex="0154"/>
  <anchor x="0" y="0" name="Anchor-11"/>
  <anchor x="0" y="0" name="Anchor-10"/>
  <anchor x="756" y="1870" name="Anchor-9"/>
  <anchor x="0" y="0" name="Anchor-8"/>
  <anchor x="725" y="0" name="Anchor-7"/>
  <outline>
    <contour>
      <point x="776" y="1513" type="line"/>
      <point x="530" y="1579" type="line"/>
      <point x="633" y="1870" type="line"/>
      <point x="979" y="1870" type="line"/>
    </contour>
    <contour>
      <point x="125" y="0" type="line"/>
      <point x="125" y="1454" type="line"/>
      <point x="793" y="1454" type="line" smooth="yes"/>
      <point x="896" y="1454"/>
      <point x="1082" y="1366"/>
      <point x="1208" y="1224"/>
      <point x="1282" y="1043"/>
      <point x="1282" y="950" type="qcurve" smooth="yes"/>
      <point x="1282" y="824"/>
      <point x="1171" y="604"/>
      <point x="1073" y="535" type="qcurve"/>
      <point x="1380" y="0" type="line"/>
      <point x="942" y="0" type="line"/>
      <point x="686" y="446" type="line"/>
      <point x="524" y="446" type="line"/>
      <point x="524" y="0" type="line"/>
    </contour>
    <contour>
      <point x="524" y="795" type="line"/>
      <point x="776" y="795" type="line" smooth="yes"/>
      <point x="815" y="795"/>
      <point x="877" y="880"/>
      <point x="877" y="1020"/>
      <point x="807" y="1106"/>
      <point x="766" y="1106" type="qcurve" smooth="yes"/>
      <point x="524" y="1106" type="line"/>
    </contour>
  </outline>
</glyph>
